SmileySans.glyphspackage
{
glyphname = exclam;
layers = (
{
associatedMasterId = m01;
layerId = "368D6B4E-CFC7-46F1-8891-3C1787704FF2";
name = "Oct 14, 22, 18:02";
shapes = (
{
closed = 1;
nodes = (
(115,-40,o),
(147,-10,o),
(154,41,cs),
(161,91,o),
(136,121,o),
(96,121,cs),
(55,121,o),
(22,91,o),
(15,41,cs),
(8,-10,o),
(34,-40,o),
(75,-40,cs)
);
},
{
closed = 1;
nodes = (
(254,788,l),
(130,778,l),
(66,190,l),
(146,190,l)
);
}
);
width = 239;
},
{
layerId = m01;
name = Regular;
shapes = (
{
closed = 1;
nodes = (
(282,788,l),
(160,788,l),
(94,190,l),
(174,190,l)
);
},
{
pos = (28,0);
ref = period;
}
);
width = 322;
}
);
unicode = 33;
}
{
glyphname = numbersign;
layers = (
{
layerId = m01;
shapes = (
{
closed = 1;
nodes = (
(76,475,l),
(489,475,l),
(489,563,l),
(76,563,l)
);
},
{
closed = 1;
nodes = (
(297,768,l),
(217,768,l),
(60,-30,l),
(140,-30,l)
);
},
{
closed = 1;
nodes = (
(455,768,l),
(375,768,l),
(218,-30,l),
(298,-30,l)
);
},
{
closed = 1;
nodes = (
(26,175,l),
(439,175,l),
(439,263,l),
(26,263,l)
);
}
);
width = 493;
}
);
unicode = 35;
}
{
glyphname = dollar;
layers = (
{
layerId = m01;
shapes = (
{
closed = 1;
nodes = (
(-4,173,l),
(-1,49,o),
(70,-30,o),
(184,-30,cs),
(290,-30,o),
(374,40,o),
(398,147,cs),
(447,365,o),
(149,443,o),
(187,592,cs),
(197,635,o),
(232,674,o),
(282,674,cs),
(345,674,o),
(372,629,o),
(371,573,c),
(455,579,l),
(461,688,o),
(397,758,o),
(284,758,cs),
(193,758,o),
(118,701,o),
(95,612,cs),
(35,384,o),
(349,341,o),
(303,157,cs),
(288,97,o),
(249,53,o),
(193,53,cs),
(123,53,o),
(87,106,o),
(81,178,c)
);
},
{
closed = 1;
nodes = (
(367,880,l),
(295,880,l),
(102,-152,l),
(174,-152,l)
);
}
);
width = 450;
},
{
associatedMasterId = m01;
layerId = "FE083FF0-FE7D-46F7-BE37-67C7A6BC1E53";
name = "Nov 1, 22, 19:13";
shapes = (
{
closed = 1;
nodes = (
(-44,186,l),
(-1,230,l),
(-21,74,o),
(53,-30,o),
(184,-30,cs),
(290,-30,o),
(376,42,o),
(399,149,cs),
(448,383,o),
(159,443,o),
(197,592,cs),
(207,635,o),
(242,664,o),
(282,664,cs),
(349,664,o),
(379,606,o),
(358,519,c),
(321,555,l),
(498,575,l),
(447,522,l),
(480,664,o),
(415,758,o),
(284,758,cs),
(193,758,o),
(117,698,o),
(94,609,cs),
(34,371,o),
(338,342,o),
(292,157,cs),
(278,101,o),
(238,63,o),
(193,63,cs),
(122,63,o),
(81,134,o),
(92,240,c),
(132,206,l)
);
},
{
closed = 1;
nodes = (
(389,880,l),
(337,880,l),
(76,-152,l),
(128,-152,l)
);
}
);
width = 450;
},
{
associatedMasterId = m01;
layerId = "C5DC7827-91FF-45FC-97C9-4BF83D26E836";
name = "Nov 3, 22, 13:00";
shapes = (
{
closed = 1;
nodes = (
(-4,173,l),
(-1,49,o),
(70,-30,o),
(184,-30,cs),
(290,-30,o),
(376,42,o),
(399,149,cs),
(448,383,o),
(159,443,o),
(197,592,cs),
(207,635,o),
(242,664,o),
(282,664,cs),
(334,664,o),
(360,629,o),
(359,573,c),
(455,579,l),
(461,688,o),
(397,758,o),
(284,758,cs),
(193,758,o),
(117,698,o),
(94,609,cs),
(34,371,o),
(338,342,o),
(292,157,cs),
(278,101,o),
(238,63,o),
(193,63,cs),
(137,63,o),
(99,107,o),
(92,179,c)
);
},
{
closed = 1;
nodes = (
(367,880,l),
(295,880,l),
(102,-152,l),
(174,-152,l)
);
}
);
width = 450;
}
);
unicode = 36;
}
{
glyphname = percent;
layers = (
{
layerId = m01;
shapes = (
{
closed = 1;
nodes = (
(640,778,l),
(560,778,l),
(52,-30,l),
(132,-30,l)
);
},
{
closed = 1;
nodes = (
(248,326,o),
(297,399,o),
(318,556,cs),
(339,715,o),
(322,788,o),
(215,788,cs),
(120,788,o),
(71,715,o),
(48,556,cs),
(25,399,o),
(47,326,o),
(151,326,cs)
);
},
{
closed = 1;
nodes = (
(119,398,o),
(109,455,o),
(126,556,cs),
(143,657,o),
(163,715,o),
(207,715,cs),
(250,715,o),
(255,657,o),
(239,556,cs),
(223,455,o),
(204,398,o),
(160,398,cs)
);
},
{
closed = 1;
nodes = (
(572,-40,o),
(621,33,o),
(642,190,cs),
(663,349,o),
(646,422,o),
(539,422,cs),
(444,422,o),
(395,349,o),
(372,190,cs),
(349,33,o),
(371,-40,o),
(475,-40,cs)
);
},
{
closed = 1;
nodes = (
(443,32,o),
(433,89,o),
(450,190,cs),
(467,291,o),
(487,349,o),
(531,349,cs),
(574,349,o),
(579,291,o),
(563,190,cs),
(547,89,o),
(528,32,o),
(484,32,cs)
);
}
);
width = 690;
}
);
unicode = 37;
}
{
glyphname = ampersand;
kernLeft = amper;
kernRight = amper;
layers = (
{
layerId = m01;
shapes = (
{
closed = 1;
nodes = (
(312,109,o),
(262,52,o),
(210,52,cs),
(154,52,o),
(127,109,o),
(137,166,cs),
(146,226,o),
(182,263,o),
(232,306,c),
(192,388,l),
(117,327,o),
(48,259,o),
(33,161,cs),
(17,56,o),
(78,-40,o),
(182,-40,cs),
(255,-40,o),
(302,-10,o),
(351,37,cs),
(416,99,o),
(482,170,o),
(549,250,c),
(545,187,l),
(429,311,l),
(475,296,l),
(450,264,o),
(379,186,o),
(343,145,cs)
);
},
{
closed = 1;
nodes = (
(397,150,o),
(330,290,o),
(276,440,cs),
(256,495,o),
(238,544,o),
(249,589,cs),
(257,619,o),
(279,640,o),
(312,640,cs),
(366,640,o),
(384,577,o),
(353,533,c),
(321,558,l),
(499,538,l),
(451,527,l),
(480,645,o),
(420,722,o),
(315,722,cs),
(233,722,o),
(174,675,o),
(153,603,cs),
(135,542,o),
(149,480,o),
(183,391,cs),
(237,251,o),
(310,100,o),
(375,-40,c),
(478,4,l)
);
}
);
width = 549;
},
{
associatedMasterId = m01;
layerId = "CE31F51B-CD64-4F65-B2B0-CE3668E5D158";
name = "Oct 18, 22, 13:13";
shapes = (
{
closed = 1;
nodes = (
(333,109,o),
(283,52,o),
(231,52,cs),
(175,52,o),
(148,109,o),
(158,166,cs),
(167,226,o),
(203,263,o),
(253,306,c),
(213,388,l),
(138,327,o),
(69,259,o),
(54,161,cs),
(38,56,o),
(99,-40,o),
(203,-40,cs),
(273,-40,o),
(318,-10,o),
(369,37,cs),
(435,98,o),
(503,170,o),
(570,250,c),
(566,187,l),
(450,311,l),
(496,296,l),
(471,264,o),
(400,186,o),
(364,145,cs)
);
},
{
closed = 1;
nodes = (
(431,116,o),
(359,270,o),
(297,420,cs),
(275,474,o),
(260,541,o),
(271,586,cs),
(279,618,o),
(300,640,o),
(339,640,cs),
(375,640,o),
(394,610,o),
(387,573,cs),
(378,511,o),
(323,474,o),
(279,433,c),
(311,353,l),
(383,413,o),
(461,479,o),
(475,573,cs),
(490,666,o),
(432,722,o),
(346,722,cs),
(258,722,o),
(197,675,o),
(175,600,cs),
(157,539,o),
(165,459,o),
(204,371,cs),
(384,-30,l),
(512,-30,l)
);
}
);
width = 600;
},
{
associatedMasterId = m01;
layerId = "09DF7C74-D513-4FB3-83BD-60A3CCDF1242";
name = "Nov 2, 22, 11:14";
shapes = (
{
closed = 1;
nodes = (
(312,109,o),
(262,52,o),
(210,52,cs),
(154,52,o),
(127,109,o),
(137,166,cs),
(146,226,o),
(182,263,o),
(232,306,c),
(192,388,l),
(117,327,o),
(48,259,o),
(33,161,cs),
(17,56,o),
(78,-40,o),
(182,-40,cs),
(255,-40,o),
(302,-10,o),
(351,37,cs),
(416,99,o),
(482,170,o),
(549,250,c),
(545,187,l),
(429,311,l),
(475,296,l),
(450,264,o),
(379,186,o),
(343,145,cs)
);
},
{
closed = 1;
nodes = (
(416,116,o),
(330,290,o),
(276,440,cs),
(256,495,o),
(238,544,o),
(249,589,cs),
(257,619,o),
(279,640,o),
(312,640,cs),
(366,640,o),
(384,577,o),
(353,533,c),
(321,558,l),
(499,538,l),
(451,527,l),
(480,645,o),
(420,722,o),
(315,722,cs),
(233,722,o),
(174,675,o),
(153,603,cs),
(135,542,o),
(149,480,o),
(183,391,cs),
(237,251,o),
(307,110,o),
(369,-30,c),
(497,-30,l)
);
}
);
width = 549;
}
);
unicode = 38;
}
{
glyphname = quotesingle;
layers = (
{
layerId = m01;
shapes = (
{
closed = 1;
nodes = (
(90,556,l),
(155,556,l),
(227,828,l),
(124,828,l)
);
}
);
width = 203;
}
);
unicode = 39;
}
{
glyphname = parenleft;
layers = (
{
layerId = m01;
shapes = (
{
closed = 1;
nodes = (
(197,-164,l),
(161,-61,o),
(143,48,o),
(143,156,cs),
(143,382,o),
(230,605,o),
(365,762,c),
(298,814,l),
(151,645,o),
(59,409,o),
(59,166,cs),
(59,48,o),
(75,-71,o),
(113,-190,c)
);
}
);
width = 283;
},
{
associatedMasterId = m01;
layerId = "C7380F83-F1E9-49B0-8A85-4AFF73B63773";
name = "Oct 28, 22, 13:49";
shapes = (
{
closed = 1;
nodes = (
(172,-78,o),
(151,40,o),
(151,159,cs),
(151,398,o),
(235,635,o),
(410,810,c),
(312,810,l),
(140,633,o),
(60,398,o),
(60,163,cs),
(60,43,o),
(81,-77,o),
(120,-190,c),
(212,-190,l)
);
}
);
width = 373;
}
);
unicode = 40;
}
{
glyphname = parenright;
layers = (
{
layerId = m01;
shapes = (
{
closed = 1;
nodes = (
(108,788,l),
(144,685,o),
(162,576,o),
(162,468,cs),
(162,242,o),
(75,19,o),
(-60,-138,c),
(7,-190,l),
(154,-21,o),
(246,215,o),
(246,458,cs),
(246,576,o),
(230,695,o),
(192,814,c)
);
}
);
width = 313;
},
{
associatedMasterId = m01;
layerId = "627D53DC-FA69-448B-93AA-45B0E45E4FDC";
name = "Oct 28, 22, 13:51";
shapes = (
{
angle = 180;
pos = (373,620);
ref = parenleft;
}
);
width = 373;
}
);
unicode = 41;
}
{
glyphname = asterisk;
layers = (
{
layerId = m01;
shapes = (
{
closed = 1;
nodes = (
(222,781,l),
(221,651,l),
(133,729,l),
(87,661,l),
(192,608,l),
(70,553,l),
(106,485,l),
(207,562,l),
(170,432,l),
(257,432,l),
(257,562,l),
(347,484,l),
(392,552,l),
(285,607,l),
(409,661,l),
(369,731,l),
(270,651,l),
(308,781,l)
);
}
);
width = 439;
},
{
associatedMasterId = m01;
layerId = "1C930B95-A496-4D1B-B51A-A1D242482814";
name = "Nov 1, 22, 19:12";
shapes = (
{
closed = 1;
nodes = (
(222,781,l),
(217,658,l),
(133,729,l),
(87,661,l),
(182,608,l),
(70,553,l),
(106,485,l),
(200,552,l),
(170,432,l),
(257,432,l),
(261,554,l),
(347,484,l),
(392,552,l),
(295,607,l),
(409,661,l),
(369,731,l),
(277,661,l),
(308,781,l)
);
}
);
width = 439;
}
);
unicode = 42;
}
{
glyphname = plus;
layers = (
{
associatedMasterId = m01;
layerId = "4DFE398A-A9F9-48B7-8A9C-8F73FBB57B08";
name = "Oct 17, 22, 17:27";
shapes = (
{
closed = 1;
nodes = (
(53,258,l),
(409,258,l),
(416,308,l),
(60,308,l)
);
},
{
closed = 1;
nodes = (
(295,555,l),
(242,555,l),
(161,-30,l),
(214,-30,l)
);
}
);
width = 474;
},
{
layerId = m01;
name = Regular;
shapes = (
{
closed = 1;
nodes = (
(40,246,l),
(421,246,l),
(431,321,l),
(50,321,l)
);
},
{
closed = 1;
nodes = (
(308,555,l),
(230,555,l),
(149,-30,l),
(232,-30,l)
);
}
);
width = 471;
},
{
associatedMasterId = m01;
layerId = "805ABE3B-DC43-4F75-B50A-88DF64EF8BB1";
name = "Oct 17, 22, 17:27";
shapes = (
{
closed = 1;
nodes = (
(34,241,l),
(427,241,l),
(438,325,l),
(45,325,l)
);
},
{
closed = 1;
nodes = (
(315,555,l),
(225,555,l),
(144,-30,l),
(234,-30,l)
);
}
);
width = 474;
}
);
unicode = 43;
}
{
glyphname = comma;
layers = (
{
layerId = m01;
shapes = (
{
closed = 1;
nodes = (
(55,-2,o),
(11,-113,o),
(-34,-200,c),
(20,-224,l),
(66,-163,o),
(134,-22,o),
(164,69,c),
(73,88,l)
);
}
);
width = 239;
},
{
associatedMasterId = m01;
layerId = "B27458C8-57C7-4F2B-8B6F-C648D40147A7";
name = "Oct 14, 22, 17:41";
shapes = (
{
closed = 1;
nodes = (
(97,-78,o),
(129,-5,o),
(135,53,cs),
(139,94,o),
(119,118,o),
(85,118,cs),
(49,118,o),
(29,91,o),
(26,59,cs),
(21,21,o),
(46,-11,o),
(96,5,c),
(87,20,l),
(76,-25,o),
(54,-44,o),
(5,-52,c),
(8,-86,l)
);
}
);
width = 209;
}
);
unicode = 44;
}
{
glyphname = hyphen;
layers = (
{
layerId = m01;
shapes = (
{
closed = 1;
nodes = (
(25,262,l),
(257,262,l),
(270,350,l),
(38,350,l)
);
}
);
width = 295;
}
);
unicode = 45;
}
{
glyphname = period;
layers = (
{
layerId = m01;
shapes = (
{
closed = 1;
nodes = (
(112,-40,o),
(142,-12,o),
(149,36,cs),
(156,83,o),
(132,111,o),
(94,111,cs),
(56,111,o),
(25,83,o),
(18,36,cs),
(11,-12,o),
(36,-40,o),
(75,-40,cs)
);
}
);
width = 239;
}
);
unicode = 46;
}
{
glyphname = slash;
layers = (
{
layerId = m01;
shapes = (
{
closed = 1;
nodes = (
(382,780,l),
(297,780,l),
(12,-30,l),
(97,-30,l)
);
}
);
width = 394;
}
);
unicode = 47;
}
{
glyphname = zero;
kernLeft = zero;
kernRight = zero;
layers = (
{
layerId = m01;
shapes = (
{
closed = 1;
nodes = (
(341,-40,o),
(414,84,o),
(451,367,cs),
(489,654,o),
(461,778,o),
(307,778,cs),
(173,778,o),
(102,654,o),
(61,367,cs),
(21,84,o),
(54,-40,o),
(204,-40,cs)
);
},
{
closed = 1;
nodes = (
(140,50,o),
(127,146,o),
(161,367,cs),
(195,591,o),
(226,688,o),
(301,688,cs),
(375,688,o),
(385,591,o),
(351,367,cs),
(317,146,o),
(289,50,o),
(213,50,cs)
);
}
);
width = 490;
},
{
associatedMasterId = m01;
layerId = "0358CC67-50C9-4349-B3CD-10CE5ADF41A2";
name = "Oct 14, 22, 15:22";
shapes = (
{
closed = 1;
nodes = (
(338,-40,o),
(442,84,o),
(477,367,cs),
(512,654,o),
(456,778,o),
(318,778,cs),
(199,778,o),
(99,654,o),
(61,367,cs),
(24,84,o),
(82,-40,o),
(216,-40,cs)
);
},
{
closed = 1;
nodes = (
(162,50,o),
(130,146,o),
(161,367,cs),
(192,591,o),
(246,688,o),
(311,688,cs),
(375,688,o),
(407,591,o),
(377,367,cs),
(347,146,o),
(291,50,o),
(225,50,cs)
);
}
);
width = 537;
}
);
unicode = 48;
}
{
glyphname = one;
kernLeft = one;
kernRight = one;
layers = (
{
layerId = m01;
shapes = (
{
closed = 1;
nodes = (
(272,763,l),
(208,768,l),
(176,741,o),
(112,713,o),
(74,713,c),
(93,761,l),
(81,586,l),
(61,636,l),
(112,633,o),
(167,647,o),
(202,665,c),
(163,683,l),
(63,-30,l),
(160,-30,l)
);
}
);
width = 286;
},
{
associatedMasterId = m01;
layerId = "D94F0A11-72AD-411D-8BF1-7743A03179D9";
name = "Oct 14, 22, 13:23";
shapes = (
{
closed = 1;
nodes = (
(265,768,l),
(190,768,l),
(164,748,o),
(134,740,o),
(94,736,c),
(82,651,l),
(120,651,o),
(169,663,o),
(197,677,c),
(158,703,l),
(55,-30,l),
(152,-30,l)
);
}
);
width = 600;
}
);
unicode = 49;
}
{
glyphname = two;
kernLeft = two;
kernRight = two;
layers = (
{
associatedMasterId = m01;
layerId = "F3DFFD2C-B803-4477-B491-CFC61FE6B254";
name = "Oct 14, 22, 15:31";
shapes = (
{
closed = 1;
nodes = (
(388,-30,l),
(412,62,l),
(110,62,l),
(162,24,l),
(233,301,o),
(383,319,o),
(468,543,cs),
(513,660,o),
(447,778,o),
(319,778,cs),
(181,778,o),
(138,667,o),
(122,547,c),
(92,615,l),
(265,575,l),
(207,530,l),
(226,642,o),
(251,688,o),
(313,688,cs),
(377,688,o),
(395,606,o),
(367,545,cs),
(280,355,o),
(122,310,o),
(43,-30,c)
);
}
);
width = 600;
},
{
associatedMasterId = m01;
layerId = "0FC10EF6-99B3-4885-A3D3-5EC1D142006F";
name = "Oct 14, 22, 15:37";
shapes = (
{
closed = 1;
nodes = (
(388,-30,l),
(412,62,l),
(110,62,l),
(153,24,l),
(194,351,o),
(431,336,o),
(476,560,cs),
(501,683,o),
(447,778,o),
(319,778,cs),
(181,778,o),
(138,667,o),
(122,547,c),
(92,615,l),
(265,575,l),
(207,530,l),
(226,642,o),
(251,688,o),
(313,688,cs),
(377,688,o),
(391,627,o),
(375,562,cs),
(328,372,o),
(82,390,o),
(43,-30,c)
);
}
);
width = 600;
},
{
layerId = m01;
name = Regular;
shapes = (
{
closed = 1;
nodes = (
(325,-30,l),
(349,65,l),
(63,65,l),
(105,24,l),
(146,262,o),
(355,330,o),
(410,555,cs),
(436,661,o),
(394,775,o),
(270,778,cs),
(135,781,o),
(77,667,o),
(60,547,c),
(33,615,l),
(206,575,l),
(148,530,l),
(167,642,o),
(202,690,o),
(256,690,cs),
(317,690,o),
(329,622,o),
(312,557,cs),
(261,367,o),
(45,310,o),
(-4,-30,c)
);
}
);
width = 416;
}
);
unicode = 50;
}
{
glyphname = three;
kernLeft = three;
kernRight = three;
layers = (
{
layerId = m01;
shapes = (
{
closed = 1;
nodes = (
(-39,154,l),
(11,200,l),
(-12,22,o),
(68,-40,o),
(160,-40,cs),
(268,-40,o),
(352,40,o),
(377,205,cs),
(397,341,o),
(358,434,o),
(214,429,c),
(201,393,l),
(299,408,o),
(384,474,o),
(405,578,cs),
(426,681,o),
(377,778,o),
(255,778,cs),
(125,778,o),
(71,663,o),
(54,548,c),
(36,645,l),
(208,605,l),
(139,529,l),
(160,636,o),
(190,690,o),
(248,690,cs),
(304,690,o),
(320,632,o),
(307,576,cs),
(291,508,o),
(226,458,o),
(146,445,c),
(128,368,l),
(255,379,o),
(303,325,o),
(278,197,cs),
(258,94,o),
(221,50,o),
(171,50,cs),
(123,50,o),
(81,103,o),
(103,215,c),
(144,178,l)
);
}
);
width = 432;
},
{
associatedMasterId = m01;
layerId = "B045638E-8AB3-4B0E-A07E-0AA8F86E9AB5";
name = "Oct 14, 22, 15:53";
shapes = (
{
closed = 1;
nodes = (
(274,-40,o),
(355,64,o),
(376,205,cs),
(397,341,o),
(367,434,o),
(223,439,c),
(210,403,l),
(308,408,o),
(387,485,o),
(410,575,cs),
(434,678,o),
(373,778,o),
(254,778,cs),
(121,778,o),
(70,657,o),
(52,537,c),
(24,635,l),
(196,595,l),
(137,520,l),
(158,632,o),
(185,688,o),
(247,688,cs),
(302,688,o),
(324,633,o),
(310,577,cs),
(291,505,o),
(240,453,o),
(155,455,c),
(137,378,l),
(264,379,o),
(302,325,o),
(277,197,cs),
(261,113,o),
(224,50,o),
(156,50,cs),
(96,50,o),
(67,132,o),
(85,215,c),
(125,178,l),
(-58,154,l),
(-6,218,l),
(-34,71,o),
(27,-40,o),
(147,-40,cs)
);
}
);
width = 455;
}
);
unicode = 51;
}
{
glyphname = four;
kernLeft = four;
kernRight = four;
layers = (
{
layerId = m01;
shapes = (
{
closed = 1;
nodes = (
(320,643,o),
(280,450,o),
(261,317,cs),
(211,-30,l),
(308,-30,l),
(420,768,l),
(326,768,l),
(237,604,o),
(106,404,o),
(6,253,c),
(-4,177,l),
(404,177,l),
(417,267,l),
(50,267,l),
(85,229,l),
(170,358,o),
(285,546,o),
(360,690,c),
(331,686,l)
);
}
);
width = 444;
},
{
associatedMasterId = m01;
layerId = "02BA9782-E57C-4238-8104-E5BE3E20D31C";
name = "Oct 18, 22, 15:05";
shapes = (
{
closed = 1;
nodes = (
(302,626,o),
(282,530,o),
(274,477,cs),
(195,-30,l),
(292,-30,l),
(412,768,l),
(311,768,l),
(222,604,o),
(92,383,o),
(-8,232,c),
(-18,156,l),
(390,156,l),
(403,246,l),
(36,246,l),
(66,208,l),
(151,337,o),
(260,529,o),
(335,673,c),
(313,669,l)
);
}
);
width = 424;
},
{
associatedMasterId = m01;
layerId = "1ED4408B-8EAA-4535-A45E-84F3E56B94BF";
name = "Oct 27, 22, 17:28";
shapes = (
{
closed = 1;
nodes = (
(310,626,o),
(292,530,o),
(284,477,cs),
(211,-30,l),
(308,-30,l),
(420,768,l),
(319,768,l),
(230,604,o),
(106,404,o),
(6,253,c),
(-4,177,l),
(404,177,l),
(417,267,l),
(50,267,l),
(80,229,l),
(165,358,o),
(268,529,o),
(343,673,c),
(321,669,l)
);
}
);
width = 444;
}
);
unicode = 52;
}
{
glyphname = five;
kernLeft = five;
kernRight = five;
layers = (
{
layerId = m01;
shapes = (
{
closed = 1;
nodes = (
(235,768,l),
(146,768,l),
(70,345,l),
(141,330,l),
(157,379,o),
(190,411,o),
(231,411,cs),
(278,411,o),
(312,363,o),
(289,219,cs),
(271,109,o),
(238,50,o),
(173,50,cs),
(107,50,o),
(87,131,o),
(102,214,c),
(153,181,l),
(-38,155,l),
(13,218,l),
(-11,70,o),
(35,-40,o),
(165,-40,cs),
(294,-40,o),
(366,62,o),
(388,227,cs),
(410,391,o),
(371,492,o),
(264,492,cs),
(206,492,o),
(158,451,o),
(137,403,c),
(164,396,l)
);
},
{
closed = 1;
nodes = (
(179,680,l),
(414,680,l),
(433,768,l),
(192,768,l)
);
}
);
width = 432;
},
{
associatedMasterId = m01;
layerId = "A597B651-92EF-4DBD-AB01-E999D75BC01B";
name = "Oct 17, 22, 12:35";
shapes = (
{
closed = 1;
nodes = (
(220,768,l),
(131,768,l),
(63,365,l),
(138,350,l),
(150,389,o),
(179,414,o),
(215,414,cs),
(262,414,o),
(290,363,o),
(271,219,cs),
(256,109,o),
(221,50,o),
(161,50,cs),
(96,50,o),
(77,131,o),
(92,214,c),
(143,181,l),
(-48,155,l),
(3,218,l),
(-21,70,o),
(24,-40,o),
(153,-40,cs),
(277,-40,o),
(352,62,o),
(370,227,cs),
(388,391,o),
(356,492,o),
(245,492,cs),
(191,492,o),
(148,461,o),
(127,423,c),
(157,416,l)
);
},
{
closed = 1;
nodes = (
(179,680,l),
(386,680,l),
(405,768,l),
(192,768,l)
);
}
);
width = 422;
},
{
associatedMasterId = m01;
layerId = "C3EBFF83-166A-4635-8D49-1420B1E1CF3E";
name = "Oct 27, 22, 17:20";
shapes = (
{
closed = 1;
nodes = (
(235,768,l),
(146,768,l),
(70,345,l),
(141,330,l),
(157,379,o),
(186,411,o),
(225,411,cs),
(272,411,o),
(306,363,o),
(283,219,cs),
(265,109,o),
(231,50,o),
(171,50,cs),
(106,50,o),
(87,131,o),
(102,214,c),
(153,181,l),
(-38,155,l),
(13,218,l),
(-11,70,o),
(34,-40,o),
(163,-40,cs),
(287,-40,o),
(360,62,o),
(382,227,cs),
(404,391,o),
(365,492,o),
(258,492,cs),
(202,492,o),
(158,451,o),
(137,403,c),
(164,396,l)
);
},
{
closed = 1;
nodes = (
(179,680,l),
(408,680,l),
(427,768,l),
(192,768,l)
);
}
);
width = 432;
}
);
unicode = 53;
}
{
glyphname = six;
kernLeft = six;
kernRight = six;
layers = (
{
layerId = m01;
shapes = (
{
closed = 1;
nodes = (
(521,628,l),
(468,580,l),
(475,641,o),
(452,778,o),
(317,778,cs),
(172,778,o),
(98,625,o),
(61,369,cs),
(32,167,o),
(19,-40,o),
(204,-40,cs),
(335,-40,o),
(399,86,o),
(421,198,cs),
(448,337,o),
(408,471,o),
(288,471,cs),
(226,471,o),
(175,434,o),
(148,380,c),
(158,344,l),
(187,597,o),
(243,689,o),
(306,689,cs),
(373,689,o),
(379,606,o),
(378,574,c),
(337,594,l)
);
},
{
closed = 1;
nodes = (
(330,391,o),
(344,301,o),
(325,205,cs),
(310,129,o),
(280,50,o),
(208,50,cs),
(146,50,o),
(124,135,o),
(141,239,cs),
(155,322,o),
(187,391,o),
(254,391,cs)
);
}
);
width = 475;
},
{
associatedMasterId = m01;
layerId = "B330CFAC-6984-45D6-B601-0FED3FA6857F";
name = "Oct 18, 22, 15:02";
shapes = (
{
closed = 1;
nodes = (
(511,628,l),
(458,580,l),
(465,641,o),
(442,778,o),
(307,778,cs),
(162,778,o),
(88,625,o),
(51,369,cs),
(22,167,o),
(9,-40,o),
(194,-40,cs),
(325,-40,o),
(390,88,o),
(413,210,cs),
(439,349,o),
(400,483,o),
(280,483,cs),
(218,483,o),
(167,446,o),
(140,392,c),
(150,356,l),
(181,599,o),
(233,689,o),
(296,689,cs),
(363,689,o),
(369,606,o),
(368,574,c),
(327,594,l)
);
},
{
closed = 1;
nodes = (
(322,403,o),
(335,313,o),
(317,217,cs),
(301,131,o),
(270,50,o),
(198,50,cs),
(136,50,o),
(115,137,o),
(133,251,cs),
(146,334,o),
(179,403,o),
(246,403,cs)
);
}
);
width = 465;
}
);
unicode = 54;
}
{
glyphname = seven;
kernLeft = seven;
kernRight = seven;
layers = (
{
layerId = m01;
shapes = (
{
closed = 1;
nodes = (
(74,677,l),
(346,677,l),
(328,702,l),
(215,518,o),
(97,236,o),
(49,-30,c),
(152,-30,l),
(199,240,o),
(298,502,o),
(418,692,c),
(436,768,l),
(97,768,l)
);
}
);
width = 389;
}
);
unicode = 55;
}
{
glyphname = eight;
kernLeft = eight;
kernRight = eight;
layers = (
{
layerId = m01;
shapes = (
{
closed = 1;
nodes = (
(320,-40,o),
(402,46,o),
(419,200,cs),
(431,309,o),
(377,392,o),
(302,418,c),
(309,395,l),
(383,419,o),
(442,488,o),
(451,581,cs),
(463,702,o),
(398,778,o),
(289,778,cs),
(180,778,o),
(105,702,o),
(92,581,cs),
(83,493,o),
(128,424,o),
(196,398,c),
(186,421,l),
(106,393,o),
(43,315,o),
(30,200,cs),
(13,46,o),
(81,-40,o),
(202,-40,cs)
);
},
{
closed = 1;
nodes = (
(140,295,o),
(180,356,o),
(242,356,cs),
(301,356,o),
(329,293,o),
(319,201,cs),
(307,92,o),
(264,45,o),
(209,45,cs),
(153,45,o),
(118,92,o),
(130,201,cs)
);
},
{
closed = 1;
nodes = (
(200,652,o),
(228,694,o),
(283,694,cs),
(329,694,o),
(359,652,o),
(351,576,cs),
(345,508,o),
(313,452,o),
(261,452,cs),
(209,452,o),
(186,508,o),
(192,576,cs)
);
}
);
width = 469;
},
{
associatedMasterId = m01;
layerId = "AF334416-31B2-43BB-9C6B-94885D6987D2";
name = "Oct 14, 22, 16:26";
shapes = (
{
closed = 1;
nodes = (
(337,-40,o),
(421,46,o),
(440,200,cs),
(455,319,o),
(416,398,o),
(343,428,c),
(347,405,l),
(420,429,o),
(471,494,o),
(481,587,cs),
(494,703,o),
(430,778,o),
(323,778,cs),
(216,778,o),
(140,703,o),
(126,587,cs),
(116,499,o),
(149,434,o),
(215,408,c),
(207,431,l),
(126,403,o),
(67,325,o),
(51,200,cs),
(31,46,o),
(98,-40,o),
(219,-40,cs)
);
},
{
closed = 1;
nodes = (
(165,310,o),
(208,364,o),
(269,364,cs),
(329,364,o),
(354,310,o),
(340,203,cs),
(326,94,o),
(281,47,o),
(226,47,cs),
(170,47,o),
(137,94,o),
(151,203,cs)
);
},
{
closed = 1;
nodes = (
(234,651,o),
(263,692,o),
(316,692,cs),
(360,692,o),
(389,651,o),
(381,580,cs),
(373,512,o),
(340,464,o),
(292,464,cs),
(243,464,o),
(218,512,o),
(226,580,cs)
);
}
);
width = 600;
},
{
associatedMasterId = m01;
layerId = "4B975F11-39BC-488D-8D56-53D5496E0B0B";
name = "Oct 17, 22, 12:26";
shapes = (
{
closed = 1;
nodes = (
(313,-40,o),
(397,46,o),
(416,200,cs),
(431,319,o),
(378,402,o),
(304,428,c),
(310,405,l),
(383,429,o),
(444,494,o),
(454,587,cs),
(467,703,o),
(403,778,o),
(296,778,cs),
(189,778,o),
(113,703,o),
(99,587,cs),
(89,499,o),
(132,434,o),
(198,408,c),
(188,431,l),
(107,403,o),
(43,325,o),
(27,200,cs),
(7,46,o),
(74,-40,o),
(195,-40,cs)
);
},
{
closed = 1;
nodes = (
(140,305,o),
(181,366,o),
(243,366,cs),
(302,366,o),
(329,303,o),
(316,201,cs),
(302,92,o),
(258,45,o),
(203,45,cs),
(147,45,o),
(113,92,o),
(127,201,cs)
);
},
{
closed = 1;
nodes = (
(207,653,o),
(236,694,o),
(289,694,cs),
(333,694,o),
(362,653,o),
(354,582,cs),
(346,514,o),
(313,462,o),
(263,462,cs),
(213,462,o),
(191,514,o),
(199,582,cs)
);
}
);
width = 469;
}
);
unicode = 56;
}
{
glyphname = less;
layers = (
{
layerId = m01;
shapes = (
{
closed = 1;
nodes = (
(43,222,l),
(312,39,l),
(324,130,l),
(91,281,l),
(89,243,l),
(362,401,l),
(375,495,l),
(53,312,l)
);
}
);
width = 418;
}
);
unicode = 60;
}
{
glyphname = equal;
layers = (
{
layerId = m01;
shapes = (
{
closed = 1;
nodes = (
(67,305,l),
(440,305,l),
(452,380,l),
(79,380,l)
);
},
{
closed = 1;
nodes = (
(43,127,l),
(416,127,l),
(428,202,l),
(55,202,l)
);
}
);
width = 495;
}
);
unicode = 61;
}
{
glyphname = greater;
layers = (
{
layerId = m01;
shapes = (
{
closed = 1;
nodes = (
(375,312,l),
(106,495,l),
(94,404,l),
(327,253,l),
(329,291,l),
(56,133,l),
(43,39,l),
(365,222,l)
);
}
);
width = 418;
}
);
unicode = 62;
}
{
glyphname = question;
layers = (
{
layerId = m01;
shapes = (
{
closed = 1;
nodes = (
(198,190,l),
(215,372,o),
(377,393,o),
(419,564,cs),
(446,676,o),
(406,785,o),
(271,788,cs),
(137,791,o),
(81,683,o),
(63,545,c),
(35,617,l),
(216,575,l),
(155,528,l),
(175,645,o),
(209,692,o),
(256,692,cs),
(316,692,o),
(329,635,o),
(311,566,cs),
(272,420,o),
(131,433,o),
(118,190,c)
);
},
{
pos = (62,0);
ref = period;
}
);
width = 447;
},
{
associatedMasterId = m01;
layerId = "E154D388-278E-4380-A9C5-46ECA9C0075C";
name = "Oct 14, 22, 18:12";
shapes = (
{
closed = 1;
nodes = (
(180,190,l),
(196,353,o),
(353,412,o),
(393,575,cs),
(419,681,o),
(381,785,o),
(252,788,cs),
(124,791,o),
(71,678,o),
(54,557,c),
(27,625,l),
(200,585,l),
(142,540,l),
(161,652,o),
(191,700,o),
(238,700,cs),
(299,700,o),
(307,642,o),
(290,577,cs),
(253,438,o),
(112,421,o),
(100,190,c)
);
},
{
closed = 1;
nodes = (
(157,-40,o),
(189,-10,o),
(196,41,cs),
(203,91,o),
(178,121,o),
(138,121,cs),
(97,121,o),
(64,91,o),
(57,41,cs),
(50,-10,o),
(76,-40,o),
(117,-40,cs)
);
}
);
width = 384;
},
{
associatedMasterId = m01;
layerId = "9D545FFB-0285-4567-88EA-5E1EBC9585B7";
name = "Oct 14, 22, 18:13";
shapes = (
{
closed = 1;
nodes = (
(180,190,l),
(196,353,o),
(353,412,o),
(393,575,cs),
(419,681,o),
(381,785,o),
(252,788,cs),
(124,791,o),
(71,688,o),
(54,557,c),
(27,625,l),
(200,585,l),
(142,540,l),
(161,652,o),
(193,697,o),
(238,697,cs),
(295,697,o),
(307,642,o),
(290,577,cs),
(253,438,o),
(112,421,o),
(100,190,c)
);
},
{
closed = 1;
nodes = (
(157,-40,o),
(189,-10,o),
(196,41,cs),
(203,91,o),
(178,121,o),
(138,121,cs),
(97,121,o),
(64,91,o),
(57,41,cs),
(50,-10,o),
(76,-40,o),
(117,-40,cs)
);
}
);
width = 384;
}
);
unicode = 63;
}
{
glyphname = at;
layers = (
{
layerId = m01;
shapes = (
{
closed = 1;
nodes = (
(299,-230,o),
(351,-210,o),
(393,-173,c),
(360,-121,l),
(325,-149,o),
(287,-165,o),
(242,-165,cs),
(140,-165,o),
(69,-69,o),
(113,211,cs),
(153,468,o),
(235,564,o),
(350,564,cs),
(468,564,o),
(526,465,o),
(486,203,cs),
(470,97,o),
(446,25,o),
(421,25,cs),
(404,25,o),
(396,41,o),
(404,92,cs),
(456,422,l),
(380,422,l),
(324,68,ls),
(317,23,o),
(329,-40,o),
(396,-40,cs),
(487,-40,o),
(532,62,o),
(552,210,cs),
(591,496,o),
(522,627,o),
(354,627,cs),
(193,627,o),
(86,498,o),
(43,204,cs),
(-1,-99,o),
(82,-230,o),
(236,-230,cs)
);
},
{
closed = 1;
nodes = (
(295,-41,o),
(346,34,o),
(362,120,c),
(333,127,l),
(322,77,o),
(295,31,o),
(262,31,cs),
(217,31,o),
(216,101,o),
(232,197,cs),
(247,287,o),
(274,357,o),
(315,357,cs),
(345,357,o),
(362,321,o),
(356,265,c),
(385,275,l),
(396,373,o),
(368,429,o),
(307,429,cs),
(238,429,o),
(178,350,o),
(155,205,cs),
(126,24,o),
(175,-41,o),
(230,-41,cs)
);
}
);
width = 612;
},
{
associatedMasterId = m01;
layerId = "C631B083-13DA-447F-B66B-0F57ABDED323";
name = "Nov 2, 22, 12:16";
shapes = (
{
closed = 1;
nodes = (
(317,77,o),
(291,36,o),
(262,36,cs),
(224,36,o),
(225,101,o),
(239,197,cs),
(252,287,o),
(281,352,o),
(315,352,cs),
(342,352,o),
(359,321,o),
(351,265,c),
(380,275,l),
(391,373,o),
(368,429,o),
(307,429,cs),
(234,429,o),
(172,350,o),
(151,205,cs),
(123,24,o),
(171,-41,o),
(230,-41,cs),
(290,-41,o),
(341,34,o),
(357,120,c),
(328,127,l)
);
},
{
closed = 1;
nodes = (
(523,62,o),
(543,210,cs),
(582,496,o),
(519,618,o),
(354,618,cs),
(193,618,o),
(95,494,o),
(53,204,cs),
(9,-99,o),
(82,-230,o),
(236,-230,cs),
(299,-230,o),
(351,-210,o),
(393,-173,c),
(365,-138,l),
(330,-170,o),
(289,-185,o),
(242,-185,cs),
(123,-185,o),
(59,-69,o),
(103,211,cs),
(143,468,o),
(228,573,o),
(350,573,cs),
(479,573,o),
(533,465,o),
(493,203,cs),
(477,97,o),
(454,19,o),
(419,19,cs),
(402,19,o),
(400,31,o),
(405,62,cs),
(462,422,l),
(375,422,l),
(314,38,ls),
(308,3,o),
(321,-40,o),
(388,-40,cs),
(482,-40,o)
);
}
);
width = 612;
},
{
associatedMasterId = m01;
layerId = "5AAED50B-0058-441A-B7EB-89D63B2B8D55";
name = "Nov 3, 22, 13:13";
shapes = (
{
closed = 1;
nodes = (
(322,77,o),
(295,31,o),
(262,31,cs),
(219,31,o),
(218,101,o),
(234,197,cs),
(249,287,o),
(276,357,o),
(315,357,cs),
(345,357,o),
(362,321,o),
(356,265,c),
(385,275,l),
(396,373,o),
(368,429,o),
(307,429,cs),
(234,429,o),
(174,350,o),
(151,205,cs),
(122,24,o),
(171,-41,o),
(230,-41,cs),
(295,-41,o),
(346,34,o),
(362,120,c),
(333,127,l)
);
},
{
closed = 1;
nodes = (
(523,62,o),
(543,210,cs),
(582,496,o),
(519,618,o),
(354,618,cs),
(193,618,o),
(95,494,o),
(53,204,cs),
(9,-99,o),
(82,-230,o),
(236,-230,cs),
(299,-230,o),
(351,-210,o),
(393,-173,c),
(365,-138,l),
(330,-170,o),
(289,-185,o),
(242,-185,cs),
(123,-185,o),
(59,-69,o),
(103,211,cs),
(143,468,o),
(228,573,o),
(350,573,cs),
(479,573,o),
(533,465,o),
(493,203,cs),
(477,97,o),
(452,19,o),
(419,19,cs),
(402,19,o),
(402,41,o),
(410,92,cs),
(462,422,l),
(380,422,l),
(324,68,ls),
(317,23,o),
(323,-40,o),
(390,-40,cs),
(481,-40,o)
);
}
);
width = 612;
}
);
unicode = 64;
}
{
glyphname = A;
kernLeft = A;
kernRight = A;
layers = (
{
anchors = (
{
name = bottom;
pos = (208,-30);
},
{
name = ogonek;
pos = (401,-30);
},
{
name = top;
pos = (317,778);
}
);
layerId = m01;
shapes = (
{
closed = 1;
nodes = (
(96,229,l),
(384,229,l),
(397,324,l),
(108,324,l)
);
},
{
closed = 1;
nodes = (
(282,605,o),
(293,501,o),
(299,440,cs),
(347,-30,l),
(452,-30,l),
(362,778,l),
(256,778,l),
(-45,-30,l),
(62,-30,l),
(228,450,ls),
(246,502,o),
(282,604,o),
(291,654,c),
(287,653,l)
);
}
);
width = 497;
},
{
associatedMasterId = m01;
layerId = "E07747F8-52D7-4832-B72E-DDE2188E688B";
name = "Oct 12, 22, 17:40";
shapes = (
{
closed = 1;
nodes = (
(96,229,l),
(384,229,l),
(397,324,l),
(108,324,l)
);
},
{
closed = 1;
nodes = (
(284,674,l),
(347,-30,l),
(452,-30,l),
(362,778,l),
(256,778,l),
(-45,-30,l),
(62,-30,l),
(298,674,l)
);
}
);
width = 497;
}
);
unicode = 65;
}
{
glyphname = B;
kernLeft = H;
kernRight = B;
layers = (
{
layerId = m01;
shapes = (
{
closed = 1;
nodes = (
(209,380,l),
(365,392,o),
(444,454,o),
(459,569,cs),
(475,690,o),
(395,778,o),
(257,778,cs),
(162,778,l),
(149,688,l),
(246,688,ls),
(325,688,o),
(363,644,o),
(353,567,cs),
(343,498,o),
(296,450,o),
(220,450,cs),
(155,450,l),
(143,355,l),
(186,355,ls),
(305,355,o),
(355,291,o),
(343,200,cs),
(330,110,o),
(259,64,o),
(168,64,cs),
(61,64,l),
(48,-30,l),
(156,-30,ls),
(329,-30,o),
(433,59,o),
(450,202,cs),
(462,305,o),
(414,422,o),
(198,422,c)
);
},
{
closed = 1;
nodes = (
(224,778,l),
(124,778,l),
(11,-30,l),
(111,-30,l)
);
}
);
width = 482;
}
);
metricLeft = H;
unicode = 66;
}
{
glyphname = C;
kernLeft = O;
kernRight = C;
layers = (
{
anchors = (
{
name = bottom;
pos = (215,-30);
},
{
name = top;
pos = (342,778);
}
);
layerId = m01;
shapes = (
{
closed = 1;
nodes = (
(350,171,l),
(321,95,o),
(285,55,o),
(234,55,cs),
(141,55,o),
(122,156,o),
(155,372,cs),
(188,591,o),
(224,688,o),
(320,688,cs),
(363,688,o),
(388,654,o),
(398,598,c),
(501,620,l),
(481,717,o),
(431,788,o),
(331,788,cs),
(178,788,o),
(86,658,o),
(47,372,cs),
(9,91,o),
(61,-40,o),
(215,-40,cs),
(329,-40,o),
(403,22,o),
(446,156,c)
);
}
);
width = 472;
},
{
associatedMasterId = m01;
layerId = "CD715A04-D0A4-40AE-9902-95F9BAB508EE";
name = "Oct 12, 22, 16:23";
shapes = (
{
closed = 1;
nodes = (
(326,196,l),
(380,232,l),
(351,126,o),
(305,62,o),
(237,62,cs),
(137,62,o),
(118,184,o),
(144,373,cs),
(170,560,o),
(224,688,o),
(315,688,cs),
(378,688,o),
(411,629,o),
(417,536,c),
(369,575,l),
(553,646,l),
(517,589,l),
(501,709,o),
(445,784,o),
(327,784,cs),
(147,784,o),
(74,613,o),
(43,375,cs),
(13,135,o),
(50,-36,o),
(226,-36,cs),
(347,-36,o),
(423,45,o),
(468,175,c),
(496,138,l)
);
}
);
width = 507;
},
{
associatedMasterId = m01;
layerId = "372BED4A-BE3B-463C-A17D-AFC07CE3B34E";
name = "Oct 12, 22, 16:27";
shapes = (
{
closed = 1;
nodes = (
(376,185,l),
(354,100,o),
(300,55,o),
(237,55,cs),
(147,55,o),
(117,156,o),
(150,372,cs),
(183,591,o),
(233,693,o),
(325,693,cs),
(394,693,o),
(423,627,o),
(419,514,c),
(374,554,l),
(560,591,l),
(513,527,l),
(527,698,o),
(452,788,o),
(333,788,cs),
(183,788,o),
(81,658,o),
(42,372,cs),
(4,91,o),
(63,-40,o),
(227,-40,cs),
(350,-40,o),
(433,32,o),
(475,184,c)
);
}
);
width = 507;
},
{
associatedMasterId = m01;
layerId = "A3FA9942-8575-4D90-B9F5-DCE488CB9051";
name = "Oct 13, 22, 11:45";
shapes = (
{
closed = 1;
nodes = (
(384,218,l),
(363,107,o),
(308,55,o),
(249,55,cs),
(156,55,o),
(127,156,o),
(160,372,cs),
(193,591,o),
(242,696,o),
(340,696,cs),
(389,696,o),
(420,676,o),
(420,627,cs),
(420,614,o),
(417,579,o),
(415,563,c),
(509,563,l),
(512,582,o),
(515,619,o),
(516,635,cs),
(523,747,o),
(439,788,o),
(346,788,cs),
(193,788,o),
(91,658,o),
(52,372,cs),
(14,91,o),
(76,-40,o),
(230,-40,cs),
(353,-40,o),
(448,35,o),
(480,218,c)
);
}
);
width = 517;
}
);
metricLeft = O;
unicode = 67;
}
{
glyphname = D;
kernLeft = H;
kernRight = O;
layers = (
{
anchors = (
{
name = top;
pos = (310,778);
}
);
layerId = m01;
shapes = (
{
closed = 1;
nodes = (
(227,778,l),
(124,778,l),
(10,-30,l),
(113,-30,l)
);
},
{
closed = 1;
nodes = (
(365,-30,o),
(459,123,o),
(489,365,cs),
(522,617,o),
(472,778,o),
(267,778,cs),
(172,778,l),
(159,686,l),
(256,686,ls),
(372,686,o),
(413,585,o),
(381,362,cs),
(354,169,o),
(292,62,o),
(178,62,cs),
(71,62,l),
(58,-30,l),
(166,-30,ls)
);
}
);
width = 514;
}
);
metricLeft = H;
metricRight = O;
unicode = 68;
}
{
glyphname = E;
kernLeft = H;
kernRight = E;
layers = (
{
anchors = (
{
name = bottom;
pos = (183,-30);
},
{
name = ogonek;
pos = (327,-30);
},
{
name = top;
pos = (321,778);
}
);
layerId = m01;
shapes = (
{
closed = 1;
nodes = (
(227,778,l),
(124,778,l),
(11,-30,l),
(114,-30,l)
);
},
{
closed = 1;
nodes = (
(149,682,l),
(467,682,l),
(479,778,l),
(162,778,l)
);
},
{
closed = 1;
nodes = (
(91,343,l),
(384,343,l),
(396,439,l),
(103,439,l)
);
},
{
closed = 1;
nodes = (
(49,-30,l),
(377,-30,l),
(389,66,l),
(61,66,l)
);
}
);
width = 429;
}
);
metricLeft = H;
unicode = 69;
}
{
glyphname = F;
kernLeft = H;
kernRight = F;
layers = (
{
layerId = m01;
shapes = (
{
closed = 1;
nodes = (
(227,778,l),
(124,778,l),
(11,-30,l),
(114,-30,l)
);
},
{
closed = 1;
nodes = (
(149,682,l),
(469,682,l),
(484,778,l),
(162,778,l)
);
},
{
closed = 1;
nodes = (
(91,337,l),
(381,337,l),
(396,433,l),
(103,433,l)
);
}
);
width = 424;
}
);
metricLeft = H;
unicode = 70;
}
{
glyphname = G;
kernLeft = O;
kernRight = G;
layers = (
{
anchors = (
{
name = bottom;
pos = (254,-30);
},
{
name = top;
pos = (334,778);
}
);
layerId = m01;
shapes = (
{
closed = 1;
nodes = (
(270,307,l),
(385,307,l),
(360,118,l),
(373,113,l),
(352,-30,l),
(435,-30,l),
(495,403,l),
(282,403,l)
);
},
{
closed = 1;
nodes = (
(188,591,o),
(224,688,o),
(320,688,cs),
(363,688,o),
(388,654,o),
(398,598,c),
(501,620,l),
(484,707,o),
(436,788,o),
(331,788,cs),
(178,788,o),
(86,658,o),
(47,372,cs),
(9,91,o),
(67,-40,o),
(198,-40,cs),
(321,-40,o),
(415,100,o),
(430,283,c),
(379,258,l),
(367,147,o),
(305,55,o),
(234,55,cs),
(141,55,o),
(122,156,o),
(155,372,cs)
);
}
);
width = 519;
},
{
associatedMasterId = m01;
layerId = "75C4EFB0-909D-47E3-B7D4-4DDFE4B9E080";
name = "Oct 12, 22, 17:00";
shapes = (
{
closed = 1;
nodes = (
(404,339,l),
(375,130,o),
(303,62,o),
(229,62,cs),
(154,62,o),
(126,184,o),
(152,373,cs),
(179,560,o),
(242,688,o),
(345,688,cs),
(408,688,o),
(440,631,o),
(446,535,c),
(382,575,l),
(567,646,l),
(546,589,l),
(530,709,o),
(464,784,o),
(356,784,cs),
(163,784,o),
(82,613,o),
(52,375,cs),
(18,114,o),
(70,-36,o),
(202,-36,cs),
(303,-36,o),
(407,24,o),
(440,308,c)
);
},
{
closed = 1;
nodes = (
(286,339,l),
(404,339,l),
(353,-30,l),
(446,-30,l),
(511,432,l),
(298,432,l)
);
}
);
width = 534;
},
{
associatedMasterId = m01;
layerId = "CC3BAED4-4B2B-4E81-9313-92889349D63E";
name = "Oct 12, 22, 17:09";
shapes = (
{
closed = 1;
nodes = (
(285,307,l),
(297,402,l),
(509,402,l),
(476,198,ls),
(450,38,o),
(353,-40,o),
(230,-40,cs),
(76,-40,o),
(14,91,o),
(52,372,cs),
(91,658,o),
(193,788,o),
(346,788,cs),
(439,788,o),
(523,747,o),
(516,635,cs),
(515,619,o),
(512,582,o),
(509,563,c),
(415,563,l),
(417,579,o),
(420,614,o),
(420,627,cs),
(420,676,o),
(389,696,o),
(340,696,cs),
(242,696,o),
(193,591,o),
(160,372,cs),
(127,156,o),
(156,55,o),
(249,55,cs),
(308,55,o),
(364,110,o),
(380,198,cs),
(404,334,l),
(446,307,l)
);
}
);
width = 534;
},
{
associatedMasterId = m01;
layerId = "CFB82EF9-B718-4C9E-820C-2FE99D30D5D7";
name = "Oct 13, 22, 11:59";
shapes = (
{
closed = 1;
nodes = (
(391,258,l),
(379,147,o),
(320,55,o),
(249,55,cs),
(156,55,o),
(127,156,o),
(160,372,cs),
(193,591,o),
(242,696,o),
(340,696,cs),
(389,696,o),
(420,676,o),
(420,627,cs),
(420,614,o),
(417,579,o),
(415,563,c),
(509,563,l),
(512,582,o),
(515,619,o),
(516,635,cs),
(523,747,o),
(439,788,o),
(346,788,cs),
(193,788,o),
(91,658,o),
(52,372,cs),
(14,91,o),
(82,-40,o),
(213,-40,cs),
(336,-40,o),
(430,100,o),
(445,283,c)
);
},
{
closed = 1;
nodes = (
(285,307,l),
(397,307,l),
(380,83,l),
(364,-30,l),
(450,-30,l),
(510,403,l),
(297,403,l)
);
}
);
width = 534;
}
);
metricLeft = O;
unicode = 71;
}
{
glyphname = H;
kernLeft = H;
kernRight = H;
layers = (
{
anchors = (
{
name = BSB;
pos = (400,-100);
},
{
name = TSB;
pos = (400,900);
},
{
name = bottom;
pos = (216,0);
},
{
name = center;
pos = (271,389);
},
{
name = top;
pos = (334,778);
},
{
name = topleft;
pos = (89,778);
}
);
layerId = m01;
shapes = (
{
closed = 1;
nodes = (
(224,778,l),
(124,778,l),
(11,-30,l),
(111,-30,l)
);
},
{
closed = 1;
nodes = (
(526,778,l),
(426,778,l),
(313,-30,l),
(413,-30,l)
);
},
{
closed = 1;
nodes = (
(96,347,l),
(444,347,l),
(457,442,l),
(108,442,l)
);
}
);
width = 513;
}
);
unicode = 72;
}
{
glyphname = I;
kernLeft = H;
kernRight = H;
layers = (
{
anchors = (
{
name = bottom;
pos = (61,-30);
},
{
name = ogonek;
pos = (61,-30);
},
{
name = top;
pos = (183,778);
},
{
name = topleft;
pos = (119,778);
}
);
layerId = m01;
shapes = (
{
closed = 1;
nodes = (
(224,778,l),
(124,778,l),
(11,-30,l),
(111,-30,l)
);
}
);
width = 211;
},
{
associatedMasterId = m01;
layerId = "6EEE94B4-10EA-4289-BB04-E9C578A6CF20";
name = "Oct 12, 22, 17:25";
shapes = (
{
closed = 1;
nodes = (
(214,778,l),
(114,778,l),
(1,-30,l),
(101,-30,l)
);
}
);
width = 191;
}
);
metricLeft = H;
metricRight = H;
unicode = 73;
}
{
glyphname = J;
kernLeft = J;
kernRight = J;
layers = (
{
anchors = (
{
name = top;
pos = (182,778);
}
);
layerId = m01;
shapes = (
{
closed = 1;
nodes = (
(5,-116,o),
(-17,-153,o),
(-100,-142,c),
(-119,-239,l),
(32,-259,o),
(93,-197,o),
(119,-12,cs),
(230,778,l),
(130,778,l),
(23,12,ls)
);
}
);
width = 216;
},
{
associatedMasterId = m01;
layerId = "571C666A-8D9E-41BA-8C58-DAED782222B0";
name = "Oct 12, 22, 17:34";
shapes = (
{
closed = 1;
nodes = (
(271,778,l),
(180,127,ls),
(174,82,o),
(160,56,o),
(129,56,cs),
(100,56,o),
(80,78,o),
(57,139,c),
(-28,94,l),
(2,8,o),
(40,-40,o),
(127,-40,cs),
(204,-40,o),
(263,10,o),
(279,124,cs),
(371,778,l)
);
}
);
width = 352;
},
{
anchors = (
{
name = top;
pos = (335,778);
}
);
associatedMasterId = m01;
layerId = "1ED90B36-B3CF-4DC8-BF79-65D94141BA23";
name = "Oct 25, 22, 15:24";
shapes = (
{
closed = 1;
nodes = (
(271,778,l),
(182,137,ls),
(175,86,o),
(156,56,o),
(125,56,cs),
(96,56,o),
(69,73,o),
(57,143,c),
(-38,120,l),
(-20,8,o),
(36,-40,o),
(123,-40,cs),
(200,-40,o),
(263,10,o),
(279,124,cs),
(371,778,l)
);
}
);
width = 352;
}
);
unicode = 74;
}
{
glyphname = K;
kernLeft = H;
kernRight = K;
layers = (
{
associatedMasterId = m01;
layerId = "5E329C8C-9EA3-4BD1-94E4-74DEBAD1EBBA";
name = "Oct 12, 22, 18:00";
shapes = (
{
closed = 1;
nodes = (
(214,778,l),
(114,778,l),
(1,-30,l),
(101,-30,l)
);
},
{
closed = 1;
nodes = (
(175,397,l),
(298,-30,l),
(405,-30,l),
(265,432,l)
);
},
{
closed = 1;
nodes = (
(107,355,l),
(131,352,o),
(152,350,o),
(172,350,cs),
(371,350,o),
(401,492,o),
(446,778,c),
(349,778,l),
(313,531,o),
(292,438,o),
(168,438,cs),
(152,438,o),
(135,439,o),
(119,441,c)
);
}
);
width = 455;
},
{
associatedMasterId = m01;
layerId = "C62E51B9-E1BF-4931-815D-3B125569A3D3";
name = "Oct 13, 22, 12:05";
shapes = (
{
closed = 1;
nodes = (
(214,778,l),
(114,778,l),
(1,-30,l),
(101,-30,l)
);
},
{
closed = 1;
nodes = (
(181,383,l),
(297,-30,l),
(404,-30,l),
(274,418,l)
);
},
{
closed = 1;
nodes = (
(109,349,l),
(164,343,o),
(201,344,o),
(254,351,cs),
(387,368,o),
(432,612,o),
(450,778,c),
(353,778,l),
(346,692,o),
(316,469,o),
(229,443,cs),
(201,434,o),
(159,434,o),
(121,439,c)
);
}
);
width = 453;
},
{
anchors = (
{
name = bottom;
pos = (199,-30);
},
{
name = top;
pos = (299,778);
}
);
layerId = m01;
name = Regular;
shapes = (
{
closed = 1;
nodes = (
(228,401,l),
(254,388,l),
(517,778,l),
(405,778,l),
(103,325,l),
(125,248,l)
);
},
{
closed = 1;
nodes = (
(224,778,l),
(124,778,l),
(11,-30,l),
(111,-30,l)
);
},
{
closed = 1;
nodes = (
(185,397,l),
(308,-30,l),
(415,-30,l),
(275,432,l)
);
}
);
width = 460;
}
);
metricLeft = H;
unicode = 75;
}
{
glyphname = L;
kernLeft = H;
kernRight = L;
layers = (
{
anchors = (
{
name = bottom;
pos = (178,-30);
},
{
name = top;
pos = (193,778);
},
{
name = topright;
pos = (317,778);
}
);
layerId = m01;
shapes = (
{
closed = 1;
nodes = (
(224,778,l),
(124,778,l),
(11,-30,l),
(111,-30,l)
);
},
{
closed = 1;
nodes = (
(46,-30,l),
(346,-30,l),
(359,65,l),
(58,65,l)
);
}
);
width = 408;
},
{
associatedMasterId = m01;
layerId = "A0267C48-6720-4960-8E02-C63603C8C38C";
name = "Oct 12, 22, 16:01";
shapes = (
{
closed = 1;
nodes = (
(237,778,l),
(134,778,l),
(21,-30,l),
(124,-30,l)
);
},
{
closed = 1;
nodes = (
(59,-30,l),
(355,-30,l),
(367,62,l),
(71,62,l)
);
}
);
width = 420;
}
);
metricLeft = H;
unicode = 76;
}
{
glyphname = M;
kernLeft = H;
kernRight = H;
layers = (
{
layerId = m01;
shapes = (
{
closed = 1;
nodes = (
(574,652,l),
(566,620,o),
(553,540,o),
(548,509,cs),
(455,-30,l),
(555,-30,l),
(671,778,l),
(551,778,l),
(306,228,l),
(333,228,l),
(251,778,l),
(137,778,l),
(10,-30,l),
(110,-30,l),
(177,510,ls),
(183,556,o),
(189,622,o),
(190,648,c),
(186,648,l),
(189,619,o),
(204,540,o),
(209,510,cs),
(269,139,l),
(342,139,l),
(515,509,ls),
(529,539,o),
(569,621,o),
(580,649,c)
);
}
);
width = 657;
},
{
associatedMasterId = m01;
layerId = "EF1106E7-34BA-4FD8-A044-DFA2BBF75BC4";
name = "Oct 12, 22, 17:43";
shapes = (
{
closed = 1;
nodes = (
(197,778,l),
(113,778,l),
(0,-30,l),
(100,-30,l)
);
},
{
closed = 1;
nodes = (
(327,217,l),
(227,778,l),
(138,778,l),
(259,139,l),
(332,139,l),
(637,778,l),
(535,778,l),
(281,217,l)
);
},
{
closed = 1;
nodes = (
(658,778,l),
(576,778,l),
(445,-30,l),
(545,-30,l)
);
}
);
width = 635;
},
{
associatedMasterId = m01;
layerId = "DE80DE39-60DA-4667-BBB4-5DCC6B42E76F";
name = "Oct 14, 22, 15:10";
shapes = (
{
closed = 1;
nodes = (
(556,625,l),
(548,593,o),
(535,513,o),
(530,482,cs),
(446,-30,l),
(546,-30,l),
(659,778,l),
(536,778,l),
(296,249,l),
(323,246,l),
(228,778,l),
(114,778,l),
(1,-30,l),
(101,-30,l),
(163,482,ls),
(169,528,o),
(175,594,o),
(176,620,c),
(172,620,l),
(175,591,o),
(189,512,o),
(195,482,cs),
(260,139,l),
(333,139,l),
(497,482,ls),
(511,512,o),
(551,594,o),
(562,622,c)
);
}
);
width = 636;
},
{
associatedMasterId = m01;
layerId = "8A3ABF3A-C26F-4495-9727-356FA0E99A8A";
name = "Oct 27, 22, 16:50";
shapes = (
{
closed = 1;
nodes = (
(565,625,l),
(557,593,o),
(544,513,o),
(539,482,cs),
(455,-30,l),
(555,-30,l),
(668,778,l),
(545,778,l),
(305,249,l),
(332,246,l),
(244,778,l),
(130,778,l),
(10,-30,l),
(110,-30,l),
(179,482,ls),
(185,528,o),
(191,594,o),
(192,620,c),
(188,620,l),
(191,591,o),
(206,512,o),
(211,482,cs),
(269,139,l),
(342,139,l),
(506,482,ls),
(520,512,o),
(560,594,o),
(571,622,c)
);
}
);
width = 655;
}
);
metricLeft = H;
metricRight = H;
unicode = 77;
}
{
glyphname = N;
kernLeft = H;
kernRight = H;
layers = (
{
anchors = (
{
name = bottom;
pos = (237,-30);
},
{
name = top;
pos = (368,778);
}
);
layerId = m01;
shapes = (
{
closed = 1;
nodes = (
(175,520,ls),
(180,559,o),
(189,629,o),
(191,684,c),
(184,681,l),
(190,633,o),
(204,561,o),
(213,520,cs),
(337,-30,l),
(455,-30,l),
(568,778,l),
(470,778,l),
(399,171,ls),
(394,129,o),
(390,75,o),
(389,37,c),
(407,38,l),
(400,77,o),
(389,129,o),
(380,170,cs),
(244,778,l),
(124,778,l),
(11,-30,l),
(109,-30,l)
);
}
);
width = 555;
},
{
anchors = (
{
name = top;
pos = (367,778);
}
);
associatedMasterId = m01;
layerId = "543210C7-3EEC-46BB-8B2B-EECE30191BF0";
name = "Oct 14, 22, 15:10";
shapes = (
{
closed = 1;
nodes = (
(166,490,ls),
(171,529,o),
(180,599,o),
(182,654,c),
(175,651,l),
(181,603,o),
(194,531,o),
(204,490,cs),
(327,-30,l),
(445,-30,l),
(558,778,l),
(460,778,l),
(388,201,ls),
(383,159,o),
(379,105,o),
(378,67,c),
(396,68,l),
(389,107,o),
(379,159,o),
(369,200,cs),
(234,778,l),
(114,778,l),
(1,-30,l),
(99,-30,l)
);
}
);
width = 535;
},
{
anchors = (
{
name = bottom;
pos = (237,-30);
},
{
name = top;
pos = (368,778);
}
);
associatedMasterId = m01;
layerId = "860FD66E-CABE-4F03-A388-D49001A49609";
name = "Oct 27, 22, 16:50";
shapes = (
{
closed = 1;
nodes = (
(176,490,ls),
(181,529,o),
(190,599,o),
(192,654,c),
(185,651,l),
(191,603,o),
(204,531,o),
(214,490,cs),
(337,-30,l),
(455,-30,l),
(568,778,l),
(470,778,l),
(398,201,ls),
(393,159,o),
(389,105,o),
(388,67,c),
(406,68,l),
(399,107,o),
(389,159,o),
(379,200,cs),
(244,778,l),
(124,778,l),
(11,-30,l),
(109,-30,l)
);
}
);
width = 555;
}
);
metricLeft = H;
metricRight = H;
unicode = 78;
}
{
glyphname = O;
kernLeft = O;
kernRight = O;
layers = (
{
anchors = (
{
name = bottom;
pos = (222,-30);
},
{
name = top;
pos = (341,778);
},
{
name = topleft;
pos = (157,778);
},
{
name = topright;
pos = (446,748);
}
);
layerId = m01;
shapes = (
{
closed = 1;
nodes = (
(374,-40,o),
(466,91,o),
(503,372,cs),
(541,658,o),
(495,788,o),
(328,788,cs),
(178,788,o),
(86,658,o),
(47,372,cs),
(9,91,o),
(58,-40,o),
(222,-40,cs)
);
},
{
closed = 1;
nodes = (
(142,55,o),
(122,156,o),
(155,372,cs),
(188,591,o),
(228,693,o),
(320,693,cs),
(410,693,o),
(428,591,o),
(395,372,cs),
(362,156,o),
(324,55,o),
(232,55,cs)
);
}
);
width = 527;
},
{
associatedMasterId = m01;
layerId = "D6B97771-A817-4276-9ED2-596144416678";
name = "Oct 12, 22, 15:21";
shapes = (
{
closed = 1;
nodes = (
(401,-35,o),
(482,135,o),
(511,375,cs),
(542,613,o),
(506,783,o),
(326,783,cs),
(147,783,o),
(73,613,o),
(43,375,cs),
(12,135,o),
(50,-35,o),
(226,-35,cs)
);
},
{
closed = 1;
nodes = (
(136,63,o),
(117,184,o),
(144,373,cs),
(170,560,o),
(223,687,o),
(315,687,cs),
(408,687,o),
(434,560,o),
(408,373,cs),
(382,184,o),
(329,63,o),
(237,63,cs)
);
}
);
width = 527;
},
{
associatedMasterId = m01;
layerId = "2D4CCC3B-EBC0-4901-8F91-558C1D718D57";
name = "Oct 12, 22, 15:51";
shapes = (
{
closed = 1;
nodes = (
(471,-40,o),
(523,330,o),
(523,507,cs),
(523,692,o),
(467,788,o),
(328,788,cs),
(85,788,o),
(32,423,o),
(32,243,cs),
(32,56,o),
(87,-40,o),
(226,-40,cs)
);
},
{
closed = 1;
nodes = (
(168,56,o),
(136,119,o),
(136,246,cs),
(136,364,o),
(171,692,o),
(323,692,cs),
(389,692,o),
(419,630,o),
(419,506,cs),
(419,392,o),
(383,56,o),
(235,56,cs)
);
}
);
width = 527;
}
);
unicode = 79;
}
{
glyphname = P;
kernLeft = H;
kernRight = P;
layers = (
{
layerId = m01;
shapes = (
{
closed = 1;
nodes = (
(277,684,ls),
(364,684,o),
(406,638,o),
(395,554,cs),
(383,463,o),
(331,413,o),
(220,413,cs),
(98,413,l),
(98,318,l),
(220,318,ls),
(372,318,o),
(484,401,o),
(502,541,cs),
(522,693,o),
(443,778,o),
(281,778,cs),
(153,778,l),
(153,684,l)
);
},
{
closed = 1;
nodes = (
(224,778,l),
(124,778,l),
(11,-30,l),
(111,-30,l)
);
}
);
width = 487;
}
);
metricLeft = H;
unicode = 80;
}
{
glyphname = Q;
kernLeft = O;
kernRight = Q;
layers = (
{
associatedMasterId = m01;
layerId = "E14236FA-FB29-4A82-928E-8DE48326F8C1";
name = "Oct 12, 22, 17:52";
shapes = (
{
ref = O;
},
{
closed = 1;
nodes = (
(310,39,l),
(390,-112,l),
(473,-53,l),
(388,96,l)
);
}
);
width = 527;
},
{
associatedMasterId = m01;
layerId = "8DC8A9B4-1CA7-4D6F-B7E9-E6D9393F89EE";
name = "Oct 12, 22, 17:58";
shapes = (
{
ref = O;
},
{
closed = 1;
nodes = (
(201,-167,o),
(244,-254,o),
(334,-254,cs),
(386,-254,o),
(429,-230,o),
(462,-157,c),
(404,-129,l),
(392,-159,o),
(375,-177,o),
(352,-177,cs),
(310,-177,o),
(301,-93,o),
(329,12,c),
(236,13,l)
);
}
);
width = 527;
},
{
associatedMasterId = m01;
layerId = "6EBE1C56-A3F8-4CE3-951E-12ADC410F848";
name = "Oct 12, 22, 17:59";
shapes = (
{
ref = O;
},
{
closed = 1;
nodes = (
(153,-157,o),
(169,-243,o),
(336,-243,c),
(354,-168,l),
(258,-162,o),
(242,-128,o),
(279,12,c),
(186,13,l)
);
}
);
width = 527;
},
{
layerId = m01;
name = Regular;
shapes = (
{
ref = O;
},
{
closed = 1;
nodes = (
(203,-157,o),
(219,-240,o),
(386,-240,c),
(409,-142,l),
(317,-147,o),
(294,-113,o),
(332,28,c),
(236,13,l)
);
}
);
width = 547;
}
);
metricLeft = O;
unicode = 81;
}
{
glyphname = R;
kernLeft = H;
kernRight = R;
layers = (
{
anchors = (
{
name = bottom;
pos = (214,-30);
},
{
name = top;
pos = (313,778);
}
);
layerId = m01;
shapes = (
{
closed = 1;
nodes = (
(265,684,ls),
(352,684,o),
(394,637,o),
(384,563,cs),
(373,482,o),
(320,432,o),
(209,432,cs),
(121,432,l),
(121,337,l),
(209,337,ls),
(361,337,o),
(474,420,o),
(491,550,cs),
(510,692,o),
(431,778,o),
(269,778,cs),
(181,778,l),
(181,684,l)
);
},
{
closed = 1;
nodes = (
(224,778,l),
(124,778,l),
(11,-30,l),
(111,-30,l)
);
},
{
closed = 1;
nodes = (
(201,397,l),
(324,-30,l),
(431,-30,l),
(291,432,l)
);
}
);
width = 487;
},
{
associatedMasterId = m01;
layerId = "917FD164-4C65-45A3-9E21-C3BF0C0EAF8F";
name = "Oct 13, 22, 12:23";
shapes = (
{
closed = 1;
nodes = (
(212,778,l),
(114,778,l),
(0,-30,l),
(99,-30,l)
);
},
{
closed = 1;
nodes = (
(271,684,ls),
(366,684,o),
(403,640,o),
(390,551,cs),
(377,470,o),
(320,433,o),
(217,433,cs),
(99,433,l),
(89,338,l),
(217,338,ls),
(371,338,o),
(466,411,o),
(485,551,cs),
(506,705,o),
(416,778,o),
(271,778,cs),
(154,778,l),
(143,684,l)
);
},
{
closed = 1;
nodes = (
(226,376,l),
(313,-30,l),
(426,-30,l),
(315,401,l)
);
}
);
width = 477;
}
);
metricLeft = H;
unicode = 82;
}
{
glyphname = S;
kernLeft = S;
kernRight = S;
layers = (
{
associatedMasterId = m01;
layerId = "2747C3B3-8390-4F7D-AFBB-51A3810FF0E9";
name = "Oct 13, 22, 12:45";
shapes = (
{
closed = 1;
nodes = (
(441,349,o),
(168,477,o),
(187,605,cs),
(195,660,o),
(232,688,o),
(288,688,cs),
(342,688,o),
(387,646,o),
(395,551,c),
(342,569,l),
(520,622,l),
(486,569,l),
(469,709,o),
(396,784,o),
(300,784,cs),
(188,784,o),
(108,718,o),
(94,614,cs),
(65,416,o),
(334,312,o),
(311,150,cs),
(303,94,o),
(264,62,o),
(210,62,cs),
(146,62,o),
(116,109,o),
(91,214,c),
(144,190,l),
(-24,127,l),
(8,171,l),
(35,29,o),
(106,-36,o),
(199,-36,cs),
(325,-36,o),
(397,33,o),
(413,144,cs)
);
}
);
width = 472;
},
{
associatedMasterId = m01;
layerId = "27E45EDB-A2BC-492A-90AD-90A570B9FDAC";
name = "Oct 13, 22, 12:57";
shapes = (
{
closed = 1;
nodes = (
(-39,176,l),
(2,220,l),
(-8,113,o),
(30,-40,o),
(202,-40,cs),
(344,-40,o),
(419,62,o),
(419,185,cs),
(419,376,o),
(200,472,o),
(200,599,cs),
(200,648,o),
(231,694,o),
(292,694,cs),
(374,694,o),
(394,602,o),
(383,549,c),
(345,585,l),
(521,605,l),
(472,552,l),
(503,708,o),
(399,788,o),
(291,788,cs),
(156,788,o),
(92,684,o),
(92,585,cs),
(92,402,o),
(312,327,o),
(312,180,cs),
(312,131,o),
(283,53,o),
(208,53,cs),
(149,53,o),
(87,108,o),
(95,230,c),
(136,196,l)
);
}
);
width = 472;
},
{
anchors = (
{
name = bottom;
pos = (175,-30);
},
{
name = top;
pos = (292,778);
}
);
layerId = m01;
name = Regular;
shapes = (
{
closed = 1;
nodes = (
(-2,181,l),
(-6,47,o),
(66,-40,o),
(186,-40,cs),
(292,-40,o),
(378,32,o),
(401,139,cs),
(450,373,o),
(162,446,o),
(201,622,cs),
(211,666,o),
(245,694,o),
(289,694,cs),
(345,694,o),
(373,651,o),
(369,582,c),
(464,587,l),
(474,711,o),
(407,788,o),
(291,788,cs),
(196,788,o),
(123,733,o),
(99,643,cs),
(37,407,o),
(340,332,o),
(294,147,cs),
(280,91,o),
(240,53,o),
(195,53,cs),
(133,53,o),
(96,105,o),
(94,186,c)
);
}
);
width = 472;
},
{
associatedMasterId = m01;
layerId = "E2F0379E-C342-4AAC-B4FC-E4DE8D58750C";
name = "Oct 17, 22, 11:57";
shapes = (
{
closed = 1;
nodes = (
(-36,176,l),
(7,220,l),
(-13,64,o),
(61,-40,o),
(192,-40,cs),
(298,-40,o),
(384,32,o),
(407,139,cs),
(456,373,o),
(180,473,o),
(218,622,cs),
(228,665,o),
(263,694,o),
(303,694,cs),
(370,694,o),
(400,636,o),
(379,549,c),
(342,585,l),
(519,605,l),
(468,552,l),
(501,694,o),
(436,788,o),
(305,788,cs),
(214,788,o),
(138,728,o),
(115,639,cs),
(55,401,o),
(346,332,o),
(300,147,cs),
(286,91,o),
(246,53,o),
(201,53,cs),
(130,53,o),
(89,124,o),
(100,230,c),
(140,196,l)
);
}
);
width = 472;
}
);
unicode = 83;
}
{
glyphname = T;
kernLeft = T;
kernRight = T;
layers = (
{
anchors = (
{
name = bottom;
pos = (174,-30);
},
{
name = top;
pos = (292,778);
}
);
layerId = m01;
shapes = (
{
closed = 1;
nodes = (
(339,778,l),
(239,778,l),
(126,-30,l),
(226,-30,l)
);
},
{
closed = 1;
nodes = (
(62,683,l),
(490,683,l),
(503,778,l),
(74,778,l)
);
}
);
width = 440;
}
);
unicode = 84;
}
{
glyphname = U;
kernLeft = U;
kernRight = U;
layers = (
{
anchors = (
{
name = bottom;
pos = (208,-30);
},
{
name = ogonek;
pos = (208,-30);
},
{
name = top;
pos = (336,778);
},
{
name = topright;
pos = (469,778);
}
);
layerId = m01;
shapes = (
{
closed = 1;
nodes = (
(325,127,o),
(287,62,o),
(216,62,cs),
(148,62,o),
(127,127,o),
(148,279,cs),
(218,778,l),
(119,778,l),
(45,247,ls),
(18,50,o),
(64,-35,o),
(205,-35,cs),
(342,-35,o),
(415,50,o),
(442,247,cs),
(516,778,l),
(418,778,l),
(347,279,ls)
);
}
);
width = 498;
}
);
unicode = 85;
}
{
glyphname = V;
kernLeft = V;
kernRight = V;
layers = (
{
layerId = m01;
shapes = (
{
closed = 1;
nodes = (
(223,122,o),
(210,226,o),
(206,287,cs),
(174,778,l),
(69,778,l),
(149,-30,l),
(244,-30,l),
(535,778,l),
(428,778,l),
(264,276,ls),
(247,224,o),
(216,124,o),
(200,74,c),
(218,74,l)
);
}
);
width = 466;
},
{
associatedMasterId = m01;
layerId = "1D2A06DD-BBA3-4781-850D-7D3DAF95D760";
name = "Oct 13, 22, 12:27";
shapes = (
{
closed = 1;
nodes = (
(222,25,l),
(176,778,l),
(71,778,l),
(141,-30,l),
(240,-30,l),
(523,778,l),
(413,778,l),
(172,25,l)
);
}
);
width = 460;
}
);
unicode = 86;
}
{
glyphname = W;
kernLeft = V;
kernRight = V;
layers = (
{
anchors = (
{
name = top;
pos = (430,778);
}
);
layerId = m01;
shapes = (
{
closed = 1;
nodes = (
(115,-30,l),
(212,-30,l),
(364,458,ls),
(382,517,o),
(417,650,o),
(426,698,c),
(401,700,l),
(397,651,o),
(390,516,o),
(393,454,cs),
(414,-30,l),
(511,-30,l),
(772,778,l),
(665,778,l),
(522,268,ls),
(507,214,o),
(490,160,o),
(478,118,c),
(485,112,l),
(485,162,o),
(484,214,o),
(483,257,cs),
(473,778,l),
(366,778,l),
(223,268,ls),
(208,215,o),
(191,160,o),
(179,118,c),
(186,112,l),
(186,159,o),
(185,214,o),
(184,257,cs),
(174,778,l),
(69,778,l)
);
}
);
width = 703;
},
{
associatedMasterId = m01;
layerId = "5826620C-88FC-4F0E-9B72-29F8421075FB";
name = "Oct 13, 22, 12:28";
shapes = (
{
closed = 1;
nodes = (
(173,25,l),
(174,778,l),
(69,778,l),
(96,-30,l),
(196,-30,l),
(431,778,l),
(347,778,l),
(133,25,l)
);
},
{
closed = 1;
nodes = (
(472,25,l),
(452,778,l),
(368,778,l),
(396,-30,l),
(495,-30,l),
(736,778,l),
(626,778,l),
(432,25,l)
);
}
);
width = 667;
}
);
metricLeft = V;
metricRight = V;
unicode = 87;
}
{
glyphname = X;
kernLeft = X;
kernRight = X;
layers = (
{
layerId = m01;
shapes = (
{
closed = 1;
nodes = (
(253,325,l),
(478,778,l),
(368,778,l),
(217,442,l),
(196,442,l),
(-40,-30,l),
(70,-30,l),
(232,325,l)
);
},
{
closed = 1;
nodes = (
(253,421,l),
(174,778,l),
(69,778,l),
(177,353,l),
(198,353,l),
(285,-30,l),
(390,-30,l),
(274,421,l)
);
}
);
width = 435;
}
);
unicode = 88;
}
{
glyphname = Y;
kernLeft = Y;
kernRight = Y;
layers = (
{
anchors = (
{
name = bottom;
pos = (168,-30);
},
{
name = top;
pos = (290,778);
},
{
name = topleft;
pos = (89,778);
}
);
layerId = m01;
shapes = (
{
closed = 1;
nodes = (
(267,317,l),
(477,778,l),
(369,778,l),
(249,472,ls),
(230,425,o),
(214,383,o),
(206,358,c),
(243,354,l),
(239,380,o),
(228,446,o),
(223,473,cs),
(171,778,l),
(69,778,l),
(168,317,l),
(118,-30,l),
(218,-30,l)
);
}
);
width = 408;
},
{
anchors = (
{
name = bottom;
pos = (163,0);
},
{
name = top;
pos = (289,778);
}
);
associatedMasterId = m01;
layerId = "D4DDD520-1D30-4128-B8B8-CCC6A559F8A9";
name = "Oct 17, 22, 11:56";
shapes = (
{
closed = 1;
nodes = (
(272,357,l),
(477,778,l),
(369,778,l),
(254,512,ls),
(234,465,o),
(219,423,o),
(211,398,c),
(248,394,l),
(244,420,o),
(234,486,o),
(228,513,cs),
(171,778,l),
(69,778,l),
(173,357,l),
(118,-30,l),
(218,-30,l)
);
}
);
width = 408;
}
);
unicode = 89;
}
{
glyphname = Z;
kernLeft = Z;
kernRight = Z;
layers = (
{
anchors = (
{
name = top;
pos = (265,778);
}
);
layerId = m01;
shapes = (
{
closed = 1;
nodes = (
(65,683,l),
(366,683,l),
(332,722,l),
(-23,54,l),
(-34,-30,l),
(327,-30,l),
(340,65,l),
(38,65,l),
(67,26,l),
(422,694,l),
(433,778,l),
(77,778,l)
);
}
);
width = 383;
}
);
unicode = 90;
}
{
glyphname = bracketleft;
layers = (
{
layerId = m01;
shapes = (
{
closed = 1;
nodes = (
(236,-190,l),
(247,-115,l),
(121,-115,l),
(243,735,l),
(369,735,l),
(380,810,l),
(164,810,l),
(20,-190,l)
);
}
);
width = 300;
}
);
unicode = 91;
}
{
glyphname = backslash;
layers = (
{
layerId = m01;
shapes = (
{
closed = 1;
nodes = (
(279,-30,l),
(94,780,l),
(12,780,l),
(197,-30,l)
);
}
);
width = 291;
}
);
unicode = 92;
}
{
glyphname = asciicircum;
layers = (
{
layerId = m01;
shapes = (
{
closed = 1;
nodes = (
(256,782,l),
(72,519,l),
(127,489,l),
(297,740,l),
(247,740,l),
(350,489,l),
(410,510,l),
(297,782,l)
);
}
);
width = 450;
}
);
unicode = 94;
}
{
glyphname = underscore;
layers = (
{
layerId = m01;
shapes = (
{
closed = 1;
nodes = (
(0,-230,l),
(600,-230,l),
(610,-162,l),
(10,-162,l)
);
}
);
width = 600;
}
);
unicode = 95;
}
{
glyphname = a;
kernLeft = o;
kernRight = n;
layers = (
{
associatedMasterId = m01;
layerId = "819E9431-EE5A-4B08-9F17-5053509D4FDE";
name = "Oct 13, 22, 13:10";
shapes = (
{
closed = 1;
nodes = (
(446,580,l),
(349,580,l),
(342,528,l),
(322,568,o),
(289,589,o),
(245,589,cs),
(147,589,o),
(66,484,o),
(40,290,cs),
(8,47,o),
(77,-40,o),
(166,-40,cs),
(206,-40,o),
(243,-15,o),
(273,25,c),
(268,-30,l),
(360,-30,l)
);
},
{
closed = 1;
nodes = (
(155,399,o),
(191,499,o),
(254,499,cs),
(332,499,o),
(328,391,o),
(312,266,cs),
(297,147,o),
(263,50,o),
(192,50,cs),
(121,50,o),
(122,150,o),
(139,279,cs)
);
}
);
width = 455;
},
{
anchors = (
{
name = bottom;
pos = (201,-30);
},
{
name = ogonek;
pos = (310,-30);
},
{
name = top;
pos = (289,580);
}
);
layerId = m01;
name = Regular;
shapes = (
{
closed = 1;
nodes = (
(280,118,o),
(244,50,o),
(192,50,cs),
(123,50,o),
(122,150,o),
(139,279,cs),
(155,399,o),
(191,499,o),
(254,499,cs),
(304,499,o),
(330,445,o),
(321,370,c),
(359,383,l),
(372,515,o),
(328,589,o),
(245,589,cs),
(148,589,o),
(68,493,o),
(40,290,cs),
(6,47,o),
(70,-40,o),
(166,-40,cs),
(246,-40,o),
(313,60,o),
(333,175,c),
(294,185,l)
);
},
{
closed = 1;
nodes = (
(446,580,l),
(349,580,l),
(276,66,l),
(268,-30,l),
(360,-30,l)
);
}
);
width = 455;
}
);
metricLeft = o;
metricRight = n;
unicode = 97;
}
{
glyphname = b;
kernLeft = l;
kernRight = o;
layers = (
{
layerId = m01;
shapes = (
{
closed = 1;
nodes = (
(86,158,l),
(81,33,o),
(119,-40,o),
(203,-40,cs),
(319,-40,o),
(392,95,o),
(414,284,cs),
(437,485,o),
(388,590,o),
(287,590,cs),
(204,590,o),
(145,517,o),
(122,385,c),
(156,372,l),
(168,447,o),
(206,500,o),
(259,500,cs),
(322,500,o),
(332,408,o),
(313,274,cs),
(296,154,o),
(263,50,o),
(196,50,cs),
(149,50,o),
(123,101,o),
(129,169,c)
);
},
{
closed = 1;
nodes = (
(114,57,l),
(221,810,l),
(124,810,l),
(5,-30,l),
(96,-30,l)
);
}
);
width = 459;
}
);
metricLeft = l;
metricRight = o;
unicode = 98;
}
{
glyphname = c;
kernLeft = o;
kernRight = c;
layers = (
{
associatedMasterId = m01;
layerId = "C9279868-20E5-4070-B3AB-0386EE0E455F";
name = "Oct 13, 22, 11:39";
shapes = (
{
closed = 1;
nodes = (
(297,155,l),
(283,87,o),
(245,50,o),
(197,50,cs),
(131,50,o),
(116,120,o),
(138,274,cs),
(160,429,o),
(198,501,o),
(257,501,cs),
(289,501,o),
(319,491,o),
(319,443,cs),
(319,423,o),
(318,409,o),
(315,386,c),
(401,386,l),
(405,414,o),
(407,437,o),
(407,461,cs),
(407,538,o),
(347,590,o),
(265,590,cs),
(138,590,o),
(66,491,o),
(38,274,cs),
(10,59,o),
(56,-40,o),
(186,-40,cs),
(292,-40,o),
(364,36,o),
(385,155,c)
);
}
);
width = 413;
},
{
associatedMasterId = m01;
layerId = "E8BA23E9-0F93-4A3E-94EC-2F665CDC578A";
name = "Oct 13, 22, 11:41";
shapes = (
{
closed = 1;
nodes = (
(297,155,l),
(283,87,o),
(245,50,o),
(197,50,cs),
(131,50,o),
(116,120,o),
(138,274,cs),
(160,429,o),
(198,501,o),
(257,501,cs),
(289,501,o),
(319,491,o),
(319,443,cs),
(319,423,o),
(318,409,o),
(315,386,c),
(401,386,l),
(405,414,o),
(407,437,o),
(407,461,cs),
(407,538,o),
(347,590,o),
(265,590,cs),
(138,590,o),
(66,491,o),
(38,274,cs),
(10,59,o),
(56,-40,o),
(186,-40,cs),
(292,-40,o),
(364,36,o),
(385,155,c)
);
}
);
width = 413;
},
{
anchors = (
{
name = bottom;
pos = (170,-30);
},
{
name = top;
pos = (271,580);
}
);
layerId = m01;
name = Regular;
shapes = (
{
closed = 1;
nodes = (
(289,142,l),
(271,82,o),
(235,50,o),
(197,50,cs),
(131,50,o),
(116,120,o),
(138,274,cs),
(160,429,o),
(198,500,o),
(257,500,cs),
(304,500,o),
(320,460,o),
(324,416,c),
(417,431,l),
(409,525,o),
(360,590,o),
(265,590,cs),
(138,590,o),
(66,491,o),
(38,274,cs),
(10,59,o),
(56,-40,o),
(186,-40,cs),
(283,-40,o),
(350,25,o),
(377,129,c)
);
}
);
width = 414;
},
{
anchors = (
{
name = bottom;
pos = (170,-30);
},
{
name = top;
pos = (271,580);
}
);
associatedMasterId = m01;
layerId = "EC71332C-EEDE-4647-BB19-DF56D02F6566";
name = "Nov 1, 22, 19:04";
shapes = (
{
closed = 1;
nodes = (
(292,154,l),
(276,86,o),
(236,50,o),
(197,50,cs),
(131,50,o),
(116,120,o),
(138,274,cs),
(160,429,o),
(198,500,o),
(257,500,cs),
(304,500,o),
(321,458,o),
(325,410,c),
(417,435,l),
(407,524,o),
(360,590,o),
(265,590,cs),
(138,590,o),
(66,491,o),
(38,274,cs),
(10,59,o),
(56,-40,o),
(186,-40,cs),
(283,-40,o),
(348,24,o),
(376,125,c)
);
}
);
width = 414;
}
);
metricLeft = o;
unicode = 99;
}
{
glyphname = d;
kernLeft = o;
kernRight = l;
layers = (
{
anchors = (
{
name = topright;
pos = (509,810);
}
);
layerId = m01;
shapes = (
{
closed = 1;
nodes = (
(280,118,o),
(244,50,o),
(192,50,cs),
(121,50,o),
(122,150,o),
(139,279,cs),
(155,399,o),
(191,499,o),
(254,499,cs),
(304,499,o),
(330,445,o),
(321,370,c),
(359,383,l),
(372,515,o),
(328,589,o),
(245,589,cs),
(147,589,o),
(69,493,o),
(40,290,cs),
(4,37,o),
(77,-40,o),
(166,-40,cs),
(246,-40,o),
(313,60,o),
(333,175,c),
(294,185,l)
);
},
{
closed = 1;
nodes = (
(479,810,l),
(382,810,l),
(276,66,l),
(268,-30,l),
(360,-30,l)
);
}
);
width = 456;
}
);
metricLeft = a;
metricRight = l;
unicode = 100;
}
{
glyphname = e;
kernLeft = o;
kernRight = e;
layers = (
{
anchors = (
{
name = bottom;
pos = (194,-30);
},
{
name = ogonek;
pos = (198,-30);
},
{
name = top;
pos = (266,580);
}
);
layerId = m01;
shapes = (
{
closed = 1;
nodes = (
(118,250,l),
(411,250,l),
(441,463,o),
(414,590,o),
(268,590,cs),
(127,590,o),
(62,463,o),
(39,279,cs),
(16,95,o),
(37,-40,o),
(189,-40,cs),
(285,-40,o),
(359,24,o),
(391,135,c),
(302,148,l),
(281,83,o),
(246,50,o),
(198,50,cs),
(115,50,o),
(119,159,o),
(134,270,cs),
(154,420,o),
(193,500,o),
(260,500,cs),
(328,500,o),
(332,407,o),
(316,290,c),
(366,332,l),
(131,332,l)
);
}
);
width = 449;
},
{
anchors = (
{
name = bottom;
pos = (194,-30);
},
{
name = ogonek;
pos = (198,-30);
},
{
name = top;
pos = (266,580);
}
);
associatedMasterId = m01;
layerId = "156C77C1-5208-4415-BB19-D4E6F514E77D";
name = "Nov 1, 22, 19:05";
shapes = (
{
closed = 1;
nodes = (
(118,250,l),
(411,250,l),
(441,463,o),
(414,590,o),
(268,590,cs),
(127,590,o),
(62,463,o),
(39,279,cs),
(16,95,o),
(37,-40,o),
(189,-40,cs),
(285,-40,o),
(357,33,o),
(391,136,c),
(303,158,l),
(283,101,o),
(246,50,o),
(198,50,cs),
(115,50,o),
(119,159,o),
(134,270,cs),
(154,420,o),
(193,500,o),
(260,500,cs),
(328,500,o),
(332,407,o),
(316,290,c),
(366,332,l),
(131,332,l)
);
}
);
width = 449;
}
);
metricLeft = o;
unicode = 101;
}
{
glyphname = f;
kernLeft = f;
kernRight = f;
layers = (
{
associatedMasterId = m01;
guides = (
{
angle = 84;
locked = 1;
pos = (345,470);
},
{
angle = 82.1709;
pos = (317,518);
}
);
layerId = "40D88845-AD18-4F49-95CD-5D84D4EC4926";
name = "Oct 13, 22, 13:19";
shapes = (
{
closed = 1;
nodes = (
(364,799,l),
(328,812,o),
(304,814,o),
(275,814,cs),
(169,814,o),
(136,703,o),
(114,548,cs),
(33,-31,l),
(126,-31,l),
(206,544,ls),
(223,668,o),
(243,720,o),
(285,720,cs),
(303,720,o),
(320,718,o),
(350,708,c)
);
},
{
closed = 1;
nodes = (
(33,467,l),
(305,467,l),
(318,555,l),
(46,555,l)
);
}
);
width = 291;
},
{
associatedMasterId = m01;
guides = (
{
angle = 84;
locked = 1;
pos = (345,470);
},
{
angle = 82.1709;
pos = (317,518);
}
);
layerId = "85F8F8A3-C4B8-4CAC-B2AA-03D982956BB4";
name = "Oct 13, 22, 14:37";
shapes = (
{
closed = 1;
nodes = (
(354,805,l),
(326,814,o),
(302,820,o),
(273,820,cs),
(167,820,o),
(135,747,o),
(113,592,cs),
(26,-30,l),
(126,-30,l),
(207,558,ls),
(223,672,o),
(229,727,o),
(271,733,cs),
(291,736,o),
(311,732,o),
(339,724,c)
);
},
{
closed = 1;
nodes = (
(37,492,l),
(309,492,l),
(322,580,l),
(50,580,l)
);
}
);
width = 291;
},
{
guides = (
{
angle = 84;
locked = 1;
pos = (346,470);
}
);
layerId = m01;
name = Regular;
shapes = (
{
closed = 1;
nodes = (
(28,492,l),
(302,492,l),
(315,580,l),
(41,580,l)
);
},
{
closed = 1;
nodes = (
(334,813,l),
(318,818,o),
(300,820,o),
(279,820,cs),
(199,820,o),
(135,774,o),
(113,615,cs),
(24,-30,l),
(121,-30,l),
(200,556,ls),
(215,665,o),
(223,730,o),
(283,730,cs),
(295,730,o),
(310,727,o),
(321,724,c)
);
}
);
width = 272;
},
{
associatedMasterId = m01;
guides = (
{
angle = 84;
locked = 1;
pos = (346,470);
}
);
layerId = "721AFF98-31B5-464D-96F2-EBA17968E192";
name = "Oct 25, 22, 12:50";
shapes = (
{
closed = 1;
nodes = (
(402,772,l),
(372,798,o),
(326,820,o),
(279,820,cs),
(199,820,o),
(135,764,o),
(112,605,cs),
(20,-30,l),
(117,-30,l),
(200,556,ls),
(215,665,o),
(223,730,o),
(283,730,cs),
(303,730,o),
(323,716,o),
(339,698,c)
);
},
{
closed = 1;
nodes = (
(28,492,l),
(300,492,l),
(313,580,l),
(41,580,l)
);
}
);
width = 274;
}
);
unicode = 102;
}
{
glyphname = g;
kernLeft = g;
kernRight = g;
layers = (
{
anchors = (
{
name = bottom;
pos = (155,-230);
},
{
name = top;
pos = (287,580);
}
);
layerId = m01;
shapes = (
{
closed = 1;
nodes = (
(275,38,l),
(264,-97,o),
(220,-148,o),
(160,-148,cs),
(110,-148,o),
(70,-98,o),
(61,-19,c),
(111,-49,l),
(-54,-102,l),
(-32,-56,l),
(-12,-171,o),
(57,-240,o),
(151,-240,cs),
(283,-240,o),
(343,-143,o),
(367,28,cs),
(446,580,l),
(349,580,l),
(276,66,l)
);
},
{
closed = 1;
nodes = (
(280,118,o),
(244,50,o),
(192,50,cs),
(121,50,o),
(122,150,o),
(139,279,cs),
(155,399,o),
(191,499,o),
(254,499,cs),
(304,499,o),
(330,445,o),
(321,370,c),
(359,383,l),
(372,515,o),
(328,589,o),
(245,589,cs),
(147,589,o),
(68,493,o),
(40,290,cs),
(5,38,o),
(77,-40,o),
(166,-40,cs),
(246,-40,o),
(313,60,o),
(333,175,c),
(294,185,l)
);
}
);
width = 455;
},
{
associatedMasterId = m01;
layerId = "18432364-A558-4AD3-ABB4-8F78AA8BC4E0";
name = "Oct 13, 22, 13:44";
shapes = (
{
closed = 1;
nodes = (
(252,38,l),
(231,-97,o),
(203,-150,o),
(134,-150,cs),
(89,-150,o),
(63,-112,o),
(47,-57,c),
(-36,-94,l),
(-13,-190,o),
(43,-240,o),
(127,-240,cs),
(262,-240,o),
(320,-143,o),
(344,28,cs),
(423,580,l),
(326,580,l),
(253,66,l)
);
},
{
closed = 1;
nodes = (
(257,118,o),
(221,50,o),
(169,50,cs),
(98,50,o),
(99,150,o),
(116,279,cs),
(132,399,o),
(168,499,o),
(231,499,cs),
(281,499,o),
(307,445,o),
(298,370,c),
(336,383,l),
(349,515,o),
(305,589,o),
(222,589,cs),
(124,589,o),
(43,484,o),
(17,290,cs),
(-15,47,o),
(54,-40,o),
(143,-40,cs),
(223,-40,o),
(290,60,o),
(310,175,c),
(271,185,l)
);
}
);
width = 419;
}
);
metricRight = n;
unicode = 103;
}
{
glyphname = h;
kernLeft = l;
kernRight = n;
layers = (
{
anchors = (
{
name = bottom;
pos = (178,0);
},
{
name = center;
pos = (235,405);
},
{
name = top;
pos = (182,810);
}
);
layerId = m01;
shapes = (
{
closed = 1;
nodes = (
(158,372,l),
(171,453,o),
(203,494,o),
(251,494,cs),
(298,494,o),
(313,457,o),
(303,388,cs),
(244,-31,l),
(343,-31,l),
(404,404,ls),
(423,537,o),
(365,583,o),
(293,583,cs),
(230,583,o),
(142,534,o),
(129,388,c)
);
},
{
closed = 1;
nodes = (
(221,810,l),
(124,810,l),
(5,-30,l),
(102,-30,l)
);
}
);
width = 438;
}
);
metricLeft = l;
metricRight = n;
unicode = 104;
}
{
glyphname = i;
kernLeft = i;
kernRight = i;
layers = (
{
layerId = m01;
shapes = (
{
alignment = -1;
pos = (1,0);
ref = idotless;
},
{
alignment = -1;
pos = (-142,0);
ref = dotaccentcomb;
}
);
width = 198;
},
{
associatedMasterId = m01;
layerId = "B2B33790-8062-44F3-9001-8101ECFCD4B2";
name = "Oct 13, 22, 13:02";
shapes = (
{
closed = 1;
nodes = (
(202,579,l),
(108,579,l),
(23,-30,l),
(117,-30,l)
);
},
{
closed = 1;
nodes = (
(210,635,o),
(232,663,o),
(236,698,cs),
(240,732,o),
(223,761,o),
(181,761,cs),
(136,761,o),
(114,732,o),
(110,698,cs),
(106,663,o),
(123,635,o),
(165,635,cs)
);
}
);
width = 228;
},
{
associatedMasterId = m01;
layerId = "1ED20F57-E5E8-413E-A3B2-ABACB6064B18";
name = "Oct 14, 22, 17:58";
shapes = (
{
closed = 1;
nodes = (
(192,635,o),
(214,663,o),
(218,698,cs),
(222,732,o),
(205,761,o),
(163,761,cs),
(118,761,o),
(96,732,o),
(92,698,cs),
(88,663,o),
(105,635,o),
(147,635,cs)
);
},
{
closed = 1;
nodes = (
(186,580,l),
(89,580,l),
(3,-30,l),
(100,-30,l)
);
}
);
width = 196;
}
);
unicode = 105;
}
{
glyphname = j;
kernLeft = j;
kernRight = i;
layers = (
{
associatedMasterId = m01;
layerId = "B5E25AC3-38CB-47C2-93CC-3C4B73284724";
name = "Oct 13, 22, 13:33";
shapes = (
{
closed = 1;
nodes = (
(210,635,o),
(232,663,o),
(236,698,cs),
(240,732,o),
(223,761,o),
(181,761,cs),
(136,761,o),
(114,732,o),
(110,698,cs),
(106,663,o),
(123,635,o),
(165,635,cs)
);
},
{
closed = 1;
nodes = (
(204,580,l),
(107,580,l),
(21,-30,ls),
(6,-140,o),
(-31,-157,o),
(-107,-133,c),
(-120,-221,l),
(38,-267,o),
(94,-198,o),
(118,-30,cs)
);
}
);
width = 226;
},
{
associatedMasterId = m01;
layerId = "FCDA15E1-0716-41E9-A4EE-B4B8E091F8F6";
name = "Oct 13, 22, 14:39";
shapes = (
{
closed = 1;
nodes = (
(210,635,o),
(232,663,o),
(236,698,cs),
(240,732,o),
(223,761,o),
(181,761,cs),
(136,761,o),
(114,732,o),
(110,698,cs),
(106,663,o),
(123,635,o),
(165,635,cs)
);
},
{
closed = 1;
nodes = (
(-121,-225,l),
(-87,-237,o),
(-69,-240,o),
(-40,-240,cs),
(66,-240,o),
(98,-167,o),
(120,-12,cs),
(204,580,l),
(107,580,l),
(28,22,ls),
(12,-92,o),
(4,-147,o),
(-38,-153,cs),
(-58,-156,o),
(-78,-152,o),
(-106,-144,c)
);
}
);
width = 226;
},
{
layerId = m01;
name = Regular;
shapes = (
{
ref = jdotless;
},
{
pos = (-144,0);
ref = dotaccentcomb;
}
);
width = 188;
},
{
associatedMasterId = m01;
layerId = "31111D2B-6C25-4917-9D6C-D8A2D2BD500E";
name = "Oct 14, 22, 17:59";
shapes = (
{
closed = 1;
nodes = (
(192,635,o),
(214,663,o),
(218,698,cs),
(222,732,o),
(205,761,o),
(163,761,cs),
(118,761,o),
(96,732,o),
(92,698,cs),
(88,663,o),
(105,635,o),
(147,635,cs)
);
},
{
closed = 1;
nodes = (
(-228,-234,l),
(-205,-166,l),
(-169,-213,o),
(-117,-240,o),
(-70,-240,cs),
(33,-240,o),
(79,-158,o),
(101,-8,cs),
(186,580,l),
(89,580,l),
(9,14,ls),
(-6,-95,o),
(-19,-147,o),
(-74,-147,cs),
(-103,-147,o),
(-125,-124,o),
(-143,-106,c),
(-97,-100,l)
);
}
);
width = 196;
},
{
associatedMasterId = m01;
layerId = "00E9C9BA-E297-44BD-BC89-CDAAB941D584";
name = "Oct 17, 22, 12:03";
shapes = (
{
closed = 1;
nodes = (
(-228,-234,l),
(-205,-166,l),
(-169,-213,o),
(-117,-240,o),
(-70,-240,cs),
(33,-240,o),
(79,-158,o),
(101,-8,cs),
(186,580,l),
(89,580,l),
(9,14,ls),
(-6,-95,o),
(-19,-147,o),
(-74,-147,cs),
(-103,-147,o),
(-125,-124,o),
(-143,-106,c),
(-97,-100,l)
);
},
{
closed = 1;
nodes = (
(188,635,o),
(211,663,o),
(217,703,cs),
(223,742,o),
(203,771,o),
(165,771,cs),
(124,771,o),
(101,742,o),
(95,703,cs),
(89,663,o),
(109,635,o),
(147,635,cs)
);
}
);
width = 196;
}
);
metricRight = i;
unicode = 106;
}
{
glyphname = k;
kernLeft = l;
kernRight = k;
layers = (
{
associatedMasterId = m01;
layerId = "D6D63CD6-1A6A-486E-996F-5AB812A44516";
name = "Oct 13, 22, 13:47";
shapes = (
{
closed = 1;
nodes = (
(92,285,l),
(89,159,l),
(413,527,l),
(338,584,l)
);
},
{
closed = 1;
nodes = (
(250,-31,l),
(346,-31,l),
(241,344,l),
(163,305,l)
);
},
{
closed = 1;
nodes = (
(219,809,l),
(128,809,l),
(10,-31,l),
(103,-31,l)
);
}
);
width = 396;
},
{
anchors = (
{
name = bottom;
pos = (165,-30);
},
{
name = top;
pos = (274,810);
}
);
associatedMasterId = m01;
layerId = "8D5A6D26-5CD0-4F7C-B32E-F14DF96BEB5B";
name = "Nov 1, 22, 19:06";
shapes = (
{
closed = 1;
nodes = (
(92,285,l),
(81,170,l),
(179,287,l),
(198,289,l),
(442,580,l),
(338,580,l)
);
},
{
closed = 1;
nodes = (
(250,-31,l),
(350,-31,l),
(245,344,l),
(163,305,l)
);
},
{
closed = 1;
nodes = (
(221,810,l),
(124,810,l),
(5,-30,l),
(102,-30,l)
);
}
);
width = 401;
},
{
anchors = (
{
name = bottom;
pos = (165,-30);
},
{
name = top;
pos = (274,810);
}
);
associatedMasterId = m01;
layerId = "25221F24-33A6-4B4C-8721-0E99410FE8DF";
name = "Nov 3, 22, 13:23";
shapes = (
{
closed = 1;
nodes = (
(136,289,l),
(250,-31,l),
(350,-31,l),
(219,357,l),
(224,276,l),
(442,580,l),
(334,580,l)
);
},
{
closed = 1;
nodes = (
(221,810,l),
(124,810,l),
(5,-30,l),
(102,-30,l)
);
}
);
width = 401;
},
{
anchors = (
{
name = bottom;
pos = (165,-30);
},
{
name = top;
pos = (274,810);
}
);
layerId = m01;
name = Regular;
shapes = (
{
closed = 1;
nodes = (
(92,198,l),
(81,70,l),
(233,293,l),
(249,295,l),
(442,580,l),
(338,580,l)
);
},
{
closed = 1;
nodes = (
(250,-31,l),
(350,-31,l),
(265,345,l),
(179,306,l)
);
},
{
closed = 1;
nodes = (
(221,810,l),
(124,810,l),
(5,-30,l),
(102,-30,l)
);
}
);
width = 401;
}
);
metricLeft = l;
unicode = 107;
}
{
glyphname = l;
kernLeft = l;
kernRight = l;
layers = (
{
anchors = (
{
name = bottom;
pos = (53,-30);
},
{
name = top;
pos = (192,810);
},
{
name = topright;
pos = (251,810);
}
);
layerId = m01;
shapes = (
{
closed = 1;
nodes = (
(221,810,l),
(124,810,l),
(5,-30,l),
(102,-30,l)
);
}
);
width = 198;
}
);
unicode = 108;
}
{
glyphname = m;
kernLeft = n;
kernRight = n;
layers = (
{
guides = (
{
angle = 84;
pos = (736,266);
}
);
layerId = m01;
shapes = (
{
closed = 1;
nodes = (
(174,478,l),
(183,580,l),
(92,580,l),
(5,-30,l),
(102,-30,l)
);
},
{
closed = 1;
nodes = (
(159,379,l),
(172,449,o),
(207,500,o),
(253,500,cs),
(297,500,o),
(314,464,o),
(304,394,cs),
(243,-30,l),
(341,-30,l),
(403,410,ls),
(422,543,o),
(365,590,o),
(293,590,cs),
(230,590,o),
(158,540,o),
(130,394,c)
);
},
{
closed = 1;
nodes = (
(398,379,l),
(411,449,o),
(446,500,o),
(492,500,cs),
(536,500,o),
(553,464,o),
(543,394,cs),
(482,-30,l),
(580,-30,l),
(642,410,ls),
(661,543,o),
(604,590,o),
(532,590,cs),
(469,590,o),
(397,540,o),
(369,394,c)
);
}
);
width = 675;
},
{
associatedMasterId = m01;
guides = (
{
angle = 84;
pos = (735,266);
}
);
layerId = "14C0E766-0850-4C8B-90FF-3CC3AD95ECD9";
name = "Oct 13, 22, 13:00";
shapes = (
{
closed = 1;
nodes = (
(184,583,l),
(90,583,l),
(4,-30,l),
(98,-30,l)
);
},
{
closed = 1;
nodes = (
(155,378,l),
(169,458,o),
(199,499,o),
(247,499,cs),
(295,499,o),
(310,463,o),
(300,393,cs),
(239,-30,l),
(339,-30,l),
(401,409,ls),
(420,542,o),
(362,589,o),
(289,589,cs),
(226,589,o),
(139,539,o),
(127,393,c)
);
},
{
closed = 1;
nodes = (
(396,378,l),
(410,458,o),
(440,499,o),
(489,499,cs),
(536,499,o),
(551,463,o),
(541,393,cs),
(480,-30,l),
(580,-30,l),
(642,409,ls),
(661,542,o),
(603,589,o),
(531,589,cs),
(468,589,o),
(381,539,o),
(368,393,c)
);
}
);
width = 666;
}
);
metricLeft = n;
metricRight = n;
unicode = 109;
}
{
glyphname = n;
kernLeft = n;
kernRight = n;
layers = (
{
associatedMasterId = m01;
layerId = "CE3ED1BF-2FD4-4C3B-AC54-C79D7D0FF9E5";
name = "Oct 13, 22, 12:58";
shapes = (
{
closed = 1;
nodes = (
(164,478,l),
(163,492,l),
(176,580,l),
(82,580,l),
(-5,-30,l),
(92,-30,l)
);
},
{
closed = 1;
nodes = (
(149,379,l),
(162,449,o),
(197,500,o),
(243,500,cs),
(287,500,o),
(304,464,o),
(294,394,cs),
(233,-30,l),
(331,-30,l),
(393,410,ls),
(412,543,o),
(355,590,o),
(283,590,cs),
(220,590,o),
(148,540,o),
(120,394,c)
);
}
);
width = 416;
},
{
anchors = (
{
name = bottom;
pos = (178,-30);
},
{
name = top;
pos = (275,580);
}
);
layerId = m01;
name = Regular;
shapes = (
{
closed = 1;
nodes = (
(174,478,l),
(183,580,l),
(92,580,l),
(5,-30,l),
(102,-30,l)
);
},
{
closed = 1;
nodes = (
(159,379,l),
(172,449,o),
(207,500,o),
(253,500,cs),
(297,500,o),
(314,464,o),
(304,394,cs),
(243,-30,l),
(341,-30,l),
(403,410,ls),
(422,543,o),
(365,590,o),
(293,590,cs),
(230,590,o),
(158,540,o),
(130,394,c)
);
}
);
width = 436;
}
);
unicode = 110;
}
{
glyphname = o;
kernLeft = o;
kernRight = o;
layers = (
{
anchors = (
{
name = bottom;
pos = (185,-30);
},
{
name = center;
pos = (228,290);
},
{
name = top;
pos = (265,580);
},
{
name = topright;
pos = (361,538);
}
);
guides = (
{
angle = 82;
pos = (224,280);
}
);
layerId = m01;
shapes = (
{
closed = 1;
nodes = (
(314,-40,o),
(386,59,o),
(414,274,cs),
(442,491,o),
(396,590,o),
(265,590,cs),
(138,590,o),
(66,491,o),
(38,274,cs),
(10,59,o),
(56,-40,o),
(186,-40,cs)
);
},
{
closed = 1;
nodes = (
(133,50,o),
(116,120,o),
(138,274,cs),
(160,429,o),
(198,500,o),
(257,500,cs),
(318,500,o),
(336,429,o),
(314,274,cs),
(292,120,o),
(254,50,o),
(193,50,cs)
);
}
);
width = 460;
}
);
unicode = 111;
}
{
glyphname = q;
kernLeft = o;
kernRight = l;
layers = (
{
layerId = m01;
shapes = (
{
closed = 1;
nodes = (
(280,118,o),
(244,50,o),
(192,50,cs),
(121,50,o),
(122,150,o),
(139,279,cs),
(155,399,o),
(191,499,o),
(254,499,cs),
(304,499,o),
(330,445,o),
(321,370,c),
(359,383,l),
(372,515,o),
(328,589,o),
(245,589,cs),
(147,589,o),
(68,492,o),
(40,290,cs),
(5,36,o),
(77,-40,o),
(166,-40,cs),
(246,-40,o),
(313,60,o),
(333,175,c),
(294,185,l)
);
},
{
closed = 1;
nodes = (
(446,580,l),
(349,580,l),
(234,-230,l),
(331,-230,l)
);
}
);
width = 455;
}
);
metricLeft = o;
metricRight = l;
unicode = 113;
}
{
glyphname = r;
kernLeft = n;
kernRight = r;
layers = (
{
anchors = (
{
name = bottom;
pos = (61,-30);
},
{
name = top;
pos = (206,580);
}
);
layerId = m01;
shapes = (
{
closed = 1;
nodes = (
(186,583,l),
(91,583,l),
(5,-30,l),
(100,-30,l)
);
},
{
closed = 1;
nodes = (
(328,588,l),
(232,588,o),
(143,524,o),
(127,349,c),
(150,333,l),
(168,447,o),
(237,499,o),
(315,489,c)
);
}
);
width = 292;
},
{
associatedMasterId = m01;
layerId = "49588FC5-5E9F-4D5D-8507-8FC24534B04B";
name = "Oct 13, 22, 13:39";
shapes = (
{
closed = 1;
nodes = (
(164,478,l),
(173,580,l),
(82,580,l),
(-5,-30,l),
(92,-30,l)
);
},
{
closed = 1;
nodes = (
(149,379,l),
(162,449,o),
(197,500,o),
(243,500,cs),
(287,500,o),
(304,464,o),
(294,394,cs),
(233,-30,l),
(331,-30,l),
(393,410,ls),
(412,543,o),
(355,590,o),
(283,590,cs),
(220,590,o),
(148,540,o),
(120,394,c)
);
}
);
width = 292;
}
);
metricLeft = n;
unicode = 114;
}
{
glyphname = s;
kernLeft = s;
kernRight = s;
layers = (
{
anchors = (
{
name = bottom;
pos = (144,-30);
},
{
name = top;
pos = (228,580);
}
);
layerId = m01;
shapes = (
{
closed = 1;
nodes = (
(-1,127,l),
(-1,13,o),
(75,-40,o),
(158,-40,cs),
(237,-40,o),
(318,7,o),
(334,106,cs),
(364,284,o),
(147,342,o),
(166,448,cs),
(174,491,o),
(200,504,o),
(228,504,cs),
(262,504,o),
(292,479,o),
(290,422,c),
(376,422,l),
(385,540,o),
(308,590,o),
(228,590,cs),
(157,590,o),
(86,554,o),
(68,469,cs),
(28,287,o),
(257,245,o),
(233,112,cs),
(226,67,o),
(196,49,o),
(166,49,cs),
(127,49,o),
(93,78,o),
(90,131,c)
);
}
);
width = 379;
},
{
associatedMasterId = m01;
layerId = "AD728A5D-1F15-4BB8-9591-F1EDD6025DA1";
name = "Oct 13, 22, 14:10";
shapes = (
{
closed = 1;
nodes = (
(269,-33,o),
(322,40,o),
(329,121,cs),
(339,218,o),
(285,264,o),
(231,308,cs),
(184,350,o),
(134,383,o),
(138,430,cs),
(143,478,o),
(178,500,o),
(215,500,cs),
(253,500,o),
(280,471,o),
(292,408,c),
(375,433,l),
(362,544,o),
(290,588,o),
(207,588,cs),
(123,588,o),
(56,524,o),
(48,439,cs),
(35,333,o),
(115,286,o),
(164,244,cs),
(211,206,o),
(244,180,o),
(240,131,cs),
(236,82,o),
(205,60,o),
(167,60,cs),
(120,60,o),
(89,92,o),
(75,170,c),
(-13,144,l),
(4,19,o),
(74,-33,o),
(160,-33,cs)
);
}
);
width = 361;
},
{
anchors = (
{
name = bottom;
pos = (144,-30);
},
{
name = top;
pos = (232,580);
}
);
associatedMasterId = m01;
layerId = "C5857F6E-30C1-4D05-89C4-9318BCA5FB36";
name = "Nov 1, 22, 19:09";
shapes = (
{
closed = 1;
nodes = (
(-6,127,l),
(-6,13,o),
(70,-40,o),
(153,-40,cs),
(232,-40,o),
(313,7,o),
(329,106,cs),
(359,284,o),
(143,342,o),
(162,448,cs),
(170,491,o),
(196,504,o),
(224,504,cs),
(258,504,o),
(289,480,o),
(287,431,c),
(372,440,l),
(379,540,o),
(304,590,o),
(224,590,cs),
(153,590,o),
(82,554,o),
(64,469,cs),
(24,287,o),
(252,245,o),
(228,112,cs),
(221,67,o),
(191,49,o),
(161,49,cs),
(122,49,o),
(86,77,o),
(83,137,c)
);
}
);
width = 379;
}
);
unicode = 115;
}
{
glyphname = t;
kernLeft = t;
kernRight = t;
layers = (
{
anchors = (
{
name = bottom;
pos = (119,-30);
},
{
name = topright;
pos = (273,890);
}
);
layerId = m01;
shapes = (
{
closed = 1;
nodes = (
(28,492,l),
(300,492,l),
(313,580,l),
(41,580,l)
);
},
{
closed = 1;
nodes = (
(6,-66,o),
(150,-61,o),
(253,-13,c),
(222,69,l),
(205,57,o),
(187,50,o),
(171,50,cs),
(133,50,o),
(125,85,o),
(136,158,cs),
(225,748,l),
(133,748,l),
(39,147,ls)
);
}
);
width = 295;
},
{
associatedMasterId = m01;
layerId = "4B7F61A0-E6A5-465A-921F-124290B22A8A";
name = "Oct 13, 22, 14:21";
shapes = (
{
closed = 1;
nodes = (
(216,142,l),
(201,85,o),
(181,58,o),
(166,59,cs),
(146,60,o),
(139,84,o),
(150,165,cs),
(237,758,l),
(147,758,l),
(60,165,ls),
(37,6,o),
(92,-37,o),
(155,-37,cs),
(204,-37,o),
(261,-4,o),
(297,121,c)
);
},
{
closed = 1;
nodes = (
(43,472,l),
(325,472,l),
(336,556,l),
(54,556,l)
);
}
);
width = 319;
},
{
associatedMasterId = m01;
layerId = "4F85C7F8-5992-4C28-B1D4-0C803B1AE97E";
name = "Oct 13, 22, 14:28";
shapes = (
{
closed = 1;
nodes = (
(39,492,l),
(311,492,l),
(324,580,l),
(52,580,l)
);
},
{
closed = 1;
nodes = (
(39,1,o),
(99,-40,o),
(178,-40,cs),
(219,-40,o),
(268,-18,o),
(299,5,c),
(303,-75,l),
(235,103,l),
(255,74,l),
(236,61,o),
(216,55,o),
(200,55,cs),
(160,55,o),
(146,80,o),
(156,153,cs),
(240,758,l),
(143,758,l),
(59,148,ls)
);
}
);
width = 319;
},
{
associatedMasterId = m01;
layerId = "650E1957-CDFD-4FF0-8745-4BB75513BC7C";
name = "Oct 13, 22, 14:42";
shapes = (
{
closed = 1;
nodes = (
(39,492,l),
(311,492,l),
(324,580,l),
(52,580,l)
);
},
{
closed = 1;
nodes = (
(39,1,o),
(99,-40,o),
(178,-40,cs),
(219,-40,o),
(268,-18,o),
(299,5,c),
(303,-75,l),
(235,103,l),
(255,74,l),
(236,61,o),
(216,55,o),
(200,55,cs),
(160,55,o),
(146,80,o),
(156,153,cs),
(238,748,l),
(141,748,l),
(59,148,ls)
);
}
);
width = 319;
}
);
unicode = 116;
}
{
glyphname = u;
kernLeft = n;
kernRight = n;
layers = (
{
anchors = (
{
name = bottom;
pos = (164,-30);
},
{
name = ogonek;
pos = (280,-30);
},
{
name = top;
pos = (249,580);
},
{
name = topright;
pos = (369,580);
}
);
layerId = m01;
shapes = (
{
closed = 1;
nodes = (
(248,72,l),
(239,-30,l),
(330,-30,l),
(417,580,l),
(320,580,l)
);
},
{
closed = 1;
nodes = (
(263,171,l),
(250,101,o),
(215,50,o),
(169,50,cs),
(125,50,o),
(108,86,o),
(118,156,cs),
(179,580,l),
(81,580,l),
(19,140,ls),
(0,7,o),
(57,-40,o),
(129,-40,cs),
(192,-40,o),
(264,10,o),
(292,156,c)
);
}
);
width = 415;
},
{
associatedMasterId = m01;
layerId = "5E80A953-7FC2-4E40-B4AC-FAFEBA225E8E";
name = "Oct 13, 22, 13:42";
shapes = (
{
closed = 1;
nodes = (
(246,-25,l),
(340,-25,l),
(426,584,l),
(331,584,l)
);
},
{
closed = 1;
nodes = (
(277,200,l),
(264,106,o),
(222,59,o),
(178,59,cs),
(136,59,o),
(121,95,o),
(130,165,cs),
(190,584,l),
(91,584,l),
(30,149,ls),
(11,16,o),
(69,-31,o),
(141,-31,cs),
(204,-31,o),
(287,24,o),
(306,185,c)
);
}
);
width = 436;
}
);
metricRight = i;
unicode = 117;
}
{
glyphname = v;
kernLeft = v;
kernRight = v;
layers = (
{
layerId = m01;
shapes = (
{
closed = 1;
nodes = (
(220,-30,l),
(444,580,l),
(344,580,l),
(222,218,ls),
(199,150,o),
(177,82,o),
(157,14,c),
(182,14,l),
(181,82,o),
(179,150,o),
(174,218,cs),
(150,580,l),
(51,580,l),
(104,-30,l)
);
}
);
width = 413;
},
{
associatedMasterId = m01;
layerId = "379A8022-6BA8-4C03-AE36-419C62C6AAF3";
name = "Oct 13, 22, 13:58";
shapes = (
{
closed = 1;
nodes = (
(198,-26,l),
(422,584,l),
(322,584,l),
(135,18,l),
(160,18,l),
(128,584,l),
(32,584,l),
(82,-26,l)
);
}
);
width = 380;
}
);
unicode = 118;
}
{
glyphname = w;
kernLeft = v;
kernRight = v;
layers = (
{
anchors = (
{
name = top;
pos = (381,580);
}
);
layerId = m01;
shapes = (
{
closed = 1;
nodes = (
(210,-30,l),
(328,321,ls),
(344,368,o),
(364,474,o),
(372,514,c),
(346,522,l),
(345,499,o),
(342,363,o),
(346,300,cs),
(368,-30,l),
(484,-30,l),
(698,580,l),
(598,580,l),
(486,218,ls),
(469,162,o),
(452,108,o),
(435,52,c),
(445,52,l),
(444,108,o),
(441,162,o),
(438,218,cs),
(421,580,l),
(324,580,l),
(212,218,ls),
(195,162,o),
(178,108,o),
(161,52,c),
(171,52,l),
(169,108,o),
(166,162,o),
(164,218,cs),
(150,580,l),
(51,580,l),
(94,-30,l)
);
}
);
width = 667;
},
{
associatedMasterId = m01;
layerId = "430EAF55-5D8F-441A-BC76-40DD77BAA0E1";
name = "Oct 13, 22, 14:02";
shapes = (
{
closed = 1;
nodes = (
(201,-30,l),
(356,477,l),
(328,479,l),
(349,-30,l),
(467,-30,l),
(667,580,l),
(570,580,l),
(404,31,l),
(421,29,l),
(398,580,l),
(306,580,l),
(142,32,l),
(159,30,l),
(136,580,l),
(41,580,l),
(82,-30,l)
);
}
);
width = 626;
}
);
metricLeft = v;
metricRight = v;
unicode = 119;
}
{
glyphname = x;
kernLeft = x;
kernRight = x;
layers = (
{
layerId = m01;
shapes = (
{
closed = 1;
nodes = (
(236,296,l),
(223,312,l),
(143,580,l),
(46,580,l),
(147,269,l),
(159,250,l),
(242,-30,l),
(341,-30,l)
);
},
{
closed = 1;
nodes = (
(70,-30,l),
(221,250,l),
(241,269,l),
(418,580,l),
(319,580,l),
(173,312,l),
(154,296,l),
(-29,-30,l)
);
}
);
width = 391;
}
);
unicode = 120;
}
{
glyphname = y;
kernLeft = v;
kernRight = v;
layers = (
{
anchors = (
{
name = bottom;
pos = (306,-30);
},
{
name = top;
pos = (253,580);
}
);
layerId = m01;
shapes = (
{
closed = 1;
nodes = (
(116,-92,o),
(73,-150,o),
(25,-150,cs),
(1,-150,o),
(-21,-145,o),
(-45,-138,c),
(-59,-224,l),
(-26,-236,o),
(3,-240,o),
(32,-240,cs),
(138,-240,o),
(175,-174,o),
(236,-4,cs),
(444,580,l),
(344,580,l),
(222,204,ls),
(200,136,o),
(177,68,o),
(157,0,c),
(185,0,l),
(184,68,o),
(182,136,o),
(177,204,cs),
(150,580,l),
(51,580,l),
(122,-111,l),
(126,-17,l)
);
}
);
width = 413;
},
{
associatedMasterId = m01;
layerId = "F4D8E6B9-4891-43BB-8247-8D1F18CBCE27";
name = "Oct 13, 22, 14:43";
shapes = (
{
closed = 1;
nodes = (
(-63,-228,l),
(-30,-240,o),
(-7,-245,o),
(22,-245,cs),
(133,-245,o),
(178,-139,o),
(234,32,cs),
(414,580,l),
(316,580,l),
(143,14,l),
(167,12,l),
(131,580,l),
(41,580,l),
(106,-150,l),
(105,-71,l),
(84,-122,o),
(54,-155,o),
(15,-155,cs),
(-9,-155,o),
(-29,-150,o),
(-53,-143,c)
);
}
);
width = 370;
}
);
metricLeft = v;
metricRight = v;
unicode = 121;
}
{
glyphname = z;
kernLeft = z;
kernRight = z;
layers = (
{
anchors = (
{
name = top;
pos = (216,580);
}
);
layerId = m01;
shapes = (
{
closed = 1;
nodes = (
(53,492,l),
(167,492,ls),
(209,492,o),
(261,494,o),
(303,497,c),
(270,530,l),
(-11,38,l),
(-21,-30,l),
(315,-30,l),
(328,58,l),
(210,58,ls),
(176,58,o),
(83,56,o),
(49,55,c),
(82,20,l),
(362,512,l),
(372,580,l),
(66,580,l)
);
}
);
width = 367;
}
);
unicode = 122;
}
{
glyphname = braceleft;
layers = (
{
layerId = m01;
shapes = (
{
closed = 1;
nodes = (
(75,-146,o),
(173,-204,o),
(309,-191,c),
(258,-238,l),
(286,-73,l),
(315,-118,l),
(236,-121,o),
(169,-104,o),
(185,2,cs),
(207,148,ls),
(222,247,o),
(208,302,o),
(121,317,c),
(119,311,l),
(194,303,o),
(241,371,o),
(253,469,cs),
(269,602,ls),
(286,740,o),
(350,738,o),
(427,731,c),
(395,687,l),
(423,852,l),
(445,806,l),
(312,824,o),
(208,789,o),
(187,637,cs),
(164,474,ls),
(153,399,o),
(121,355,o),
(56,355,c),
(45,277,l),
(111,271,o),
(129,230,o),
(118,152,cs),
(94,-13,ls)
);
}
);
width = 366;
}
);
unicode = 123;
}
{
glyphname = bar;
layers = (
{
layerId = m01;
shapes = (
{
closed = 1;
nodes = (
(17,-280,l),
(103,-280,l),
(269,908,l),
(183,908,l)
);
}
);
width = 286;
}
);
unicode = 124;
}
{
glyphname = asciitilde;
layers = (
{
layerId = m01;
shapes = (
{
closed = 1;
nodes = (
(104,207,l),
(114,244,ls),
(119,262,o),
(131,273,o),
(149,273,cs),
(183,273,o),
(291,209,o),
(344,209,cs),
(398,209,o),
(428,240,o),
(446,309,cs),
(455,343,l),
(383,353,l),
(372,315,ls),
(366,295,o),
(356,287,o),
(338,287,cs),
(304,287,o),
(196,351,o),
(145,351,cs),
(91,351,o),
(59,323,o),
(42,258,cs),
(31,217,l)
);
}
);
width = 486;
}
);
unicode = 126;
}
{
glyphname = cent;
layers = (
{
anchors = (
{
name = bottom;
pos = (186,0);
}
);
layerId = m01;
shapes = (
{
closed = 1;
nodes = (
(262,146,l),
(311,197,l),
(304,101,o),
(248,33,o),
(197,33,cs),
(118,33,o),
(106,116,o),
(128,274,cs),
(151,439,o),
(196,516,o),
(257,516,cs),
(331,516,o),
(343,424,o),
(339,359,c),
(290,410,l),
(457,439,l),
(417,358,l),
(429,484,o),
(386,590,o),
(265,590,cs),
(138,590,o),
(66,491,o),
(38,274,cs),
(10,59,o),
(56,-40,o),
(186,-40,cs),
(302,-40,o),
(373,52,o),
(389,191,c),
(431,120,l)
);
},
{
closed = 1;
nodes = (
(335,720,l),
(263,720,l),
(111,-152,l),
(183,-152,l)
);
}
);
width = 414;
},
{
anchors = (
{
name = bottom;
pos = (186,0);
}
);
associatedMasterId = m01;
layerId = "2AB1B3C1-8F63-4F88-B634-9D7E84EC4D4A";
name = "Nov 1, 22, 19:12";
shapes = (
{
closed = 1;
nodes = (
(262,164,l),
(301,197,l),
(294,101,o),
(244,43,o),
(197,43,cs),
(123,43,o),
(113,116,o),
(135,274,cs),
(157,429,o),
(196,508,o),
(257,508,cs),
(323,508,o),
(333,424,o),
(329,359,c),
(290,400,l),
(457,446,l),
(417,358,l),
(429,484,o),
(386,590,o),
(265,590,cs),
(138,590,o),
(66,491,o),
(38,274,cs),
(10,59,o),
(56,-40,o),
(186,-40,cs),
(302,-40,o),
(373,52,o),
(389,191,c),
(431,107,l)
);
},
{
closed = 1;
nodes = (
(360,720,l),
(308,720,l),
(86,-152,l),
(138,-152,l)
);
}
);
width = 414;
}
);
unicode = 162;
}
{
glyphname = sterling;
layers = (
{
layerId = m01;
shapes = (
{
closed = 1;
nodes = (
(544,672,l),
(466,599,l),
(466,657,o),
(427,759,o),
(320,759,cs),
(230,759,o),
(160,701,o),
(144,542,cs),
(119,294,ls),
(107,175,o),
(83,75,o),
(14,52,c),
(39,0,l),
(160,46,o),
(199,137,o),
(212,277,cs),
(232,495,ls),
(242,604,o),
(256,671,o),
(316,671,cs),
(364,671,o),
(383,610,o),
(382,561,c),
(352,582,l)
);
},
{
closed = 1;
nodes = (
(1,-30,l),
(353,-30,l),
(376,56,l),
(41,56,l),
(14,52,l)
);
},
{
closed = 1;
nodes = (
(69,315,l),
(341,315,l),
(353,393,l),
(81,393,l)
);
}
);
width = 442;
}
);
unicode = 163;
}
{
glyphname = currency;
layers = (
{
layerId = m01;
shapes = (
{
closed = 1;
nodes = (
(360,41,o),
(426,120,o),
(449,305,cs),
(472,489,o),
(424,566,o),
(311,566,cs),
(202,566,o),
(138,487,o),
(110,301,cs),
(83,119,o),
(138,41,o),
(248,41,cs)
);
},
{
closed = 1;
nodes = (
(188,108,o),
(160,168,o),
(183,305,cs),
(205,440,o),
(239,499,o),
(304,499,cs),
(368,499,o),
(396,440,o),
(376,302,cs),
(356,168,o),
(317,108,o),
(253,108,cs)
);
},
{
closed = 1;
nodes = (
(420,469,l),
(508,604,l),
(450,646,l),
(375,533,l)
);
},
{
closed = 1;
nodes = (
(243,527,l),
(191,650,l),
(123,611,l),
(186,461,l)
);
},
{
closed = 1;
nodes = (
(126,149,l),
(44,23,l),
(104,-22,l),
(176,90,l)
);
},
{
closed = 1;
nodes = (
(323,91,l),
(373,-20,l),
(445,21,l),
(382,161,l)
);
},
{
closed = 1;
nodes = (
(176,461,l),
(333,91,l)
);
}
);
width = 553;
}
);
unicode = 164;
}
{
glyphname = yen;
layers = (
{
layerId = m01;
shapes = (
{
closed = 1;
nodes = (
(73,205,l),
(395,205,l),
(407,283,l),
(85,283,l)
);
},
{
closed = 1;
nodes = (
(93,335,l),
(415,335,l),
(427,413,l),
(105,413,l)
);
},
{
closed = 1;
nodes = (
(301,347,l),
(498,758,l),
(392,758,l),
(284,488,ls),
(265,441,o),
(249,397,o),
(241,372,c),
(278,372,l),
(274,398,o),
(263,462,o),
(258,489,cs),
(205,758,l),
(104,758,l),
(202,347,l),
(148,-30,l),
(248,-30,l)
);
}
);
width = 472;
},
{
associatedMasterId = m01;
layerId = "2D9C4FD8-4928-4BA8-B810-1B1232C06ECC";
name = "Oct 17, 22, 14:33";
shapes = (
{
closed = 1;
nodes = (
(272,358,l),
(304,391,l),
(469,758,l),
(361,758,l),
(248,462,ls),
(237,433,o),
(216,383,o),
(206,358,c),
(243,354,l),
(238,380,o),
(227,433,o),
(222,463,cs),
(176,758,l),
(74,758,l),
(149,391,l),
(173,354,l),
(118,-30,l),
(218,-30,l)
);
},
{
closed = 1;
nodes = (
(43,207,l),
(365,207,l),
(377,285,l),
(55,285,l)
);
},
{
closed = 1;
nodes = (
(64,347,l),
(386,347,l),
(398,425,l),
(263,425,l),
(229,403,l),
(199,425,l),
(76,425,l)
);
}
);
width = 600;
},
{
associatedMasterId = m01;
layerId = "5AAB71F7-2DB5-4473-ABF3-E67966634F8E";
name = "Oct 17, 22, 14:35";
shapes = (
{
closed = 1;
nodes = (
(72,175,l),
(394,175,l),
(406,253,l),
(84,253,l)
);
},
{
closed = 1;
nodes = (
(93,315,l),
(415,315,l),
(427,393,l),
(105,393,l)
);
},
{
closed = 1;
nodes = (
(297,317,l),
(498,758,l),
(392,758,l),
(279,472,ls),
(261,425,o),
(244,383,o),
(236,358,c),
(273,354,l),
(269,380,o),
(258,446,o),
(253,473,cs),
(205,758,l),
(104,758,l),
(198,317,l),
(148,-30,l),
(248,-30,l)
);
}
);
width = 472;
}
);
unicode = 165;
}
{
glyphname = brokenbar;
layers = (
{
layerId = m01;
shapes = (
{
closed = 1;
nodes = (
(109,380,l),
(195,380,l),
(269,908,l),
(183,908,l)
);
},
{
closed = 1;
nodes = (
(17,-280,l),
(103,-280,l),
(177,248,l),
(91,248,l)
);
}
);
width = 286;
}
);
unicode = 166;
}
{
glyphname = section;
layers = (
{
layerId = m01;
shapes = (
{
closed = 1;
nodes = (
(305,134,l),
(377,168,o),
(436,212,o),
(448,284,cs),
(479,462,o),
(208,530,o),
(232,636,cs),
(243,679,o),
(269,692,o),
(297,692,cs),
(336,692,o),
(369,661,o),
(352,597,c),
(331,616,l),
(465,631,l),
(436,599,l),
(467,718,o),
(389,778,o),
(301,778,cs),
(230,778,o),
(159,744,o),
(135,659,cs),
(86,481,o),
(372,423,o),
(355,284,cs),
(351,249,o),
(324,223,o),
(282,211,c)
);
},
{
closed = 1;
nodes = (
(193,578,l),
(138,558,o),
(84,521,o),
(68,464,cs),
(20,289,o),
(292,245,o),
(261,112,cs),
(251,67,o),
(221,49,o),
(191,49,cs),
(147,49,o),
(108,86,o),
(120,165,c),
(140,140,l),
(6,124,l),
(32,158,l),
(9,23,o),
(89,-40,o),
(179,-40,cs),
(258,-40,o),
(339,7,o),
(362,106,cs),
(401,279,o),
(138,340,o),
(159,455,cs),
(165,487,o),
(194,512,o),
(231,519,c)
);
}
);
width = 472;
},
{
associatedMasterId = m01;
layerId = "16AC9429-21AC-4940-B2BC-91B01DDF8540";
name = "Oct 17, 22, 16:14";
shapes = (
{
closed = 1;
nodes = (
(348,134,l),
(419,168,o),
(476,212,o),
(486,284,cs),
(511,462,o),
(248,530,o),
(269,636,cs),
(278,679,o),
(304,692,o),
(332,692,cs),
(371,692,o),
(405,661,o),
(390,597,c),
(368,616,l),
(502,631,l),
(474,599,l),
(501,718,o),
(421,778,o),
(333,778,cs),
(262,778,o),
(191,742,o),
(171,657,cs),
(128,475,o),
(401,421,o),
(389,288,cs),
(386,253,o),
(364,228,o),
(323,216,c)
);
},
{
closed = 1;
nodes = (
(232,578,l),
(177,558,o),
(125,521,o),
(111,464,cs),
(69,289,o),
(331,245,o),
(305,112,cs),
(297,67,o),
(267,49,o),
(237,49,cs),
(193,49,o),
(153,86,o),
(162,165,c),
(183,140,l),
(50,124,l),
(74,158,l),
(56,23,o),
(138,-40,o),
(228,-40,cs),
(307,-40,o),
(388,7,o),
(406,106,cs),
(439,284,o),
(184,344,o),
(205,450,cs),
(212,486,o),
(239,502,o),
(272,509,c)
);
}
);
width = 600;
}
);
unicode = 167;
}
{
glyphname = copyright;
layers = (
{
layerId = m01;
shapes = (
{
closed = 1;
nodes = (
(362,263,l),
(349,217,o),
(321,194,o),
(295,194,cs),
(254,194,o),
(242,245,o),
(259,366,cs),
(276,487,o),
(305,538,o),
(341,538,cs),
(371,538,o),
(385,511,o),
(390,474,c),
(468,488,l),
(461,559,o),
(424,613,o),
(349,613,cs),
(254,613,o),
(198,536,o),
(176,366,cs),
(154,197,o),
(190,120,o),
(287,120,cs),
(364,120,o),
(415,171,o),
(437,252,c)
);
},
{
closed = 1;
nodes = (
(423,-40,o),
(521,83,o),
(560,370,cs),
(599,656,o),
(536,778,o),
(371,778,cs),
(210,778,o),
(112,654,o),
(70,364,cs),
(30,81,o),
(93,-40,o),
(257,-40,cs)
);
},
{
closed = 1;
nodes = (
(156,23,o),
(99,119,o),
(138,371,cs),
(177,620,o),
(255,715,o),
(365,715,cs),
(478,715,o),
(531,618,o),
(492,363,cs),
(454,117,o),
(375,23,o),
(264,23,cs)
);
}
);
width = 589;
},
{
associatedMasterId = m01;
layerId = "BB1B92FE-7B0A-4BB7-9F40-16949C7D0D65";
name = "Oct 17, 22, 16:35";
shapes = (
{
closed = 1;
nodes = (
(623,-40,o),
(832,142,o),
(864,370,cs),
(896,596,o),
(738,778,o),
(512,778,cs),
(285,778,o),
(76,596,o),
(45,370,cs),
(13,142,o),
(169,-40,o),
(397,-40,cs)
);
},
{
closed = 1;
nodes = (
(138,561,o),
(309,712,o),
(503,712,cs),
(697,712,o),
(824,561,o),
(797,369,cs),
(770,176,o),
(601,26,o),
(406,27,cs),
(213,26,o),
(84,175,o),
(111,369,cs)
);
}
);
width = 600;
},
{
associatedMasterId = m01;
layerId = "8C4BEF93-A099-42A1-9E72-33DF539A20C0";
name = "Oct 17, 22, 16:41";
shapes = (
{
alignment = -1;
pos = (49,151);
ref = c;
scale = (0.7835,0.7835);
},
{
closed = 1;
nodes = (
(311,-40,o),
(392,83,o),
(431,370,cs),
(470,656,o),
(422,778,o),
(271,778,cs),
(124,778,o),
(43,654,o),
(1,364,cs),
(-39,81,o),
(9,-40,o),
(159,-40,cs)
);
},
{
closed = 1;
nodes = (
(45,5,o),
(11,111,o),
(51,371,cs),
(91,628,o),
(156,733,o),
(268,733,cs),
(387,733,o),
(421,625,o),
(381,363,cs),
(342,109,o),
(277,5,o),
(164,5,cs)
);
}
);
width = 341;
},
{
associatedMasterId = m01;
layerId = "B12AE8B7-0B9D-41AE-A05A-E13A7DC8DD13";
name = "Nov 3, 22, 13:15";
shapes = (
{
closed = 1;
nodes = (
(348,265,l),
(371,305,l),
(366,231,o),
(330,194,o),
(297,194,cs),
(256,194,o),
(244,245,o),
(261,366,cs),
(278,487,o),
(307,538,o),
(343,538,cs),
(383,538,o),
(396,489,o),
(393,432,c),
(370,470,l),
(501,493,l),
(470,432,l),
(479,530,o),
(445,613,o),
(351,613,cs),
(256,613,o),
(200,536,o),
(178,366,cs),
(156,197,o),
(192,120,o),
(289,120,cs),
(380,120,o),
(435,192,o),
(448,301,c),
(461,249,l)
);
},
{
closed = 1;
nodes = (
(423,-40,o),
(521,83,o),
(560,370,cs),
(599,656,o),
(536,778,o),
(371,778,cs),
(210,778,o),
(112,654,o),
(70,364,cs),
(30,81,o),
(93,-40,o),
(257,-40,cs)
);
},
{
closed = 1;
nodes = (
(134,5,o),
(80,111,o),
(120,371,cs),
(160,628,o),
(245,733,o),
(367,733,cs),
(496,733,o),
(550,625,o),
(510,363,cs),
(471,109,o),
(386,5,o),
(263,5,cs)
);
}
);
width = 589;
}
);
unicode = 169;
}
{
glyphname = ordfeminine;
layers = (
{
layerId = m01;
shapes = (
{
closed = 1;
nodes = (
(257,388,o),
(231,344,o),
(192,344,cs),
(150,344,o),
(144,412,o),
(157,508,cs),
(169,598,o),
(197,666,o),
(239,666,cs),
(274,666,o),
(294,630,o),
(288,576,c),
(316,586,l),
(326,684,o),
(293,740,o),
(231,740,cs),
(153,740,o),
(91,661,o),
(72,516,cs),
(48,335,o),
(94,270,o),
(171,270,cs),
(231,270,o),
(282,345,o),
(296,431,c),
(267,438,l)
);
},
{
closed = 1;
nodes = (
(391,733,l),
(308,733,l),
(254,349,l),
(248,278,l),
(327,278,l)
);
}
);
width = 369;
}
);
unicode = 170;
}
{
glyphname = logicalnot;
layers = (
{
layerId = m01;
shapes = (
{
closed = 1;
nodes = (
(60,305,l),
(361,305,l),
(336,160,l),
(413,160,l),
(450,380,l),
(72,380,l)
);
}
);
width = 510;
}
);
unicode = 172;
}
{
glyphname = registered;
layers = (
{
layerId = m01;
shapes = (
{
closed = 1;
nodes = (
(336,235,o),
(410,317,o),
(433,512,cs),
(458,706,o),
(403,786,o),
(285,786,cs),
(170,786,o),
(99,704,o),
(70,508,cs),
(41,316,o),
(103,235,o),
(218,235,cs)
);
},
{
closed = 1;
nodes = (
(137,280,o),
(95,340,o),
(120,512,cs),
(145,682,o),
(197,741,o),
(281,741,cs),
(366,741,o),
(409,681,o),
(383,508,cs),
(357,338,o),
(306,280,o),
(222,280,cs)
);
},
{
closed = 1;
nodes = (
(265,627,ls),
(284,627,o),
(300,609,o),
(296,583,cs),
(291,550,o),
(270,538,o),
(241,538,cs),
(206,538,l),
(206,488,l),
(241,488,ls),
(306,488,o),
(351,529,o),
(358,581,cs),
(367,637,o),
(337,674,o),
(267,674,cs),
(233,674,l),
(232,627,l)
);
},
{
closed = 1;
nodes = (
(255,674,l),
(195,674,l),
(144,354,l),
(204,354,l)
);
},
{
closed = 1;
nodes = (
(223,523,l),
(268,354,l),
(331,354,l),
(278,537,l)
);
}
);
width = 499;
},
{
associatedMasterId = m01;
layerId = "347B0F70-86D5-44C0-86B8-759D55C37104";
name = "Nov 3, 22, 13:16";
shapes = (
{
closed = 1;
nodes = (
(334,243,o),
(403,323,o),
(426,512,cs),
(450,700,o),
(399,778,o),
(284,778,cs),
(172,778,o),
(105,698,o),
(77,508,cs),
(49,322,o),
(107,243,o),
(219,243,cs)
);
},
{
closed = 1;
nodes = (
(137,280,o),
(95,340,o),
(120,512,cs),
(145,682,o),
(197,741,o),
(281,741,cs),
(366,741,o),
(409,681,o),
(383,508,cs),
(357,338,o),
(306,280,o),
(222,280,cs)
);
},
{
closed = 1;
nodes = (
(265,627,ls),
(284,627,o),
(300,609,o),
(296,583,cs),
(291,550,o),
(270,538,o),
(241,538,cs),
(206,538,l),
(206,488,l),
(241,488,ls),
(306,488,o),
(351,529,o),
(358,581,cs),
(367,637,o),
(337,674,o),
(267,674,cs),
(233,674,l),
(232,627,l)
);
},
{
closed = 1;
nodes = (
(255,674,l),
(195,674,l),
(144,354,l),
(204,354,l)
);
},
{
closed = 1;
nodes = (
(223,523,l),
(268,354,l),
(331,354,l),
(278,537,l)
);
}
);
width = 499;
}
);
unicode = 174;
}
{
glyphname = degree;
layers = (
{
layerId = m01;
shapes = (
{
closed = 1;
nodes = (
(231,582,o),
(274,624,o),
(279,692,cs),
(284,745,o),
(255,778,o),
(204,778,cs),
(142,778,o),
(99,736,o),
(94,670,cs),
(89,616,o),
(118,582,o),
(169,582,cs)
);
},
{
closed = 1;
nodes = (
(150,620,o),
(135,639,o),
(138,670,cs),
(142,712,o),
(163,740,o),
(196,740,cs),
(223,740,o),
(238,719,o),
(234,685,cs),
(231,646,o),
(210,620,o),
(177,620,cs)
);
}
);
width = 263;
}
);
unicode = 176;
}
{
glyphname = plusminus;
layers = (
{
layerId = m01;
shapes = (
{
closed = 1;
nodes = (
(81,300,l),
(462,300,l),
(472,375,l),
(91,375,l)
);
},
{
closed = 1;
nodes = (
(342,555,l),
(264,555,l),
(200,100,l),
(283,100,l)
);
},
{
closed = 1;
nodes = (
(40,-30,l),
(423,-30,l),
(434,45,l),
(51,45,l)
);
}
);
width = 512;
}
);
unicode = 177;
}
{
glyphname = twosuperior;
layers = (
{
layerId = m01;
shapes = (
{
closed = 1;
nodes = (
(257,369,l),
(274,445,l),
(94,445,l),
(136,399,l),
(159,533,o),
(271,546,o),
(303,672,cs),
(317,732,o),
(291,797,o),
(204,797,cs),
(119,797,o),
(81,729,o),
(77,662,c),
(75,691,l),
(173,668,l),
(153,653,l),
(158,712,o),
(176,731,o),
(196,731,cs),
(219,731,o),
(228,710,o),
(218,673,cs),
(189,566,o),
(69,560,o),
(42,369,c)
);
}
);
width = 282;
}
);
unicode = 178;
}
{
glyphname = threesuperior;
layers = (
{
layerId = m01;
shapes = (
{
closed = 1;
nodes = (
(32,478,l),
(53,489,l),
(41,395,o),
(90,362,o),
(149,362,cs),
(226,362,o),
(272,404,o),
(285,492,cs),
(295,564,o),
(265,616,o),
(188,614,c),
(181,589,l),
(243,597,o),
(286,635,o),
(297,691,cs),
(308,745,o),
(283,797,o),
(200,797,cs),
(117,797,o),
(89,736,o),
(80,674,c),
(78,714,l),
(180,693,l),
(148,664,l),
(159,721,o),
(173,737,o),
(194,737,cs),
(212,737,o),
(223,720,o),
(216,691,cs),
(207,654,o),
(184,631,o),
(141,624,c),
(129,569,l),
(197,575,o),
(212,542,o),
(202,488,cs),
(193,437,o),
(174,427,o),
(156,427,cs),
(133,427,o),
(119,454,o),
(128,497,c),
(140,491,l)
);
}
);
width = 287;
}
);
unicode = 179;
}
{
glyphname = paragraph;
layers = (
{
layerId = m01;
shapes = (
{
closed = 1;
nodes = (
(106,-230,l),
(188,-230,l),
(307,610,l),
(241,610,ls),
(163,610,o),
(73,568,o),
(53,454,cs),
(37,365,o),
(91,293,o),
(180,293,c)
);
},
{
closed = 1;
nodes = (
(447,610,l),
(365,610,l),
(246,-230,l),
(328,-230,l)
);
},
{
closed = 1;
nodes = (
(228,544,l),
(500,544,l),
(514,610,l),
(242,610,l)
);
}
);
width = 514;
}
);
unicode = 182;
}
{
glyphname = onesuperior;
layers = (
{
layerId = m01;
shapes = (
{
closed = 1;
nodes = (
(235,794,l),
(182,798,l),
(156,776,o),
(103,753,o),
(72,753,c),
(87,792,l),
(78,648,l),
(61,689,l),
(103,687,o),
(149,698,o),
(177,713,c),
(145,728,l),
(95,369,l),
(175,369,l)
);
}
);
width = 224;
}
);
unicode = 185;
}
{
glyphname = ordmasculine;
layers = (
{
layerId = m01;
shapes = (
{
closed = 1;
nodes = (
(286,270,o),
(340,344,o),
(361,504,cs),
(382,666,o),
(348,740,o),
(245,740,cs),
(145,740,o),
(91,666,o),
(70,504,cs),
(49,344,o),
(84,270,o),
(186,270,cs)
);
},
{
closed = 1;
nodes = (
(152,343,o),
(140,396,o),
(155,504,cs),
(170,614,o),
(199,667,o),
(238,667,cs),
(278,667,o),
(292,614,o),
(276,504,cs),
(260,396,o),
(233,343,o),
(192,343,cs)
);
}
);
width = 371;
}
);
unicode = 186;
}
{
glyphname = onequarter;
layers = (
{
layerId = m01;
shapes = (
{
closed = 1;
nodes = (
(616,778,l),
(540,778,l),
(32,-30,l),
(108,-30,l)
);
},
{
closed = 1;
nodes = (
(503,346,o),
(490,283,o),
(486,254,cs),
(445,-30,l),
(522,-30,l),
(586,424,l),
(498,424,l),
(449,334,o),
(374,224,o),
(316,141,c),
(305,82,l),
(572,82,l),
(584,149,l),
(360,149,l),
(376,128,l),
(426,199,o),
(490,293,o),
(531,372,c),
(509,370,l)
);
},
{
closed = 1;
nodes = (
(254,784,l),
(201,788,l),
(178,769,o),
(135,749,o),
(104,744,c),
(100,679,l),
(136,680,o),
(172,690,o),
(196,703,c),
(164,718,l),
(106,339,l),
(186,339,l)
);
}
);
width = 644;
}
);
unicode = 188;
}
{
glyphname = onehalf;
layers = (
{
layerId = m01;
shapes = (
{
closed = 1;
nodes = (
(616,778,l),
(540,778,l),
(32,-30,l),
(108,-30,l)
);
},
{
closed = 1;
nodes = (
(254,784,l),
(201,788,l),
(178,769,o),
(135,749,o),
(104,744,c),
(100,679,l),
(136,680,o),
(172,690,o),
(196,703,c),
(164,718,l),
(106,339,l),
(186,339,l)
);
},
{
closed = 1;
nodes = (
(567,-31,l),
(584,45,l),
(400,45,l),
(436,-1,l),
(459,133,o),
(581,170,o),
(613,296,cs),
(627,356,o),
(597,421,o),
(510,421,cs),
(437,421,o),
(395,370,o),
(383,314,c),
(457,296,l),
(465,340,o),
(484,355,o),
(502,355,cs),
(525,355,o),
(538,334,o),
(528,297,cs),
(499,190,o),
(371,160,o),
(344,-31,c)
);
}
);
width = 658;
}
);
unicode = 189;
}
{
glyphname = threequarters;
layers = (
{
layerId = m01;
shapes = (
{
closed = 1;
nodes = (
(659,778,l),
(583,778,l),
(75,-30,l),
(151,-30,l)
);
},
{
closed = 1;
nodes = (
(526,346,o),
(513,283,o),
(509,254,cs),
(468,-30,l),
(545,-30,l),
(609,424,l),
(521,424,l),
(472,334,o),
(397,224,o),
(339,141,c),
(328,82,l),
(595,82,l),
(607,149,l),
(383,149,l),
(399,128,l),
(449,199,o),
(513,293,o),
(554,372,c),
(532,370,l)
);
},
{
closed = 1;
nodes = (
(43,449,l),
(64,460,l),
(52,366,o),
(105,331,o),
(164,330,cs),
(244,328,o),
(293,375,o),
(306,463,cs),
(316,535,o),
(278,601,o),
(201,599,c),
(194,574,l),
(256,582,o),
(309,620,o),
(320,676,cs),
(331,734,o),
(305,788,o),
(216,788,cs),
(133,788,o),
(102,725,o),
(93,663,c),
(91,703,l),
(193,682,l),
(161,653,l),
(172,710,o),
(190,728,o),
(211,728,cs),
(236,728,o),
(246,709,o),
(239,676,cs),
(231,639,o),
(197,616,o),
(154,609,c),
(142,554,l),
(210,560,o),
(233,513,o),
(223,459,cs),
(214,408,o),
(195,393,o),
(170,395,cs),
(144,397,o),
(130,425,o),
(139,468,c),
(151,462,l)
);
}
);
width = 667;
}
);
unicode = 190;
}
{
glyphname = AE;
kernLeft = A;
kernRight = E;
layers = (
{
layerId = m01;
shapes = (
{
closed = 1;
nodes = (
(154,239,l),
(343,239,l),
(357,334,l),
(204,334,l)
);
},
{
closed = 1;
nodes = (
(412,713,l),
(406,684,o),
(385,578,o),
(379,537,cs),
(291,-30,l),
(617,-30,l),
(629,66,l),
(407,66,l),
(443,331,l),
(621,331,l),
(633,427,l),
(457,427,l),
(494,682,l),
(707,682,l),
(719,778,l),
(386,778,l),
(-45,-30,l),
(62,-30,l),
(372,594,ls),
(382,613,o),
(414,684,o),
(428,713,c)
);
}
);
width = 669;
},
{
associatedMasterId = m01;
layerId = "C66D1424-FC4F-4716-9080-CB72E78E7AA9";
name = "Oct 17, 22, 12:10";
shapes = (
{
closed = 1;
nodes = (
(184,239,l),
(373,239,l),
(387,334,l),
(234,334,l)
);
},
{
closed = 1;
nodes = (
(438,713,l),
(432,684,o),
(425,651,o),
(422,630,cs),
(321,-30,l),
(687,-30,l),
(699,66,l),
(437,66,l),
(473,331,l),
(691,331,l),
(703,427,l),
(487,427,l),
(524,682,l),
(777,682,l),
(789,778,l),
(396,778,l),
(-45,-30,l),
(62,-30,l),
(404,634,ls),
(414,653,o),
(429,685,o),
(443,713,c)
);
}
);
width = 751;
}
);
metricLeft = A;
metricRight = E;
unicode = 198;
}
{
glyphname = Eth;
layers = (
{
layerId = m01;
shapes = (
{
pos = (11,0);
ref = D;
},
{
closed = 1;
nodes = (
(18,346,l),
(311,346,l),
(327,436,l),
(34,436,l)
);
}
);
width = 525;
}
);
metricRight = O;
unicode = 208;
}
{
glyphname = multiply;
layers = (
{
layerId = m01;
shapes = (
{
closed = 1;
nodes = (
(430,538,l),
(372,580,l),
(3,13,l),
(63,-32,l)
);
},
{
closed = 1;
nodes = (
(133,580,l),
(65,541,l),
(308,-30,l),
(380,11,l)
);
}
);
width = 452;
}
);
unicode = 215;
}
{
glyphname = Oslash;
kernLeft = O;
kernRight = O;
layers = (
{
layerId = m01;
shapes = (
{
closed = 1;
nodes = (
(536,859,l),
(460,859,l),
(45,-111,l),
(121,-111,l)
);
},
{
closed = 1;
nodes = (
(389,-40,o),
(481,91,o),
(518,372,cs),
(556,658,o),
(510,788,o),
(343,788,cs),
(193,788,o),
(101,658,o),
(62,372,cs),
(24,91,o),
(73,-40,o),
(237,-40,cs)
);
},
{
closed = 1;
nodes = (
(156,51,o),
(128,116,o),
(166,372,cs),
(198,591,o),
(244,698,o),
(336,698,cs),
(426,698,o),
(452,631,o),
(414,372,cs),
(382,156,o),
(338,51,o),
(246,51,cs)
);
}
);
width = 600;
}
);
unicode = 216;
}
{
glyphname = Thorn;
kernLeft = H;
kernRight = R;
layers = (
{
layerId = m01;
shapes = (
{
closed = 1;
nodes = (
(277,544,ls),
(364,544,o),
(406,498,o),
(395,414,cs),
(383,323,o),
(331,273,o),
(220,273,cs),
(98,273,l),
(98,178,l),
(220,178,ls),
(372,178,o),
(484,261,o),
(502,401,cs),
(522,553,o),
(443,638,o),
(281,638,cs),
(153,638,l),
(153,544,l)
);
},
{
closed = 1;
nodes = (
(224,778,l),
(124,778,l),
(11,-30,l),
(111,-30,l)
);
}
);
width = 516;
}
);
metricLeft = H;
unicode = 222;
}
{
glyphname = germandbls;
kernLeft = l;
kernRight = German;
layers = (
{
layerId = m01;
shapes = (
{
closed = 1;
nodes = (
(-5,-30,l),
(88,-30,l),
(163,521,ls),
(184,672,o),
(220,709,o),
(274,709,cs),
(318,709,o),
(345,667,o),
(337,608,cs),
(329,551,o),
(284,488,o),
(212,474,c),
(196,401,l),
(306,294,o),
(346,208,o),
(336,125,cs),
(330,76,o),
(302,46,o),
(265,46,cs),
(239,46,o),
(208,60,o),
(178,92,c),
(130,29,l),
(162,-15,o),
(217,-40,o),
(271,-40,cs),
(344,-40,o),
(416,5,o),
(432,113,cs),
(449,228,o),
(388,353,o),
(268,451,c),
(258,414,l),
(370,447,o),
(425,527,o),
(436,607,cs),
(450,706,o),
(384,799,o),
(275,799,cs),
(140,799,o),
(93,669,o),
(77,552,cs)
);
}
);
width = 472;
},
{
associatedMasterId = m01;
layerId = "1B2B0059-0608-46D0-81E2-DEA3F23DA441";
name = "Oct 14, 22, 12:50";
shapes = (
{
closed = 1;
nodes = (
(3,-30,l),
(100,-30,l),
(182,561,ls),
(202,702,o),
(251,717,o),
(305,717,cs),
(377,717,o),
(409,638,o),
(393,575,c),
(271,463,ls),
(226,422,o),
(220,392,o),
(250,359,cs),
(353,248,o),
(397,166,o),
(375,99,cs),
(366,72,o),
(343,50,o),
(307,50,cs),
(268,50,o),
(238,66,o),
(196,92,c),
(151,12,l),
(195,-21,o),
(251,-40,o),
(304,-40,cs),
(375,-40,o),
(440,-7,o),
(467,67,cs),
(511,190,o),
(419,312,o),
(330,404,c),
(480,538,l),
(519,663,o),
(454,800,o),
(306,800,cs),
(178,800,o),
(106,720,o),
(93,623,cs)
);
}
);
width = 600;
},
{
associatedMasterId = m01;
layerId = "F3ED4100-BEAF-43CA-BEAA-B96E597EC0F4";
name = "Oct 14, 22, 12:57";
shapes = (
{
closed = 1;
nodes = (
(15,-30,l),
(112,-30,l),
(190,532,ls),
(210,673,o),
(241,717,o),
(305,717,cs),
(367,717,o),
(394,665,o),
(386,606,cs),
(378,549,o),
(326,483,o),
(236,459,c),
(227,392,l),
(346,285,o),
(387,185,o),
(378,122,cs),
(368,48,o),
(295,22,o),
(192,86,c),
(151,12,l),
(195,-21,o),
(252,-40,o),
(304,-40,cs),
(400,-40,o),
(466,17,o),
(478,103,cs),
(492,198,o),
(440,327,o),
(299,455,c),
(289,411,l),
(409,444,o),
(474,525,o),
(485,605,cs),
(499,704,o),
(433,800,o),
(306,800,cs),
(171,800,o),
(114,690,o),
(98,573,cs)
);
}
);
width = 600;
},
{
associatedMasterId = m01;
layerId = "4EABF316-65C9-4FFD-B115-3F2ADF8BBE76";
name = "Oct 14, 22, 13:00";
shapes = (
{
closed = 1;
nodes = (
(-3,-30,l),
(94,-30,l),
(172,532,ls),
(192,673,o),
(223,717,o),
(287,717,cs),
(349,717,o),
(376,668,o),
(368,609,cs),
(360,552,o),
(305,499,o),
(225,485,c),
(209,412,l),
(328,305,o),
(371,215,o),
(361,132,cs),
(349,33,o),
(258,15,o),
(134,124,c),
(204,127,l),
(111,-27,l),
(110,31,l),
(156,-13,o),
(225,-40,o),
(286,-40,cs),
(382,-40,o),
(447,19,o),
(461,113,cs),
(478,228,o),
(412,370,o),
(281,468,c),
(271,431,l),
(391,464,o),
(456,528,o),
(467,608,cs),
(481,707,o),
(415,800,o),
(288,800,cs),
(153,800,o),
(96,690,o),
(80,573,cs)
);
}
);
width = 501;
},
{
associatedMasterId = m01;
layerId = "9818C591-92A3-4435-9055-59F3C2FEAA98";
name = "Oct 14, 22, 13:01";
shapes = (
{
closed = 1;
nodes = (
(-3,-30,l),
(94,-30,l),
(172,532,ls),
(192,673,o),
(223,717,o),
(277,717,cs),
(329,717,o),
(356,668,o),
(348,609,cs),
(340,552,o),
(295,499,o),
(215,485,c),
(199,412,l),
(318,305,o),
(351,215,o),
(341,132,cs),
(329,33,o),
(248,15,o),
(124,124,c),
(214,127,l),
(121,-27,l),
(100,31,l),
(146,-13,o),
(215,-40,o),
(276,-40,cs),
(372,-40,o),
(427,19,o),
(441,113,cs),
(458,228,o),
(402,370,o),
(271,468,c),
(261,431,l),
(381,464,o),
(436,528,o),
(447,608,cs),
(461,707,o),
(395,800,o),
(278,800,cs),
(153,800,o),
(96,690,o),
(80,573,cs)
);
}
);
width = 481;
}
);
unicode = 223;
}
{
glyphname = ae;
kernLeft = a;
kernRight = e;
layers = (
{
layerId = m01;
shapes = (
{
closed = 1;
nodes = (
(431,252,o),
(522,258,o),
(641,260,c),
(672,469,o),
(651,590,o),
(515,590,cs),
(452,590,o),
(401,557,o),
(366,482,c),
(397,480,l),
(375,562,o),
(320,590,o),
(256,590,cs),
(176,590,o),
(118,533,o),
(92,459,c),
(174,432,l),
(189,481,o),
(223,506,o),
(252,506,cs),
(288,506,o),
(322,472,o),
(314,407,cs),
(304,326,l),
(401,303,l),
(422,426,o),
(457,500,o),
(507,500,cs),
(565,500,o),
(564,413,o),
(545,300,c),
(586,344,l),
(487,337,o),
(432,336,o),
(359,340,cs),
(137,353,o),
(38,273,o),
(20,145,cs),
(6,44,o),
(55,-40,o),
(154,-40,cs),
(215,-40,o),
(290,12,o),
(315,119,c),
(292,116,l),
(301,21,o),
(344,-40,o),
(437,-40,cs),
(523,-40,o),
(589,33,o),
(621,136,c),
(531,158,l),
(515,101,o),
(484,50,o),
(446,50,cs),
(374,50,o),
(380,159,o),
(396,271,c),
(298,288,l),
(290,221,ls),
(277,111,o),
(228,48,o),
(176,48,cs),
(132,48,o),
(111,98,o),
(120,151,cs),
(138,254,o),
(235,270,o),
(312,263,cs)
);
}
);
width = 677;
},
{
associatedMasterId = m01;
layerId = "1D39AE4F-2F07-466B-B559-61F47F099421";
name = "Oct 17, 22, 12:14";
shapes = (
{
closed = 1;
nodes = (
(432,253,o),
(551,258,o),
(670,260,c),
(697,469,o),
(670,590,o),
(524,590,cs),
(453,590,o),
(402,557,o),
(367,482,c),
(398,480,l),
(376,562,o),
(321,590,o),
(247,590,cs),
(159,590,o),
(101,533,o),
(75,459,c),
(157,432,l),
(172,481,o),
(206,506,o),
(243,506,cs),
(289,506,o),
(323,472,o),
(315,407,cs),
(305,326,l),
(402,303,l),
(423,426,o),
(458,500,o),
(516,500,cs),
(584,500,o),
(589,413,o),
(574,300,c),
(615,344,l),
(516,337,o),
(433,336,o),
(360,340,cs),
(128,353,o),
(21,273,o),
(3,145,cs),
(-11,44,o),
(41,-40,o),
(140,-40,cs),
(212,-40,o),
(301,12,o),
(316,119,c),
(293,116,l),
(302,21,o),
(345,-40,o),
(446,-40,cs),
(542,-40,o),
(614,33,o),
(650,136,c),
(560,158,l),
(540,101,o),
(503,50,o),
(455,50,cs),
(375,50,o),
(381,159,o),
(397,271,c),
(299,288,l),
(291,221,ls),
(278,111,o),
(229,48,o),
(167,48,cs),
(115,48,o),
(94,98,o),
(103,151,cs),
(121,254,o),
(226,270,o),
(313,263,cs)
);
}
);
width = 706;
}
);
metricLeft = a;
metricRight = e;
unicode = 230;
}
{
glyphname = eth;
layers = (
{
layerId = m01;
shapes = (
{
closed = 1;
nodes = (
(325,611,o),
(255,723,o),
(177,782,c),
(220,838,l),
(425,713,o),
(442,442,o),
(413,263,cs),
(379,56,o),
(315,-40,o),
(187,-40,cs),
(57,-40,o),
(13,56,o),
(37,263,cs),
(63,490,o),
(152,570,o),
(228,570,cs),
(326,570,o),
(354,464,o),
(356,406,c),
(328,466,l)
);
},
{
closed = 1;
nodes = (
(331,385,o),
(315,480,o),
(251,480,cs),
(196,480,o),
(157,428,o),
(137,263,cs),
(119,117,o),
(134,50,o),
(194,50,cs),
(255,50,o),
(291,116,o),
(313,263,cs)
);
},
{
closed = 1;
nodes = (
(122,655,l),
(429,798,l),
(436,719,l),
(130,577,l)
);
}
);
width = 461;
}
);
metricLeft = o;
metricRight = o;
unicode = 240;
}
{
glyphname = divide;
layers = (
{
layerId = m01;
shapes = (
{
closed = 1;
nodes = (
(40,246,l),
(421,246,l),
(431,321,l),
(50,321,l)
);
},
{
pos = (128,0);
ref = period;
scale = (0.8638,0.8638);
},
{
pos = (188,464);
ref = period;
scale = (0.8638,0.8638);
}
);
width = 477;
}
);
unicode = 247;
}
{
glyphname = oslash;
kernLeft = o;
kernRight = o;
layers = (
{
layerId = m01;
shapes = (
{
closed = 1;
nodes = (
(314,-40,o),
(386,59,o),
(414,274,cs),
(442,491,o),
(396,590,o),
(265,590,cs),
(138,590,o),
(66,491,o),
(38,274,cs),
(10,59,o),
(56,-40,o),
(186,-40,cs)
);
},
{
closed = 1;
nodes = (
(120,33,o),
(99,102,o),
(123,274,cs),
(148,447,o),
(189,517,o),
(261,517,cs),
(333,517,o),
(354,447,o),
(329,274,cs),
(304,102,o),
(264,33,o),
(191,33,cs)
);
},
{
closed = 1;
nodes = (
(433,655,l),
(357,655,l),
(28,-105,l),
(104,-105,l)
);
}
);
width = 456;
}
);
unicode = 248;
}
{
glyphname = thorn;
kernLeft = l;
kernRight = o;
layers = (
{
layerId = m01;
shapes = (
{
closed = 1;
nodes = (
(87,158,l),
(82,33,o),
(120,-40,o),
(204,-40,cs),
(320,-40,o),
(393,95,o),
(415,284,cs),
(438,485,o),
(389,590,o),
(288,590,cs),
(205,590,o),
(146,517,o),
(123,385,c),
(157,372,l),
(169,447,o),
(207,500,o),
(260,500,cs),
(323,500,o),
(333,408,o),
(314,274,cs),
(297,154,o),
(264,50,o),
(197,50,cs),
(150,50,o),
(124,101,o),
(130,169,c)
);
},
{
closed = 1;
nodes = (
(221,810,l),
(124,810,l),
(-23,-230,l),
(74,-230,l)
);
}
);
width = 460;
}
);
metricLeft = h;
metricRight = p;
unicode = 254;
}
{
glyphname = dcroat;
layers = (
{
layerId = m01;
shapes = (
{
ref = d;
},
{
closed = 1;
nodes = (
(218,652,l),
(518,652,l),
(534,726,l),
(234,726,l)
);
}
);
width = 473;
}
);
unicode = 273;
}
{
glyphname = Hbar;
layers = (
{
layerId = m01;
shapes = (
{
pos = (2,0);
ref = H;
},
{
closed = 1;
nodes = (
(37,552,l),
(552,552,l),
(568,626,l),
(53,626,l)
);
}
);
width = 521;
}
);
unicode = 294;
}
{
glyphname = hbar;
layers = (
{
layerId = m01;
shapes = (
{
pos = (13,0);
ref = h;
},
{
closed = 1;
nodes = (
(51,652,l),
(371,652,l),
(387,726,l),
(67,726,l)
);
}
);
width = 451;
}
);
unicode = 295;
}
{
glyphname = idotless;
kernLeft = i;
kernRight = i;
layers = (
{
anchors = (
{
name = bottom;
pos = (51,-30);
},
{
name = ogonek;
pos = (45,-30);
},
{
name = top;
pos = (138,580);
}
);
layerId = m01;
shapes = (
{
closed = 1;
nodes = (
(186,580,l),
(89,580,l),
(3,-30,l),
(100,-30,l)
);
}
);
width = 193;
}
);
unicode = 305;
}
{
glyphname = Lslash;
kernLeft = H;
kernRight = L;
layers = (
{
layerId = m01;
shapes = (
{
closed = 1;
nodes = (
(339,425,l),
(354,517,l),
(11,363,l),
(-3,272,l)
);
},
{
pos = (30,0);
ref = L;
}
);
width = 438;
},
{
associatedMasterId = m01;
layerId = "54269B50-E9A0-412B-B5B5-68044A382115";
name = "Oct 19, 22, 13:23";
shapes = (
{
closed = 1;
nodes = (
(340,431,l),
(353,511,l),
(10,357,l),
(-2,278,l)
);
},
{
pos = (30,0);
ref = L;
}
);
width = 438;
}
);
metricRight = L;
unicode = 321;
}
{
glyphname = lslash;
layers = (
{
layerId = m01;
shapes = (
{
pos = (24,0);
ref = l;
},
{
closed = 1;
nodes = (
(272,460,l),
(287,552,l),
(20,423,l),
(6,332,l)
);
}
);
width = 250;
}
);
unicode = 322;
}
{
glyphname = OE;
kernLeft = O;
kernRight = E;
layers = (
{
layerId = m01;
shapes = (
{
closed = 1;
nodes = (
(268,-40,o),
(324,4,o),
(362,59,c),
(342,69,l),
(327,-30,l),
(650,-30,l),
(662,66,l),
(437,66,l),
(476,343,l),
(657,343,l),
(669,439,l),
(490,439,l),
(524,682,l),
(740,682,l),
(752,778,l),
(440,778,l),
(427,677,l),
(446,683,l),
(431,740,o),
(381,788,o),
(310,788,cs),
(191,788,o),
(86,658,o),
(47,372,cs),
(9,91,o),
(70,-40,o),
(202,-40,cs)
);
},
{
closed = 1;
nodes = (
(188,591,o),
(238,693,o),
(310,693,cs),
(390,693,o),
(415,591,o),
(382,372,cs),
(349,156,o),
(304,55,o),
(222,55,cs),
(152,55,o),
(122,156,o),
(155,372,cs)
);
}
);
width = 704;
}
);
metricLeft = O;
metricRight = E;
unicode = 338;
}
{
glyphname = oe;
kernLeft = o;
kernRight = e;
layers = (
{
layerId = m01;
shapes = (
{
closed = 1;
nodes = (
(266,-40,o),
(319,21,o),
(348,86,c),
(313,86,l),
(322,26,o),
(361,-40,o),
(453,-40,cs),
(549,-40,o),
(621,33,o),
(657,136,c),
(570,158,l),
(550,101,o),
(512,47,o),
(462,47,cs),
(387,47,o),
(388,145,o),
(401,250,c),
(672,250,l),
(702,463,o),
(672,590,o),
(531,590,cs),
(445,590,o),
(395,526,o),
(368,465,c),
(403,461,l),
(392,528,o),
(348,590,o),
(260,590,cs),
(138,590,o),
(66,491,o),
(38,274,cs),
(10,59,o),
(56,-40,o),
(181,-40,cs)
);
},
{
closed = 1;
nodes = (
(155,429,o),
(192,503,o),
(251,503,cs),
(312,503,o),
(331,429,o),
(309,274,cs),
(287,120,o),
(250,47,o),
(189,47,cs),
(129,47,o),
(111,120,o),
(133,274,cs)
);
},
{
closed = 1;
nodes = (
(433,444,o),
(469,503,o),
(523,503,cs),
(582,503,o),
(596,430,o),
(587,335,c),
(413,335,l)
);
}
);
width = 711;
}
);
metricLeft = o;
metricRight = e;
unicode = 339;
}
{
glyphname = tbar;
kernLeft = t;
kernRight = t;
layers = (
{
layerId = m01;
shapes = (
{
closed = 1;
nodes = (
(28,492,l),
(300,492,l),
(313,580,l),
(41,580,l)
);
},
{
closed = 1;
nodes = (
(17,5,o),
(74,-40,o),
(145,-40,cs),
(189,-40,o),
(235,-22,o),
(253,-13,c),
(222,69,l),
(205,57,o),
(187,50,o),
(171,50,cs),
(133,50,o),
(125,85,o),
(136,158,cs),
(225,748,l),
(133,748,l),
(39,147,ls)
);
},
{
closed = 1;
nodes = (
(1,302,l),
(273,302,l),
(286,390,l),
(14,390,l)
);
}
);
width = 295;
}
);
metricRight = t;
unicode = 359;
}
{
glyphname = Uogonek;
kernLeft = U;
kernRight = U;
layers = (
{
anchors = (
{
name = _ogonek;
pos = (208,-30);
},
{
name = ogonek;
pos = (208,-30);
},
{
name = top;
pos = (336,778);
}
);
layerId = m01;
shapes = (
{
ref = U;
},
{
closed = 1;
nodes = (
(198,-30,l),
(129,-83,o),
(88,-152,o),
(88,-208,cs),
(88,-262,o),
(122,-304,o),
(193,-308,cs),
(220,-310,o),
(253,-305,o),
(276,-299,c),
(267,-225,l),
(207,-245,o),
(177,-225,o),
(177,-188,cs),
(177,-125,o),
(256,-45,o),
(336,5,c)
);
}
);
width = 498;
}
);
unicode = 370;
}
{
glyphname = Schwa;
kernLeft = O;
kernRight = O;
layers = (
{
layerId = m01;
shapes = (
{
closed = 1;
nodes = (
(182,530,l),
(214,642,o),
(263,689,o),
(330,689,cs),
(418,689,o),
(448,598,o),
(420,396,c),
(50,396,l),
(3,72,o),
(82,-40,o),
(234,-40,cs),
(384,-40,o),
(486,90,o),
(525,376,cs),
(563,657,o),
(504,788,o),
(340,788,cs),
(224,788,o),
(132,714,o),
(81,554,c)
);
},
{
closed = 1;
nodes = (
(372,134,o),
(323,55,o),
(242,55,cs),
(163,55,o),
(132,134,o),
(149,303,c),
(405,303,l)
);
}
);
width = 548;
}
);
metricLeft = O;
metricRight = O;
unicode = 399;
}
{
glyphname = florin;
layers = (
{
layerId = m01;
shapes = (
{
closed = 1;
nodes = (
(429,594,l),
(417,650,o),
(375,719,o),
(287,719,cs),
(197,719,o),
(126,661,o),
(111,502,cs),
(65,24,ls),
(55,-85,o),
(41,-152,o),
(-19,-152,cs),
(-56,-152,o),
(-76,-115,o),
(-83,-76,c),
(-165,-115,l),
(-153,-171,o),
(-111,-240,o),
(-23,-240,cs),
(67,-240,o),
(138,-182,o),
(153,-23,cs),
(199,455,ls),
(209,564,o),
(223,631,o),
(283,631,cs),
(320,631,o),
(340,594,o),
(347,555,c)
);
},
{
closed = 1;
nodes = (
(36,325,l),
(308,325,l),
(320,403,l),
(48,403,l)
);
}
);
width = 369;
}
);
unicode = 402;
}
{
glyphname = jdotless;
kernLeft = j;
kernRight = i;
layers = (
{
anchors = (
{
name = bottom;
pos = (21,-230);
},
{
name = top;
pos = (137,580);
}
);
layerId = m01;
shapes = (
{
closed = 1;
nodes = (
(-101,-233,l),
(-85,-237,o),
(-62,-240,o),
(-43,-240,cs),
(17,-240,o),
(82,-184,o),
(104,-25,cs),
(186,580,l),
(89,580,l),
(16,24,ls),
(4,-66,o),
(-2,-155,o),
(-85,-139,c)
);
}
);
width = 188;
},
{
anchors = (
{
name = bottom;
pos = (21,-230);
},
{
name = top;
pos = (140,580);
}
);
associatedMasterId = m01;
layerId = "8951E025-D499-450A-92EF-19AAA015A39C";
name = "Oct 25, 22, 12:48";
shapes = (
{
closed = 1;
nodes = (
(-225,-234,l),
(-205,-176,l),
(-169,-216,o),
(-116,-240,o),
(-69,-240,cs),
(36,-240,o),
(82,-158,o),
(104,-8,cs),
(189,580,l),
(92,580,l),
(12,14,ls),
(-3,-95,o),
(-16,-149,o),
(-71,-149,cs),
(-97,-149,o),
(-125,-123,o),
(-142,-97,c),
(-94,-80,l)
);
}
);
width = 192;
}
);
unicode = 567;
}
{
glyphname = apostrophemod;
layers = (
{
layerId = m01;
shapes = (
{
closed = 1;
nodes = (
(116,692,o),
(93,624,o),
(62,551,c),
(119,527,l),
(156,588,o),
(194,669,o),
(228,760,c),
(138,782,l)
);
}
);
width = 198;
}
);
unicode = 700;
}
{
export = 0;
glyphname = gravecomb;
layers = (
{
anchors = (
{
name = _top;
pos = (277,580);
}
);
associatedMasterId = m01;
layerId = "6A6BD067-6B60-4DE5-A3E3-2FEE01267C21";
name = "Oct 13, 22, 15:43";
shapes = (
{
closed = 1;
nodes = (
(181,807,l),
(284,660,l),
(352,675,l),
(277,824,l)
);
}
);
width = 600;
},
{
anchors = (
{
name = _top;
pos = (277,580);
}
);
layerId = m01;
name = Regular;
shapes = (
{
closed = 1;
nodes = (
(162,807,l),
(263,664,l),
(343,664,l),
(268,807,l)
);
}
);
width = 600;
}
);
unicode = 768;
}
{
export = 0;
glyphname = acutecomb;
layers = (
{
anchors = (
{
name = _top;
pos = (302,580);
}
);
layerId = m01;
shapes = (
{
closed = 1;
nodes = (
(261,664,l),
(351,664,l),
(512,807,l),
(396,807,l)
);
}
);
width = 600;
}
);
unicode = 769;
}
{
export = 0;
glyphname = circumflexcomb;
layers = (
{
anchors = (
{
name = _top;
pos = (291,580);
},
{
name = top;
pos = (330,747);
}
);
layerId = m01;
shapes = (
{
closed = 1;
nodes = (
(136,664,l),
(226,664,l),
(368,785,l),
(288,785,l),
(385,664,l),
(465,664,l),
(377,807,l),
(281,807,l)
);
}
);
width = 600;
}
);
unicode = 770;
}
{
export = 0;
glyphname = tildecomb;
layers = (
{
anchors = (
{
name = _top;
pos = (288,580);
}
);
layerId = m01;
shapes = (
{
closed = 1;
nodes = (
(201,666,l),
(206,685,ls),
(212,703,o),
(223,714,o),
(241,714,cs),
(275,714,o),
(312,666,o),
(360,666,cs),
(399,666,o),
(436,686,o),
(454,761,cs),
(459,782,l),
(401,788,l),
(395,769,ls),
(387,744,o),
(375,739,o),
(361,739,cs),
(331,739,o),
(293,786,o),
(242,786,cs),
(198,786,o),
(163,762,o),
(147,697,cs),
(141,672,l)
);
}
);
width = 600;
}
);
unicode = 771;
}
{
export = 0;
glyphname = macroncomb;
layers = (
{
anchors = (
{
name = _top;
pos = (290,580);
}
);
layerId = m01;
shapes = (
{
closed = 1;
nodes = (
(163,667,l),
(427,667,l),
(438,743,l),
(174,743,l)
);
}
);
width = 600;
}
);
unicode = 772;
}
{
export = 0;
glyphname = brevecomb;
layers = (
{
anchors = (
{
name = _top;
pos = (271,580);
},
{
name = top;
pos = (285,724);
}
);
layerId = m01;
shapes = (
{
closed = 1;
nodes = (
(161,794,l),
(156,725,o),
(183,656,o),
(279,656,cs),
(370,656,o),
(416,713,o),
(441,794,c),
(369,794,l),
(358,764,o),
(336,726,o),
(288,726,cs),
(247,726,o),
(230,757,o),
(233,794,c)
);
}
);
width = 600;
}
);
unicode = 774;
}
{
export = 0;
glyphname = dotaccentcomb;
layers = (
{
anchors = (
{
name = _top;
pos = (281,580);
}
);
layerId = m01;
shapes = (
{
closed = 1;
nodes = (
(333,646,o),
(356,674,o),
(362,714,cs),
(368,753,o),
(348,782,o),
(310,782,cs),
(269,782,o),
(246,753,o),
(240,714,cs),
(234,674,o),
(254,646,o),
(292,646,cs)
);
}
);
width = 600;
}
);
unicode = 775;
}
{
export = 0;
glyphname = dieresiscomb;
layers = (
{
anchors = (
{
name = _top;
pos = (277,580);
},
{
name = top;
pos = (307,742);
}
);
layerId = m01;
shapes = (
{
closed = 1;
nodes = (
(246,655,o),
(267,683,o),
(271,718,cs),
(274,752,o),
(258,781,o),
(218,781,cs),
(176,781,o),
(155,752,o),
(151,718,cs),
(147,683,o),
(163,655,o),
(203,655,cs)
);
},
{
closed = 1;
nodes = (
(427,655,o),
(448,683,o),
(451,718,cs),
(455,752,o),
(439,781,o),
(399,781,cs),
(356,781,o),
(335,752,o),
(332,718,cs),
(328,683,o),
(344,655,o),
(384,655,cs)
);
}
);
width = 600;
}
);
unicode = 776;
}
{
export = 0;
glyphname = hookabovecomb;
layers = (
{
anchors = (
{
name = _top;
pos = (274,580);
}
);
layerId = m01;
shapes = (
{
closed = 1;
nodes = (
(317,641,l),
(356,670,o),
(377,709,o),
(377,742,cs),
(377,778,o),
(348,807,o),
(291,807,cs),
(275,807,o),
(241,804,o),
(224,800,c),
(210,743,l),
(235,751,o),
(292,757,o),
(292,720,cs),
(292,696,o),
(265,664,o),
(236,641,c)
);
}
);
width = 600;
}
);
unicode = 777;
}
{
export = 0;
glyphname = ringcomb;
layers = (
{
anchors = (
{
name = _top;
pos = (284,580);
}
);
layerId = m01;
shapes = (
{
closed = 1;
nodes = (
(355,641,o),
(401,688,o),
(401,759,cs),
(401,813,o),
(365,849,o),
(312,849,cs),
(245,849,o),
(200,801,o),
(200,730,cs),
(200,677,o),
(235,641,o),
(287,641,cs)
);
},
{
closed = 1;
nodes = (
(270,691,o),
(254,709,o),
(254,736,cs),
(254,774,o),
(276,800,o),
(308,800,cs),
(331,800,o),
(347,781,o),
(347,752,cs),
(347,715,o),
(326,691,o),
(294,691,cs)
);
}
);
width = 600;
}
);
unicode = 778;
}
{
export = 0;
glyphname = hungarumlautcomb;
layers = (
{
anchors = (
{
name = _top;
pos = (249,580);
}
);
layerId = m01;
shapes = (
{
closed = 1;
nodes = (
(143,664,l),
(222,664,l),
(343,807,l),
(234,807,l)
);
},
{
closed = 1;
nodes = (
(279,664,l),
(362,664,l),
(493,807,l),
(384,807,l)
);
}
);
width = 600;
}
);
unicode = 779;
}
{
export = 0;
glyphname = caroncomb;
layers = (
{
anchors = (
{
name = _top;
pos = (267,580);
}
);
layerId = m01;
shapes = (
{
closed = 1;
nodes = (
(465,794,l),
(375,794,l),
(233,673,l),
(313,673,l),
(216,794,l),
(136,794,l),
(224,651,l),
(320,651,l)
);
}
);
width = 600;
}
);
unicode = 780;
}
{
export = 0;
glyphname = commaturnedabovecomb;
layers = (
{
anchors = (
{
name = _top;
pos = (262,580);
}
);
layerId = m01;
shapes = (
{
closed = 1;
nodes = (
(334,714,o),
(351,758,o),
(384,816,c),
(312,815,l),
(275,768,o),
(246,721,o),
(217,658,c),
(316,657,l)
);
}
);
width = 600;
}
);
unicode = 786;
}
{
export = 0;
glyphname = horncomb;
layers = (
{
anchors = (
{
name = _topright;
pos = (242,635);
}
);
layerId = m01;
shapes = (
{
closed = 1;
nodes = (
(337,580,o),
(374,649,o),
(378,741,c),
(300,741,l),
(299,708,o),
(291,635,o),
(245,635,cs),
(223,635,l),
(223,580,l),
(261,580,ls)
);
}
);
width = 600;
}
);
unicode = 795;
}
{
export = 0;
glyphname = dotbelowcomb;
layers = (
{
anchors = (
{
name = _bottom;
pos = (300,-30);
}
);
layerId = m01;
shapes = (
{
closed = 1;
nodes = (
(315,-224,o),
(338,-196,o),
(344,-156,cs),
(350,-117,o),
(330,-88,o),
(292,-88,cs),
(251,-88,o),
(228,-117,o),
(222,-156,cs),
(216,-196,o),
(236,-224,o),
(274,-224,cs)
);
}
);
width = 600;
}
);
unicode = 803;
}
{
export = 0;
glyphname = commaaccentcomb;
layers = (
{
anchors = (
{
name = _bottom;
pos = (345,-30);
}
);
layerId = m01;
shapes = (
{
closed = 1;
nodes = (
(270,-175,o),
(236,-259,o),
(197,-332,c),
(269,-331,l),
(309,-284,o),
(361,-179,o),
(389,-103,c),
(288,-102,l)
);
}
);
width = 600;
}
);
unicode = 806;
}
{
export = 0;
glyphname = cedillacomb;
layers = (
{
anchors = (
{
name = _bottom;
pos = (297,-30);
}
);
layerId = m01;
shapes = (
{
closed = 1;
nodes = (
(273,-20,l),
(263,-43,o),
(245,-76,o),
(233,-91,c),
(237,-142,l),
(292,-140,o),
(310,-162,o),
(308,-192,cs),
(306,-248,o),
(217,-236,o),
(183,-235,c),
(204,-193,l),
(209,-355,l),
(180,-308,l),
(268,-319,o),
(390,-293,o),
(395,-190,cs),
(398,-122,o),
(341,-78,o),
(254,-84,c),
(283,-124,l),
(296,-100,o),
(319,-53,o),
(334,-20,c)
);
}
);
width = 600;
},
{
anchors = (
{
name = _bottom;
pos = (368,0);
}
);
associatedMasterId = m01;
layerId = "EB68EBBD-912D-4FE7-92AB-7C75C414E73F";
name = "Oct 13, 22, 18:00";
shapes = (
{
closed = 1;
nodes = (
(286,-139,l),
(341,-137,o),
(369,-159,o),
(367,-189,cs),
(365,-245,o),
(281,-236,o),
(247,-235,c),
(268,-193,l),
(273,-355,l),
(244,-308,l),
(332,-319,o),
(454,-293,o),
(459,-190,cs),
(462,-122,o),
(401,-82,o),
(318,-84,c),
(349,-124,l),
(412,12,l),
(341,12,l),
(277,-123,l)
);
}
);
width = 600;
}
);
unicode = 807;
}
{
export = 0;
glyphname = ogonekcomb;
layers = (
{
anchors = (
{
name = _ogonek;
pos = (339,-30);
}
);
layerId = m01;
shapes = (
{
closed = 1;
nodes = (
(297,-30,l),
(242,-71,o),
(186,-135,o),
(186,-206,cs),
(186,-260,o),
(216,-304,o),
(284,-308,cs),
(311,-310,o),
(344,-305,o),
(367,-299,c),
(358,-225,l),
(325,-236,o),
(273,-238,o),
(273,-186,cs),
(273,-123,o),
(352,-54,o),
(389,-30,c)
);
}
);
width = 600;
}
);
unicode = 808;
}
{
glyphname = "numeral-greek";
layers = (
{
layerId = m01;
shapes = (
{
closed = 1;
nodes = (
(76,616,l),
(145,617,l),
(203,778,l),
(104,778,l)
);
}
);
width = 164;
}
);
unicode = 884;
}
{
glyphname = "lowernumeral-greek";
layers = (
{
layerId = m01;
shapes = (
{
closed = 1;
nodes = (
(112,132,l),
(43,131,l),
(-15,-30,l),
(84,-30,l)
);
}
);
width = 164;
}
);
unicode = 885;
}
{
glyphname = dieresistonos;
layers = (
{
anchors = (
{
name = _top;
pos = (339,580);
}
);
layerId = m01;
shapes = (
{
closed = 1;
nodes = (
(281,658,o),
(301,683,o),
(305,718,cs),
(307,752,o),
(292,778,o),
(254,778,cs),
(214,778,o),
(194,752,o),
(190,718,cs),
(186,683,o),
(202,658,o),
(240,658,cs)
);
},
{
closed = 1;
nodes = (
(507,658,o),
(527,683,o),
(530,718,cs),
(534,752,o),
(519,778,o),
(481,778,cs),
(440,778,o),
(420,752,o),
(417,718,cs),
(413,683,o),
(428,658,o),
(466,658,cs)
);
},
{
closed = 1;
nodes = (
(319,694,l),
(380,694,l),
(439,837,l),
(354,837,l)
);
}
);
width = 600;
}
);
unicode = 901;
}
{
glyphname = Delta;
kernLeft = A;
kernRight = A;
layers = (
{
layerId = m01;
shapes = (
{
closed = 1;
nodes = (
(472,-30,l),
(372,778,l),
(266,778,l),
(-45,-30,l)
);
},
{
closed = 1;
nodes = (
(240,460,ls),
(257,507,o),
(289,598,o),
(302,649,c),
(294,649,l),
(296,592,o),
(305,506,o),
(311,450,cs),
(355,65,l),
(97,65,l)
);
}
);
width = 517;
}
);
unicode = 916;
}
{
glyphname = Theta;
kernLeft = O;
kernRight = O;
layers = (
{
layerId = m01;
shapes = (
{
ref = O;
},
{
closed = 1;
nodes = (
(182,351,l),
(358,351,l),
(372,437,l),
(196,437,l)
);
}
);
width = 527;
}
);
unicode = 920;
}
{
glyphname = Lambda;
kernLeft = A;
kernRight = A;
layers = (
{
layerId = m01;
shapes = (
{
closed = 1;
nodes = (
(281,600,o),
(295,501,o),
(302,440,cs),
(353,-30,l),
(452,-30,l),
(362,778,l),
(256,778,l),
(-45,-30,l),
(56,-30,l),
(226,450,ls),
(244,502,o),
(282,604,o),
(291,654,c),
(283,654,l)
);
}
);
width = 497;
}
);
unicode = 923;
}
{
glyphname = Xi;
kernLeft = Xi;
kernRight = Xi;
layers = (
{
layerId = m01;
shapes = (
{
closed = 1;
nodes = (
(101,683,l),
(441,683,l),
(454,778,l),
(113,778,l)
);
},
{
closed = 1;
nodes = (
(-9,-30,l),
(351,-30,l),
(364,65,l),
(3,65,l)
);
},
{
closed = 1;
nodes = (
(83,347,l),
(363,347,l),
(376,442,l),
(95,442,l)
);
}
);
width = 431;
}
);
unicode = 926;
}
{
glyphname = Sigma;
kernLeft = Sigma;
kernRight = Sigma;
layers = (
{
layerId = m01;
shapes = (
{
closed = 1;
nodes = (
(170,730,l),
(144,685,l),
(440,685,l),
(453,778,l),
(89,778,l),
(78,698,l),
(255,359,l),
(262,434,l),
(-12,49,l),
(-23,-30,l),
(362,-30,l),
(376,62,l),
(57,62,l),
(73,21,l),
(339,389,l),
(341,403,l)
);
}
);
width = 431;
}
);
unicode = 931;
}
{
glyphname = Psi;
kernLeft = Psi;
kernRight = Psi;
layers = (
{
layerId = m01;
shapes = (
{
closed = 1;
nodes = (
(222,-30,l),
(336,778,l),
(430,778,l),
(316,-30,l)
);
},
{
closed = 1;
nodes = (
(563,778,l),
(656,778,l),
(617,502,ls),
(590,313,o),
(482,220,o),
(305,220,cs),
(134,220,o),
(43,313,o),
(70,502,cs),
(109,778,l),
(203,778,l),
(167,524,ls),
(141,343,o),
(207,307,o),
(315,307,cs),
(426,307,o),
(500,344,o),
(526,524,cs)
);
}
);
width = 627;
}
);
unicode = 936;
}
{
glyphname = Omega;
kernLeft = Omega;
kernRight = Omega;
layers = (
{
anchors = (
{
name = topleft;
pos = (176,778);
}
);
layerId = m01;
shapes = (
{
closed = 1;
nodes = (
(387,204,o),
(326,71,o),
(270,46,c),
(259,-30,l),
(466,-30,l),
(481,57,l),
(386,57,l),
(455,129,o),
(498,254,o),
(515,378,cs),
(553,664,o),
(503,788,o),
(340,788,cs),
(194,788,o),
(98,664,o),
(59,378,cs),
(42,254,o),
(54,129,o),
(105,57,c),
(15,57,l),
(0,-30,l),
(210,-30,l),
(221,46,l),
(151,78,o),
(150,283,o),
(164,385,cs),
(197,604,o),
(244,693,o),
(332,693,cs),
(418,693,o),
(445,604,o),
(412,385,cs)
);
}
);
width = 559;
}
);
unicode = 937;
}
{
glyphname = alpha;
kernLeft = o;
layers = (
{
anchors = (
{
name = top;
pos = (284,580);
}
);
layerId = m01;
shapes = (
{
closed = 1;
nodes = (
(280,118,o),
(244,50,o),
(192,50,cs),
(123,50,o),
(122,150,o),
(139,279,cs),
(155,399,o),
(191,499,o),
(254,499,cs),
(304,499,o),
(330,445,o),
(321,370,c),
(359,383,l),
(372,515,o),
(328,589,o),
(245,589,cs),
(148,589,o),
(68,493,o),
(40,290,cs),
(6,47,o),
(70,-40,o),
(166,-40,cs),
(246,-40,o),
(313,60,o),
(333,175,c),
(294,185,l)
);
},
{
closed = 1;
nodes = (
(265,22,o),
(284,-40,o),
(359,-40,cs),
(380,-40,o),
(408,-34,o),
(429,-27,c),
(420,55,l),
(414,53,o),
(401,51,o),
(393,52,cs),
(365,56,o),
(370,95,o),
(375,124,cs),
(446,580,l),
(349,580,l),
(281,127,ls)
);
}
);
width = 484;
}
);
metricLeft = o;
metricRight = mu;
unicode = 945;
}
{
glyphname = beta;
kernLeft = n;
kernRight = beta;
layers = (
{
layerId = m01;
shapes = (
{
closed = 1;
nodes = (
(188,590,o),
(230,653,o),
(285,653,cs),
(322,653,o),
(364,624,o),
(351,553,cs),
(341,501,o),
(297,446,o),
(227,449,c),
(216,375,l),
(312,380,o),
(334,293,o),
(323,205,cs),
(311,105,o),
(267,50,o),
(209,50,cs),
(152,50,o),
(123,101,o),
(129,169,c),
(86,158,l),
(81,33,o),
(122,-40,o),
(216,-40,cs),
(323,-40,o),
(403,46,o),
(424,215,cs),
(437,323,o),
(390,434,o),
(280,430,c),
(270,396,l),
(358,408,o),
(431,472,o),
(446,554,cs),
(466,661,o),
(398,740,o),
(292,740,cs),
(179,740,o),
(99,640,o),
(81,510,cs),
(-19,-200,l),
(78,-200,l),
(174,488,ls)
);
}
);
width = 470;
}
);
metricLeft = l;
unicode = 946;
}
{
glyphname = gamma;
kernLeft = v;
kernRight = nu;
layers = (
{
layerId = m01;
shapes = (
{
closed = 1;
nodes = (
(116,2,l),
(88,-200,l),
(185,-200,l),
(210,-15,l),
(330,201,o),
(404,372,o),
(419,580,c),
(320,580,l),
(324,415,o),
(246,216,o),
(177,82,c),
(191,75,l),
(192,127,o),
(185,254,o),
(177,328,cs),
(150,580,l),
(51,580,l)
);
}
);
width = 426;
}
);
metricLeft = v;
metricRight = nu;
unicode = 947;
}
{
glyphname = delta;
kernLeft = o;
kernRight = delta;
layers = (
{
layerId = m01;
shapes = (
{
closed = 1;
nodes = (
(204,460,l),
(119,440,o),
(47,344,o),
(31,227,cs),
(8,62,o),
(70,-40,o),
(190,-40,cs),
(310,-40,o),
(394,62,o),
(421,214,cs),
(447,358,o),
(400,447,o),
(292,495,cs),
(237,519,o),
(214,550,o),
(219,587,cs),
(225,633,o),
(261,650,o),
(301,650,cs),
(332,650,o),
(366,641,o),
(392,629,c),
(423,709,l),
(390,725,o),
(345,735,o),
(308,735,cs),
(203,735,o),
(132,673,o),
(122,595,cs),
(111,509,o),
(180,457,o),
(239,418,c),
(255,410,l),
(300,400,o),
(342,343,o),
(324,226,cs),
(306,110,o),
(256,48,o),
(198,48,cs),
(140,48,o),
(112,122,o),
(128,227,cs),
(148,361,o),
(229,418,o),
(288,409,c)
);
}
);
width = 476;
}
);
metricLeft = o;
metricRight = o;
unicode = 948;
}
{
glyphname = epsilon;
kernLeft = epsilon;
kernRight = epsilon;
layers = (
{
anchors = (
{
name = top;
pos = (268,580);
}
);
layerId = m01;
shapes = (
{
closed = 1;
nodes = (
(433,437,l),
(423,529,o),
(369,590,o),
(268,590,cs),
(150,590,o),
(83,516,o),
(76,430,cs),
(69,348,o),
(140,280,o),
(224,268,c),
(224,302,l),
(115,306,o),
(29,250,o),
(15,146,cs),
(0,21,o),
(58,-40,o),
(177,-40,cs),
(284,-40,o),
(361,25,o),
(391,129,c),
(301,142,l),
(281,78,o),
(238,50,o),
(188,50,cs),
(138,50,o),
(106,68,o),
(112,140,cs),
(119,224,o),
(178,247,o),
(292,242,c),
(303,326,l),
(212,323,o),
(167,377,o),
(170,429,cs),
(174,476,o),
(206,503,o),
(252,503,cs),
(297,503,o),
(333,479,o),
(340,422,c)
);
}
);
width = 434;
}
);
unicode = 949;
}
{
glyphname = zeta;
kernLeft = zeta;
kernRight = zeta;
layers = (
{
layerId = m01;
shapes = (
{
closed = 1;
nodes = (
(77,727,l),
(64,639,l),
(369,639,l),
(330,673,l),
(205,524,ls),
(106,406,o),
(31,287,o),
(18,190,cs),
(3,81,o),
(30,33,o),
(128,-1,cs),
(163,-13,ls),
(203,-27,o),
(219,-43,o),
(216,-64,cs),
(212,-91,o),
(192,-119,o),
(162,-150,c),
(226,-194,l),
(269,-157,o),
(310,-94,o),
(317,-47,cs),
(325,4,o),
(303,31,o),
(255,50,cs),
(165,86,ls),
(128,101,o),
(111,137,o),
(119,192,cs),
(131,273,o),
(187,362,o),
(283,484,cs),
(428,667,l),
(436,727,l)
);
}
);
width = 380;
}
);
unicode = 950;
}
{
glyphname = eta;
kernLeft = n;
kernRight = n;
layers = (
{
anchors = (
{
name = top;
pos = (279,580);
}
);
layerId = m01;
shapes = (
{
closed = 1;
nodes = (
(174,478,l),
(183,580,l),
(92,580,l),
(5,-30,l),
(102,-30,l)
);
},
{
closed = 1;
nodes = (
(159,379,l),
(172,449,o),
(207,500,o),
(253,500,cs),
(297,500,o),
(315,464,o),
(304,394,cs),
(209,-230,l),
(307,-230,l),
(403,410,ls),
(423,543,o),
(365,590,o),
(293,590,cs),
(230,590,o),
(158,540,o),
(130,394,c)
);
}
);
width = 436;
}
);
metricLeft = n;
metricRight = n;
unicode = 951;
}
{
glyphname = theta;
kernLeft = theta;
kernRight = theta;
layers = (
{
layerId = m01;
shapes = (
{
closed = 1;
nodes = (
(316,-31,o),
(386,68,o),
(433,378,cs),
(480,689,o),
(428,789,o),
(297,789,cs),
(170,789,o),
(94,689,o),
(47,378,cs),
(0,68,o),
(58,-31,o),
(188,-31,cs)
);
},
{
closed = 1;
nodes = (
(135,59,o),
(107,129,o),
(147,378,cs),
(187,627,o),
(230,699,o),
(289,699,cs),
(350,699,o),
(373,627,o),
(333,378,cs),
(293,129,o),
(256,59,o),
(195,59,cs)
);
},
{
closed = 1;
nodes = (
(110,346,l),
(358,346,l),
(371,441,l),
(122,441,l)
);
}
);
width = 456;
}
);
metricLeft = O;
metricRight = O;
unicode = 952;
}
{
glyphname = iota;
kernLeft = iota;
kernRight = mu;
layers = (
{
anchors = (
{
name = top;
pos = (135,580);
}
);
layerId = m01;
shapes = (
{
closed = 1;
nodes = (
(18,127,ls),
(2,22,o),
(45,-40,o),
(125,-40,cs),
(155,-40,o),
(190,-31,o),
(211,-23,c),
(186,59,l),
(179,55,o),
(167,50,o),
(150,50,cs),
(122,50,o),
(107,84,o),
(113,124,cs),
(185,580,l),
(88,580,l)
);
}
);
width = 255;
}
);
unicode = 953;
}
{
glyphname = kappa;
kernLeft = n;
kernRight = kappa;
layers = (
{
layerId = m01;
shapes = (
{
closed = 1;
nodes = (
(188,580,l),
(91,580,l),
(5,-30,l),
(102,-30,l)
);
},
{
closed = 1;
nodes = (
(358,494,o),
(369,506,o),
(385,506,cs),
(393,506,o),
(407,502,o),
(415,503,c),
(430,579,l),
(417,585,o),
(383,590,o),
(369,590,cs),
(317,590,o),
(289,555,o),
(265,489,cs),
(219,357,o),
(211,326,o),
(179,326,cs),
(99,326,l),
(88,243,l),
(163,243,ls),
(197,243,o),
(205,212,o),
(212,175,cs),
(255,-38,l),
(354,-38,l),
(302,195,ls),
(290,248,o),
(268,294,o),
(215,302,c),
(224,266,l),
(291,293,o),
(310,337,o),
(344,450,cs)
);
}
);
width = 410;
}
);
metricLeft = n;
unicode = 954;
}
{
glyphname = lambda;
kernLeft = lambda;
kernRight = lambda;
layers = (
{
layerId = m01;
shapes = (
{
closed = 1;
nodes = (
(289,-4,o),
(326,-40,o),
(381,-40,cs),
(399,-40,o),
(430,-37,o),
(449,-33,c),
(441,55,l),
(422,53,ls),
(388,49,o),
(369,65,o),
(355,144,cs),
(256,714,ls),
(244,784,o),
(207,820,o),
(152,820,cs),
(134,820,o),
(103,817,o),
(84,813,c),
(92,721,l),
(111,723,ls),
(145,727,o),
(166,698,o),
(178,632,cs),
(277,66,ls)
);
},
{
closed = 1;
nodes = (
(207,540,l),
(-45,-30,l),
(62,-30,l),
(240,419,l)
);
}
);
width = 494;
}
);
unicode = 955;
}
{
glyphname = mu;
layers = (
{
layerId = m01;
shapes = (
{
closed = 1;
nodes = (
(252,72,l),
(243,-30,l),
(334,-30,l),
(421,580,l),
(324,580,l)
);
},
{
closed = 1;
nodes = (
(94,1,l),
(102,-21,o),
(118,-40,o),
(146,-40,cs),
(193,-40,o),
(268,10,o),
(296,156,c),
(267,171,l),
(254,101,o),
(219,50,o),
(173,50,cs),
(129,50,o),
(112,86,o),
(122,156,cs),
(183,580,l),
(85,580,l),
(-30,-230,l),
(67,-230,l),
(92,0,l)
);
}
);
width = 431;
}
);
unicode = 956;
}
{
glyphname = nu;
kernLeft = v;
kernRight = nu;
layers = (
{
layerId = m01;
shapes = (
{
closed = 1;
nodes = (
(220,-30,l),
(345,193,o),
(404,367,o),
(419,580,c),
(320,580,l),
(325,375,o),
(229,147,o),
(152,14,c),
(182,14,l),
(181,82,o),
(179,150,o),
(174,218,cs),
(150,580,l),
(51,580,l),
(104,-30,l)
);
}
);
width = 427;
}
);
metricLeft = v;
unicode = 957;
}
{
glyphname = xi;
kernLeft = xi;
kernRight = xi;
layers = (
{
layerId = m01;
shapes = (
{
closed = 1;
nodes = (
(198,-13,ls),
(238,-25,o),
(254,-43,o),
(251,-64,cs),
(247,-91,o),
(227,-119,o),
(197,-150,c),
(261,-194,l),
(304,-157,o),
(345,-94,o),
(352,-47,cs),
(360,4,o),
(337,34,o),
(289,52,cs),
(205,83,ls),
(141,107,o),
(117,165,o),
(126,220,cs),
(143,320,o),
(229,377,o),
(306,377,cs),
(348,377,l),
(361,459,l),
(325,461,ls),
(243,466,o),
(190,500,o),
(201,573,cs),
(210,632,o),
(271,653,o),
(326,653,cs),
(359,653,o),
(393,644,o),
(421,633,c),
(446,718,l),
(419,730,o),
(374,740,o),
(331,740,cs),
(204,740,o),
(114,681,o),
(100,576,cs),
(91,506,o),
(139,439,o),
(203,420,c),
(115,398,o),
(40,316,o),
(25,216,cs),
(11,116,o),
(50,30,o),
(167,-4,cs)
);
}
);
width = 414;
}
);
unicode = 958;
}
{
glyphname = pi;
kernLeft = pi;
kernRight = pi;
layers = (
{
layerId = m01;
shapes = (
{
closed = 1;
nodes = (
(287,127,ls),
(271,22,o),
(304,-40,o),
(384,-40,cs),
(414,-40,o),
(449,-31,o),
(470,-23,c),
(445,59,l),
(438,55,o),
(426,50,o),
(409,50,cs),
(381,50,o),
(376,84,o),
(382,124,cs),
(453,580,l),
(356,580,l)
);
},
{
closed = 1;
nodes = (
(28,492,l),
(525,492,l),
(538,580,l),
(41,580,l)
);
},
{
closed = 1;
nodes = (
(230,580,l),
(133,580,l),
(40,-30,l),
(137,-30,l)
);
}
);
width = 534;
}
);
unicode = 960;
}
{
glyphname = rho;
kernLeft = rho;
kernRight = o;
layers = (
{
layerId = m01;
shapes = (
{
closed = 1;
nodes = (
(388,590,o),
(439,485,o),
(415,284,cs),
(393,95,o),
(320,-40,o),
(204,-40,cs),
(154,-40,o),
(120,-14,o),
(102,33,c),
(131,179,l),
(122,106,o),
(148,50,o),
(197,50,cs),
(264,50,o),
(297,154,o),
(314,274,cs),
(335,423,o),
(315,501,o),
(256,501,cs),
(202,501,o),
(168,433,o),
(157,356,cs),
(74,-230,l),
(-23,-230,l),
(59,346,ls),
(82,510,o),
(161,590,o),
(269,590,cs)
);
}
);
width = 460;
}
);
metricLeft = p;
metricRight = o;
unicode = 961;
}
{
glyphname = sigmafinal;
kernLeft = o;
kernRight = sigmafinal;
layers = (
{
layerId = m01;
shapes = (
{
closed = 1;
nodes = (
(144,108,o),
(115,150,o),
(142,304,cs),
(164,429,o),
(198,500,o),
(257,500,cs),
(304,500,o),
(320,460,o),
(324,416,c),
(417,431,l),
(409,525,o),
(360,590,o),
(265,590,cs),
(138,590,o),
(70,491,o),
(42,304,cs),
(10,89,o),
(70,28,o),
(167,-3,cs),
(198,-13,ls),
(238,-26,o),
(242,-40,o),
(239,-61,cs),
(235,-88,o),
(215,-116,o),
(185,-147,c),
(249,-191,l),
(292,-154,o),
(333,-91,o),
(340,-44,cs),
(348,7,o),
(324,36,o),
(277,55,cs),
(205,84,ls)
);
}
);
width = 427;
}
);
metricLeft = o;
unicode = 962;
}
{
glyphname = sigma;
kernLeft = o;
kernRight = sigma;
layers = (
{
layerId = m01;
shapes = (
{
closed = 1;
nodes = (
(424,469,o),
(448,385,o),
(432,264,cs),
(405,59,o),
(310,-40,o),
(195,-40,cs),
(77,-40,o),
(9,59,o),
(36,264,cs),
(65,481,o),
(159,580,o),
(286,580,cs),
(531,580,l),
(518,494,l),
(365,494,l),
(383,520,l)
);
},
{
closed = 1;
nodes = (
(206,490,o),
(156,419,o),
(133,264,cs),
(112,120,o),
(151,48,o),
(202,48,cs),
(258,48,o),
(314,120,o),
(335,264,cs),
(358,419,o),
(326,490,o),
(265,490,cs)
);
}
);
width = 505;
}
);
metricLeft = o;
unicode = 963;
}
{
glyphname = tau;
kernLeft = tau;
kernRight = tau;
layers = (
{
layerId = m01;
shapes = (
{
closed = 1;
nodes = (
(101,127,ls),
(84,22,o),
(128,-40,o),
(208,-40,cs),
(238,-40,o),
(273,-31,o),
(294,-23,c),
(269,59,l),
(262,55,o),
(250,50,o),
(233,50,cs),
(205,50,o),
(189,84,o),
(196,124,cs),
(272,580,l),
(175,580,l)
);
},
{
closed = 1;
nodes = (
(28,492,l),
(390,492,l),
(403,580,l),
(41,580,l)
);
}
);
width = 372;
}
);
unicode = 964;
}
{
glyphname = upsilon;
kernLeft = n;
kernRight = upsilon;
layers = (
{
anchors = (
{
name = top;
pos = (251,580);
}
);
layerId = m01;
shapes = (
{
closed = 1;
nodes = (
(39,208,ls),
(16,45,o),
(52,-40,o),
(177,-40,cs),
(314,-40,o),
(382,88,o),
(410,288,cs),
(424,389,o),
(421,493,o),
(396,580,c),
(293,580,l),
(318,474,o),
(321,374,o),
(311,288,cs),
(292,155,o),
(258,50,o),
(185,50,cs),
(130,50,o),
(123,102,o),
(139,218,cs),
(190,580,l),
(91,580,l)
);
}
);
width = 460;
}
);
metricLeft = n;
unicode = 965;
}
{
glyphname = phi;
kernLeft = o;
kernRight = o;
layers = (
{
layerId = m01;
shapes = (
{
closed = 1;
nodes = (
(379,-40,o),
(476,59,o),
(504,274,cs),
(532,491,o),
(461,590,o),
(310,590,cs),
(163,590,o),
(66,491,o),
(38,274,cs),
(10,59,o),
(81,-40,o),
(231,-40,cs)
);
},
{
closed = 1;
nodes = (
(152,44,o),
(110,114,o),
(133,274,cs),
(156,435,o),
(219,506,o),
(303,506,cs),
(390,506,o),
(432,435,o),
(409,274,cs),
(386,114,o),
(324,44,o),
(238,44,cs)
);
},
{
closed = 1;
nodes = (
(397,810,l),
(310,810,l),
(150,-230,l),
(237,-230,l)
);
}
);
width = 550;
}
);
metricLeft = o;
metricRight = o;
unicode = 966;
}
{
glyphname = chi;
kernLeft = chi;
kernRight = chi;
layers = (
{
layerId = m01;
shapes = (
{
closed = 1;
nodes = (
(189,214,l),
(-63,-230,l),
(42,-230,l),
(219,99,l)
);
},
{
closed = 1;
nodes = (
(261,162,l),
(493,581,l),
(394,581,l),
(240,291,l)
);
},
{
closed = 1;
nodes = (
(272,-204,o),
(305,-240,o),
(360,-240,cs),
(378,-240,o),
(409,-237,o),
(428,-233,c),
(420,-141,l),
(401,-143,ls),
(367,-147,o),
(349,-118,o),
(334,-52,cs),
(213,484,ls),
(197,554,o),
(164,590,o),
(109,590,cs),
(91,590,o),
(60,587,o),
(41,583,c),
(49,491,l),
(68,493,ls),
(102,497,o),
(120,468,o),
(135,402,cs),
(256,-134,ls)
);
}
);
width = 502;
}
);
unicode = 967;
}
{
glyphname = psi;
kernLeft = n;
kernRight = upsilon;
layers = (
{
layerId = m01;
shapes = (
{
closed = 1;
nodes = (
(392,810,l),
(305,810,l),
(147,-230,l),
(234,-230,l)
);
},
{
closed = 1;
nodes = (
(39,208,ls),
(16,45,o),
(72,-40,o),
(227,-40,cs),
(394,-40,o),
(482,88,o),
(510,288,cs),
(524,389,o),
(521,493,o),
(496,580,c),
(398,580,l),
(423,474,o),
(426,374,o),
(416,288,cs),
(397,155,o),
(347,44,o),
(235,44,cs),
(146,44,o),
(118,104,o),
(134,218,cs),
(185,580,l),
(91,580,l)
);
}
);
width = 560;
}
);
metricLeft = n;
metricRight = upsilon;
unicode = 968;
}
{
glyphname = omega;
kernLeft = omega;
kernRight = omega;
layers = (
{
anchors = (
{
name = bottom;
pos = (292,0);
},
{
name = top;
pos = (365,580);
}
);
layerId = m01;
shapes = (
{
closed = 1;
nodes = (
(299,412,l),
(274,238,ls),
(257,122,o),
(234,50,o),
(185,50,cs),
(125,50,o),
(120,155,o),
(139,288,cs),
(153,374,o),
(184,474,o),
(239,580,c),
(136,580,l),
(86,493,o),
(54,389,o),
(40,288,cs),
(12,88,o),
(44,-40,o),
(158,-40,cs),
(209,-40,o),
(269,-4,o),
(303,73,c),
(290,73,l),
(307,-5,o),
(353,-40,o),
(405,-40,cs),
(519,-40,o),
(587,88,o),
(615,288,cs),
(629,389,o),
(626,493,o),
(601,580,c),
(498,580,l),
(523,474,o),
(526,374,o),
(516,288,cs),
(497,155,o),
(463,50,o),
(403,50,cs),
(356,50,o),
(351,122,o),
(367,238,cs),
(391,412,l)
);
}
);
width = 665;
}
);
metricRight = upsilon;
unicode = 969;
}
{
glyphname = koppa;
kernLeft = koppa;
kernRight = koppa;
layers = (
{
layerId = m01;
shapes = (
{
closed = 1;
nodes = (
(126,549,ls),
(138,596,o),
(146,636,o),
(117,650,cs),
(103,657,o),
(86,658,o),
(64,654,c),
(63,737,l),
(97,742,o),
(149,743,o),
(182,723,cs),
(219,701,o),
(230,661,o),
(225,611,cs),
(222,582,o),
(216,553,o),
(208,524,cs),
(135,246,l),
(100,288,l),
(336,379,l),
(358,313,l),
(276,-6,ls),
(264,-53,o),
(257,-92,o),
(285,-107,cs),
(301,-115,o),
(324,-115,o),
(346,-111,c),
(348,-194,l),
(314,-199,o),
(258,-202,o),
(221,-180,cs),
(184,-158,o),
(173,-118,o),
(178,-68,cs),
(181,-39,o),
(188,-10,o),
(195,19,cs),
(274,326,l),
(316,281,l),
(84,194,l),
(54,268,l)
);
}
);
width = 416;
}
);
unicode = 991;
}
{
glyphname = Sampi;
layers = (
{
layerId = m01;
shapes = (
{
closed = 1;
nodes = (
(382,-230,l),
(413,-142,o),
(434,-58,o),
(446,26,cs),
(487,316,o),
(414,603,o),
(98,740,c),
(53,668,l),
(349,516,o),
(382,265,o),
(352,33,cs),
(340,-61,o),
(317,-151,o),
(292,-230,c)
);
},
{
closed = 1;
nodes = (
(388,184,l),
(372,267,l),
(163,201,l),
(187,120,l)
);
},
{
closed = 1;
nodes = (
(335,378,l),
(301,458,l),
(106,398,l),
(130,315,l)
);
}
);
width = 521;
}
);
unicode = 992;
}
{
glyphname = "E-cy";
kernLeft = O;
kernRight = "E-cy";
layers = (
{
layerId = m01;
shapes = (
{
closed = 1;
nodes = (
(350,171,l),
(321,95,o),
(285,55,o),
(234,55,cs),
(141,55,o),
(117,156,o),
(150,372,cs),
(183,591,o),
(224,688,o),
(320,688,cs),
(363,688,o),
(388,654,o),
(398,598,c),
(501,620,l),
(481,717,o),
(431,788,o),
(331,788,cs),
(178,788,o),
(86,658,o),
(47,372,cs),
(9,91,o),
(61,-40,o),
(215,-40,cs),
(329,-40,o),
(403,22,o),
(446,156,c)
);
},
{
closed = 1;
nodes = (
(112,347,l),
(376,347,l),
(391,443,l),
(125,443,l)
);
}
);
width = 472;
}
);
metricLeft = O;
metricRight = C;
unicode = 1028;
}
{
glyphname = "Be-cy";
kernLeft = H;
kernRight = "Be-cy";
layers = (
{
layerId = m01;
shapes = (
{
closed = 1;
nodes = (
(149,682,l),
(444,682,l),
(459,778,l),
(162,778,l)
);
},
{
ref = "Softsign-cy";
}
);
width = 470;
}
);
metricLeft = H;
unicode = 1041;
}
{
glyphname = "Ge-cy";
kernLeft = H;
kernRight = "Ge-cy";
layers = (
{
layerId = m01;
shapes = (
{
closed = 1;
nodes = (
(227,778,l),
(124,778,l),
(11,-30,l),
(114,-30,l)
);
},
{
closed = 1;
nodes = (
(149,682,l),
(464,682,l),
(479,778,l),
(162,778,l)
);
}
);
width = 419;
}
);
metricLeft = H;
metricRight = F;
unicode = 1043;
}
{
glyphname = "De-cy";
kernLeft = "De-cy";
kernRight = "De-cy";
layers = (
{
layerId = m01;
shapes = (
{
closed = 1;
nodes = (
(553,778,l),
(248,778,l),
(203,525,o),
(118,128,o),
(12,32,c),
(90,-13,l),
(197,79,o),
(289,493,o),
(327,690,c),
(442,690,l),
(340,-30,l),
(440,-30,l)
);
},
{
closed = 1;
nodes = (
(424,-30,l),
(398,-181,l),
(486,-181,l),
(528,56,l),
(-18,56,l),
(-61,-181,l),
(27,-181,l),
(62,0,l),
(48,-30,l)
);
}
);
width = 566;
}
);
unicode = 1044;
}
{
glyphname = "Zhe-cy";
kernLeft = "Zhe-cy";
kernRight = "Ka-cy";
layers = (
{
layerId = m01;
shapes = (
{
closed = 1;
nodes = (
(677,678,o),
(698,698,o),
(723,698,cs),
(735,698,o),
(750,695,o),
(754,694,c),
(770,778,l),
(758,783,o),
(721,788,o),
(704,788,cs),
(641,788,o),
(607,747,o),
(577,661,cs),
(516,488,o),
(505,428,o),
(454,428,cs),
(356,428,l),
(344,340,l),
(431,340,ls),
(484,340,o),
(496,293,o),
(506,244,cs),
(561,-30,l),
(668,-30,l),
(602,266,ls),
(588,328,o),
(566,378,o),
(515,393,c),
(520,374,l),
(595,410,o),
(615,474,o),
(658,616,cs)
);
},
{
closed = 1;
nodes = (
(367,-30,l),
(479,778,l),
(379,778,l),
(267,-30,l)
);
},
{
closed = 1;
nodes = (
(159,474,o),
(161,410,o),
(226,374,c),
(236,393,l),
(181,378,o),
(144,328,o),
(113,266,cs),
(-35,-30,l),
(72,-30,l),
(203,244,ls),
(227,293,o),
(252,340,o),
(305,340,cs),
(392,340,l),
(404,428,l),
(307,428,ls),
(256,428,o),
(261,488,o),
(249,661,cs),
(243,747,o),
(220,788,o),
(157,788,cs),
(140,788,o),
(102,783,o),
(88,778,c),
(81,694,l),
(85,695,o),
(101,698,o),
(113,698,cs),
(138,698,o),
(154,678,o),
(155,616,cs)
);
}
);
width = 718;
}
);
metricRight = "Ka-cy";
unicode = 1046;
}
{
glyphname = "Ze-cy";
kernLeft = "Ze-cy";
kernRight = "Ze-cy";
layers = (
{
layerId = m01;
shapes = (
{
closed = 1;
nodes = (
(-9,154,l),
(2,3,o),
(85,-40,o),
(169,-40,cs),
(288,-40,o),
(380,40,o),
(405,205,cs),
(425,341,o),
(367,420,o),
(223,415,c),
(210,376,l),
(308,391,o),
(410,471,o),
(431,578,cs),
(453,691,o),
(413,788,o),
(275,788,cs),
(168,788,o),
(97,715,o),
(63,627,c),
(160,604,l),
(184,660,o),
(224,693,o),
(265,693,cs),
(326,693,o),
(341,643,o),
(327,577,cs),
(312,508,o),
(243,441,o),
(155,440,c),
(137,352,l),
(264,363,o),
(323,325,o),
(298,197,cs),
(278,94,o),
(236,60,o),
(177,60,cs),
(135,60,o),
(99,87,o),
(92,172,c)
);
}
);
width = 447;
},
{
associatedMasterId = m01;
layerId = "27F796CA-6791-43C4-9C02-8270AC2F4F54";
name = "Nov 22, 22, 11:37";
shapes = (
{
closed = 1;
nodes = (
(-14,154,l),
(-3,3,o),
(80,-40,o),
(164,-40,cs),
(283,-40,o),
(375,40,o),
(400,205,cs),
(420,341,o),
(362,420,o),
(218,415,c),
(205,376,l),
(303,391,o),
(405,471,o),
(426,578,cs),
(448,691,o),
(400,788,o),
(262,788,cs),
(166,788,o),
(99,727,o),
(64,649,c),
(161,626,l),
(186,672,o),
(215,693,o),
(253,693,cs),
(318,693,o),
(336,643,o),
(322,577,cs),
(307,508,o),
(238,441,o),
(150,440,c),
(132,352,l),
(259,363,o),
(318,325,o),
(293,197,cs),
(273,94,o),
(231,60,o),
(172,60,cs),
(130,60,o),
(94,87,o),
(87,172,c)
);
}
);
width = 447;
}
);
unicode = 1047;
}
{
glyphname = "Ii-cy";
kernLeft = H;
kernRight = H;
layers = (
{
anchors = (
{
name = top;
pos = (357,778);
}
);
layerId = m01;
shapes = (
{
closed = 1;
nodes = (
(124,778,l),
(12,-30,l),
(129,-30,l),
(437,578,ls),
(458,619,o),
(486,681,o),
(504,720,c),
(483,721,l),
(474,683,o),
(460,619,o),
(453,577,cs),
(357,-30,l),
(455,-30,l),
(568,778,l),
(453,778,l),
(173,228,ls),
(152,187,o),
(116,105,o),
(96,57,c),
(105,54,l),
(119,109,o),
(132,189,o),
(138,228,cs),
(222,778,l)
);
}
);
width = 555;
}
);
metricLeft = H;
metricRight = H;
unicode = 1048;
}
{
glyphname = "Ka-cy";
kernLeft = H;
kernRight = "Ka-cy";
layers = (
{
layerId = m01;
shapes = (
{
closed = 1;
nodes = (
(224,778,l),
(124,778,l),
(11,-30,l),
(111,-30,l)
);
},
{
closed = 1;
nodes = (
(437,678,o),
(458,698,o),
(483,698,cs),
(495,698,o),
(510,695,o),
(514,694,c),
(530,778,l),
(518,783,o),
(481,788,o),
(464,788,cs),
(401,788,o),
(367,747,o),
(337,661,cs),
(276,488,o),
(265,428,o),
(214,428,cs),
(116,428,l),
(104,340,l),
(191,340,ls),
(244,340,o),
(256,293,o),
(266,244,cs),
(321,-30,l),
(428,-30,l),
(362,266,ls),
(348,328,o),
(326,378,o),
(275,393,c),
(280,374,l),
(355,410,o),
(375,474,o),
(418,616,cs)
);
}
);
width = 478;
},
{
associatedMasterId = m01;
layerId = "4101F079-DA6B-429D-B890-9ECD29233D76";
name = "Nov 21, 22, 16:54";
shapes = (
{
closed = 1;
nodes = (
(224,778,l),
(124,778,l),
(11,-30,l),
(111,-30,l)
);
},
{
closed = 1;
nodes = (
(111,340,l),
(192,340,ls),
(245,340,o),
(263,293,o),
(273,244,cs),
(328,-30,l),
(435,-30,l),
(369,266,ls),
(355,328,o),
(327,378,o),
(276,393,c),
(281,374,l),
(366,410,o),
(390,509,o),
(439,649,cs),
(455,695,o),
(490,702,o),
(520,695,c),
(535,781,l),
(444,805,o),
(392,773,o),
(362,692,cs),
(298,519,o),
(266,429,o),
(215,428,cs),
(123,426,l)
);
}
);
width = 490;
}
);
metricLeft = H;
unicode = 1050;
}
{
glyphname = "El-cy";
kernLeft = "De-cy";
kernRight = H;
layers = (
{
layerId = m01;
shapes = (
{
closed = 1;
nodes = (
(547,778,l),
(228,778,l),
(173,525,o),
(113,248,o),
(77,132,cs),
(59,69,o),
(37,48,o),
(8,50,cs),
(-5,51,o),
(-15,53,o),
(-25,55,c),
(-37,-30,l),
(-21,-36,o),
(10,-40,o),
(27,-40,cs),
(94,-40,o),
(128,0,o),
(158,87,cs),
(196,199,o),
(263,486,o),
(305,683,c),
(434,683,l),
(334,-30,l),
(434,-30,l)
);
}
);
width = 534;
}
);
metricRight = H;
unicode = 1051;
}
{
glyphname = "Pe-cy";
kernLeft = H;
kernRight = H;
layers = (
{
anchors = (
{
name = BSB;
pos = (400,-100);
},
{
name = TSB;
pos = (400,900);
}
);
layerId = m01;
shapes = (
{
closed = 1;
nodes = (
(224,778,l),
(124,778,l),
(11,-30,l),
(111,-30,l)
);
},
{
closed = 1;
nodes = (
(526,778,l),
(426,778,l),
(313,-30,l),
(413,-30,l)
);
},
{
closed = 1;
nodes = (
(134,683,l),
(482,683,l),
(495,778,l),
(146,778,l)
);
}
);
width = 513;
}
);
metricLeft = H;
metricRight = H;
unicode = 1055;
}
{
glyphname = "U-cy";
kernLeft = "U-cy";
kernRight = "U-cy";
layers = (
{
anchors = (
{
name = top;
pos = (290,778);
}
);
layerId = m01;
shapes = (
{
closed = 1;
nodes = (
(174,196,l),
(142,82,o),
(103,53,o),
(57,53,cs),
(33,53,o),
(10,59,o),
(-12,68,c),
(-31,-24,l),
(2,-36,o),
(31,-40,o),
(60,-40,cs),
(166,-40,o),
(198,28,o),
(264,196,cs),
(492,780,l),
(392,780,l),
(254,404,ls),
(230,338,o),
(208,268,o),
(187,200,c),
(234,200,l),
(231,267,o),
(230,336,o),
(222,404,cs),
(178,780,l),
(79,780,l),
(174,89,l)
);
}
);
width = 433;
},
{
associatedMasterId = m01;
layerId = "3455C6DE-4F70-4555-AD27-607174ED3490";
name = "Nov 22, 22, 11:54";
shapes = (
{
closed = 1;
nodes = (
(249,159,l),
(224,82,o),
(181,50,o),
(135,50,cs),
(111,50,o),
(89,55,o),
(65,62,c),
(51,-24,l),
(84,-36,o),
(113,-40,o),
(142,-40,cs),
(248,-40,o),
(293,27,o),
(356,196,cs),
(574,780,l),
(474,780,l),
(344,404,ls),
(321,337,o),
(299,268,o),
(279,200,c),
(305,200,l),
(304,268,o),
(304,336,o),
(297,404,cs),
(260,780,l),
(161,780,l),
(246,89,l)
);
}
);
width = 600;
}
);
unicode = 1059;
}
{
glyphname = "Ef-cy";
kernLeft = "Ef-cy";
kernRight = "Ef-cy";
layers = (
{
associatedMasterId = m01;
layerId = "9EF5BB59-041F-497B-A1DE-AE95D02024A1";
name = "Nov 21, 22, 17:43";
width = 600;
},
{
layerId = m01;
name = Oblique;
shapes = (
{
closed = 1;
nodes = (
(147,75,o),
(33,188,o),
(49,383,cs),
(65,573,o),
(202,683,o),
(395,683,cs),
(582,683,o),
(700,569,o),
(685,371,cs),
(670,183,o),
(529,75,o),
(335,75,cs)
);
},
{
closed = 1;
nodes = (
(486,166,o),
(568,239,o),
(581,371,cs),
(593,513,o),
(528,592,o),
(388,592,cs),
(244,592,o),
(164,518,o),
(153,383,cs),
(140,244,o),
(203,166,o),
(345,166,cs)
);
},
{
closed = 1;
nodes = (
(261,-40,l),
(377,788,l),
(471,788,l),
(355,-40,l)
);
}
);
width = 709;
}
);
unicode = 1060;
}
{
glyphname = "Tse-cy";
kernLeft = H;
kernRight = "De-cy";
layers = (
{
layerId = m01;
shapes = (
{
closed = 1;
nodes = (
(313,-30,l),
(413,-30,l),
(526,778,l),
(426,778,l)
);
},
{
closed = 1;
nodes = (
(11,-30,l),
(111,-30,l),
(224,778,l),
(124,778,l)
);
},
{
closed = 1;
nodes = (
(459,-181,l),
(502,62,l),
(55,62,l),
(42,-30,l),
(397,-30,l),
(371,-181,l)
);
}
);
width = 534;
}
);
metricLeft = H;
unicode = 1062;
}
{
glyphname = "Che-cy";
kernLeft = "Che-cy";
kernRight = H;
layers = (
{
layerId = m01;
shapes = (
{
closed = 1;
nodes = (
(516,778,l),
(416,778,l),
(303,-30,l),
(403,-30,l)
);
},
{
closed = 1;
nodes = (
(371,384,l),
(338,363,o),
(283,341,o),
(241,341,cs),
(169,341,o),
(160,393,o),
(171,474,cs),
(214,778,l),
(114,778,l),
(69,459,ls),
(49,319,o),
(94,246,o),
(215,246,cs),
(271,246,o),
(340,276,o),
(381,301,c)
);
}
);
width = 503;
},
{
associatedMasterId = m01;
layerId = "EE185D2E-2119-43C6-9D44-24C5816F0347";
name = "Nov 21, 22, 17:18";
shapes = (
{
closed = 1;
nodes = (
(526,778,l),
(426,778,l),
(313,-30,l),
(413,-30,l)
);
},
{
closed = 1;
nodes = (
(381,385,l),
(345,362,o),
(290,342,o),
(246,342,cs),
(173,342,o),
(172,412,o),
(181,474,cs),
(224,778,l),
(124,778,l),
(80,465,ls),
(64,349,o),
(81,245,o),
(214,245,cs),
(274,245,o),
(347,276,o),
(391,303,c)
);
}
);
width = 600;
}
);
metricRight = H;
unicode = 1063;
}
{
glyphname = "Sha-cy";
kernLeft = H;
kernRight = H;
layers = (
{
layerId = m01;
shapes = (
{
closed = 1;
nodes = (
(286,62,l),
(124,62,l),
(224,778,l),
(124,778,l),
(11,-30,l),
(630,-30,l),
(748,778,l),
(648,778,l),
(543,62,l),
(386,62,l),
(486,778,l),
(386,778,l)
);
}
);
width = 734;
}
);
metricLeft = H;
metricRight = H;
unicode = 1064;
}
{
glyphname = "Shcha-cy";
kernLeft = H;
kernRight = "De-cy";
layers = (
{
layerId = m01;
shapes = (
{
closed = 1;
nodes = (
(677,-181,l),
(720,62,l),
(273,62,l),
(260,-30,l),
(615,-30,l),
(589,-181,l)
);
},
{
ref = "Sha-cy";
}
);
width = 752;
}
);
metricLeft = H;
unicode = 1065;
}
{
glyphname = "Hardsign-cy";
kernRight = B;
layers = (
{
layerId = m01;
shapes = (
{
pos = (67,0);
ref = "Softsign-cy";
},
{
closed = 1;
nodes = (
(56,682,l),
(214,682,l),
(226,778,l),
(72,778,l)
);
}
);
width = 533;
}
);
unicode = 1066;
}
{
glyphname = "Softsign-cy";
kernLeft = H;
kernRight = B;
layers = (
{
layerId = m01;
shapes = (
{
closed = 1;
nodes = (
(449,376,o),
(347,464,o),
(155,448,c),
(143,359,l),
(186,359,ls),
(288,359,o),
(335,315,o),
(323,208,cs),
(312,112,o),
(249,64,o),
(168,64,cs),
(61,64,l),
(48,-30,l),
(156,-30,ls),
(319,-30,o),
(413,60,o),
(430,210,cs)
);
},
{
closed = 1;
nodes = (
(224,778,l),
(124,778,l),
(11,-30,l),
(111,-30,l)
);
}
);
width = 466;
}
);
metricLeft = H;
unicode = 1068;
}
{
glyphname = "Ereversed-cy";
kernLeft = "Ereversed-cy";
kernRight = O;
layers = (
{
anchors = (
{
name = bottom;
pos = (157,-30);
},
{
name = top;
pos = (284,778);
}
);
layerId = m01;
shapes = (
{
closed = 1;
nodes = (
(163,599,l),
(188,655,o),
(222,693,o),
(272,693,cs),
(356,693,o),
(377,592,o),
(344,376,cs),
(311,157,o),
(275,60,o),
(179,60,cs),
(136,60,o),
(105,96,o),
(98,174,c),
(-4,153,l),
(10,36,o),
(60,-40,o),
(168,-40,cs),
(321,-40,o),
(413,90,o),
(452,376,cs),
(490,657,o),
(439,788,o),
(285,788,cs),
(179,788,o),
(110,728,o),
(67,618,c)
);
},
{
closed = 1;
nodes = (
(408,443,l),
(144,443,l),
(129,347,l),
(395,347,l)
);
}
);
width = 475;
}
);
metricRight = O;
unicode = 1069;
}
{
glyphname = "Yu-cy";
kernLeft = H;
kernRight = O;
layers = (
{
layerId = m01;
shapes = (
{
ref = I;
},
{
closed = 1;
nodes = (
(568,-40,o),
(655,91,o),
(692,372,cs),
(730,658,o),
(689,788,o),
(529,788,cs),
(386,788,o),
(299,658,o),
(260,372,cs),
(222,91,o),
(266,-40,o),
(423,-40,cs)
);
},
{
closed = 1;
nodes = (
(350,55,o),
(330,156,o),
(363,372,cs),
(396,591,o),
(436,693,o),
(521,693,cs),
(604,693,o),
(622,591,o),
(589,372,cs),
(556,156,o),
(518,55,o),
(433,55,cs)
);
},
{
closed = 1;
nodes = (
(126,349,l),
(314,349,l),
(326,440,l),
(137,440,l)
);
}
);
width = 716;
}
);
metricLeft = H;
metricRight = O;
unicode = 1070;
}
{
glyphname = "Ya-cy";
kernLeft = "Ya-cy";
kernRight = H;
layers = (
{
layerId = m01;
shapes = (
{
closed = 1;
nodes = (
(493,778,l),
(363,778,ls),
(211,778,o),
(98,705,o),
(81,575,cs),
(65,461,o),
(118,368,o),
(227,348,c),
(227,378,l),
(188,353,o),
(146,313,o),
(109,237,cs),
(-20,-30,l),
(91,-30,l),
(211,226,ls),
(237,282,o),
(269,322,o),
(302,335,c),
(331,335,l),
(280,-30,l),
(380,-30,l)
);
},
{
closed = 1;
nodes = (
(199,643,o),
(252,683,o),
(363,683,cs),
(380,683,l),
(343,425,l),
(306,425,ls),
(219,425,o),
(178,486,o),
(188,562,cs)
);
}
);
width = 480;
}
);
metricRight = H;
unicode = 1071;
}
{
glyphname = "be-cy";
kernLeft = o;
kernRight = o;
layers = (
{
layerId = m01;
shapes = (
{
closed = 1;
nodes = (
(244,609,o),
(171,536,o),
(140,360,c),
(130,397,l),
(166,470,o),
(233,516,o),
(292,516,cs),
(393,516,o),
(446,427,o),
(415,240,cs),
(387,66,o),
(312,-40,o),
(176,-40,cs),
(44,-40,o),
(5,73,o),
(46,332,cs),
(79,541,o),
(139,663,o),
(346,727,cs),
(390,741,o),
(395,751,o),
(397,767,cs),
(398,778,o),
(394,799,o),
(392,807,c),
(475,820,l),
(477,807,o),
(484,768,o),
(482,749,cs),
(478,697,o),
(449,673,o),
(383,652,cs)
);
},
{
closed = 1;
nodes = (
(252,50,o),
(292,116,o),
(313,232,cs),
(338,365,o),
(314,422,o),
(257,422,cs),
(202,422,o),
(149,355,o),
(128,302,c),
(153,366,l),
(112,157,o),
(122,50,o),
(191,50,cs)
);
}
);
width = 466;
},
{
associatedMasterId = m01;
layerId = "7B2CA20A-E84B-47D4-89DF-2AB59162DB65";
name = "Nov 22, 22, 16:41";
shapes = (
{
closed = 1;
nodes = (
(7,73,o),
(48,-40,o),
(180,-40,cs),
(316,-40,o),
(384,66,o),
(409,240,cs),
(436,427,o),
(389,516,o),
(282,516,cs),
(222,516,o),
(161,470,o),
(126,397,c),
(134,371,l),
(155,508,o),
(198,612,o),
(289,658,cs),
(330,679,o),
(414,699,o),
(480,704,c),
(475,778,l),
(378,769,o),
(307,751,o),
(260,726,cs),
(123,663,o),
(69,519,o),
(43,332,cs)
);
},
{
closed = 1;
nodes = (
(124,50,o),
(112,157,o),
(149,366,c),
(129,302,l),
(149,355,o),
(197,422,o),
(248,422,cs),
(310,422,o),
(329,365,o),
(307,232,cs),
(288,116,o),
(254,50,o),
(193,50,cs)
);
}
);
width = 600;
}
);
metricLeft = o;
metricRight = o;
unicode = 1073;
}
{
glyphname = "ve-cy";
kernLeft = n;
kernRight = "ve-cy";
layers = (
{
layerId = m01;
shapes = (
{
closed = 1;
nodes = (
(187,273,l),
(311,276,o),
(371,328,o),
(382,415,cs),
(394,507,o),
(334,580,o),
(230,580,cs),
(152,580,l),
(140,502,l),
(209,502,ls),
(259,502,o),
(294,472,o),
(285,414,cs),
(277,364,o),
(243,326,o),
(186,326,cs),
(107,326,l),
(97,242,l),
(159,242,ls),
(238,242,o),
(283,212,o),
(271,144,cs),
(260,80,o),
(215,53,o),
(147,53,cs),
(76,53,l),
(66,-30,l),
(147,-30,ls),
(278,-30,o),
(357,37,o),
(369,145,cs),
(378,223,o),
(342,304,o),
(179,304,c)
);
},
{
closed = 1;
nodes = (
(183,580,l),
(91,580,l),
(5,-30,l),
(97,-30,l)
);
}
);
width = 409;
}
);
metricLeft = n;
unicode = 1074;
}
{
glyphname = "ge-cy";
kernLeft = n;
kernRight = "ge-cy";
layers = (
{
layerId = m01;
shapes = (
{
closed = 1;
nodes = (
(334,580,l),
(91,580,l),
(5,-30,l),
(102,-30,l),
(175,489,l),
(320,489,l)
);
}
);
width = 313;
}
);
metricLeft = n;
unicode = 1075;
}
{
glyphname = "de-cy";
kernLeft = "de-cy";
kernRight = "de-cy";
layers = (
{
layerId = m01;
shapes = (
{
closed = 1;
nodes = (
(412,-181,l),
(454,58,l),
(-24,58,l),
(-66,-181,l),
(22,-181,l),
(49,-30,l),
(350,-30,l),
(324,-181,l)
);
},
{
closed = 1;
nodes = (
(235,492,l),
(387,492,l),
(348,534,l),
(269,-30,l),
(366,-30,l),
(452,580,l),
(195,580,l),
(161,392,o),
(96,129,o),
(3,43,c),
(73,0,l),
(169,85,o),
(243,359,o),
(276,530,c)
);
}
);
width = 491;
}
);
metricRight = "tse-cy";
unicode = 1076;
}
{
glyphname = "zhe-cy";
kernLeft = "zhe-cy";
kernRight = "zhe-cy";
layers = (
{
layerId = m01;
shapes = (
{
closed = 1;
nodes = (
(572,494,o),
(583,506,o),
(599,506,cs),
(607,506,o),
(621,502,o),
(629,503,c),
(644,579,l),
(631,585,o),
(599,590,o),
(585,590,cs),
(533,590,o),
(505,555,o),
(481,489,cs),
(435,357,o),
(427,326,o),
(395,326,cs),
(315,326,l),
(304,243,l),
(379,243,ls),
(413,243,o),
(421,212,o),
(428,175,cs),
(471,-38,l),
(568,-38,l),
(516,195,ls),
(504,248,o),
(484,294,o),
(431,302,c),
(440,266,l),
(507,293,o),
(524,337,o),
(558,450,cs)
);
},
{
closed = 1;
nodes = (
(317,-30,l),
(401,580,l),
(308,580,l),
(224,-30,l)
);
},
{
closed = 1;
nodes = (
(118,337,o),
(123,293,o),
(182,266,c),
(201,302,l),
(146,294,o),
(113,248,o),
(86,195,cs),
(-31,-38,l),
(66,-38,l),
(169,175,ls),
(187,212,o),
(203,243,o),
(237,243,cs),
(312,243,l),
(323,326,l),
(244,326,ls),
(212,326,o),
(213,357,o),
(203,489,cs),
(198,555,o),
(180,590,o),
(128,590,cs),
(114,590,o),
(80,585,o),
(66,579,c),
(59,503,l),
(67,502,o),
(82,506,o),
(90,506,cs),
(106,506,o),
(114,494,o),
(116,450,cs)
);
}
);
width = 629;
}
);
unicode = 1078;
}
{
glyphname = "ze-cy";
kernLeft = "ze-cy";
kernRight = "ze-cy";
layers = (
{
layerId = m01;
shapes = (
{
closed = 1;
nodes = (
(152,479,o),
(188,503,o),
(223,503,cs),
(257,503,o),
(281,476,o),
(271,429,cs),
(260,377,o),
(210,323,o),
(140,326,c),
(127,242,l),
(223,247,o),
(265,224,o),
(249,140,cs),
(235,68,o),
(199,50,o),
(160,50,cs),
(120,50,o),
(92,78,o),
(90,142,c),
(-3,129,l),
(-2,25,o),
(48,-40,o),
(145,-40,cs),
(254,-40,o),
(328,21,o),
(347,146,cs),
(362,250,o),
(302,306,o),
(192,302,c),
(182,268,l),
(270,280,o),
(350,348,o),
(366,430,cs),
(383,516,o),
(337,590,o),
(231,590,cs),
(136,590,o),
(76,529,o),
(41,437,c),
(130,422,l)
);
}
);
width = 397;
}
);
unicode = 1079;
}
{
glyphname = "ii-cy";
kernLeft = n;
kernRight = n;
layers = (
{
anchors = (
{
name = top;
pos = (268,580);
}
);
layerId = m01;
shapes = (
{
closed = 1;
nodes = (
(92,57,l),
(100,95,o),
(108,137,o),
(112,161,cs),
(182,580,l),
(91,580,l),
(6,-30,l),
(119,-30,l),
(335,406,ls),
(343,423,o),
(357,453,o),
(369,481,c),
(360,481,l),
(353,450,o),
(347,417,o),
(344,399,cs),
(269,-30,l),
(360,-30,l),
(446,580,l),
(334,580,l),
(129,161,ls),
(117,136,o),
(97,93,o),
(81,57,c)
);
}
);
width = 455;
}
);
metricLeft = n;
metricRight = n;
unicode = 1080;
}
{
glyphname = "ka-cy";
kernLeft = n;
kernRight = "ka-cy";
layers = (
{
layerId = m01;
shapes = (
{
closed = 1;
nodes = (
(188,580,l),
(91,580,l),
(5,-30,l),
(102,-30,l)
);
},
{
closed = 1;
nodes = (
(422,580,l),
(326,580,l),
(303,514,o),
(278,442,o),
(248,376,cs),
(231,338,o),
(212,326,o),
(185,326,cs),
(105,326,l),
(94,243,l),
(169,243,ls),
(203,243,o),
(211,212,o),
(218,175,cs),
(261,-38,l),
(360,-38,l),
(308,195,ls),
(296,248,o),
(274,294,o),
(221,302,c),
(237,266,l),
(304,293,o),
(330,341,o),
(372,450,cs)
);
}
);
width = 426;
},
{
associatedMasterId = m01;
layerId = "17DAFC22-267E-481D-9238-40C33CE9418E";
name = "Nov 24, 22, 17:39";
shapes = (
{
closed = 1;
nodes = (
(188,580,l),
(91,580,l),
(5,-30,l),
(102,-30,l)
);
},
{
closed = 1;
nodes = (
(358,494,o),
(369,506,o),
(385,506,cs),
(393,506,o),
(407,502,o),
(415,503,c),
(430,579,l),
(417,585,o),
(383,590,o),
(369,590,cs),
(317,590,o),
(289,555,o),
(265,489,cs),
(219,357,o),
(211,327,o),
(179,326,cs),
(99,324,l),
(88,243,l),
(163,243,ls),
(197,243,o),
(205,212,o),
(212,175,cs),
(255,-38,l),
(354,-38,l),
(302,195,ls),
(290,248,o),
(268,294,o),
(215,302,c),
(224,266,l),
(291,293,o),
(310,337,o),
(344,450,cs)
);
}
);
width = 420;
}
);
metricLeft = n;
unicode = 1082;
}
{
glyphname = "el-cy";
kernLeft = "el-cy";
kernRight = n;
layers = (
{
layerId = m01;
shapes = (
{
closed = 1;
nodes = (
(222,359,o),
(176,172,o),
(141,87,cs),
(106,2,o),
(81,-40,o),
(15,-40,cs),
(-2,-40,o),
(-15,-37,o),
(-31,-33,c),
(-16,54,l),
(-11,53,o),
(-4,52,o),
(0,52,cs),
(29,52,o),
(42,74,o),
(64,134,cs),
(96,220,o),
(136,392,o),
(173,580,c),
(450,580,l),
(364,-30,l),
(267,-30,l),
(346,534,l),
(385,492,l),
(212,492,l),
(255,530,l)
);
}
);
width = 459;
}
);
metricRight = n;
unicode = 1083;
}
{
glyphname = "em-cy";
kernLeft = n;
kernRight = n;
layers = (
{
layerId = m01;
shapes = (
{
closed = 1;
nodes = (
(445,484,l),
(440,460,o),
(430,400,o),
(426,377,cs),
(355,-30,l),
(451,-30,l),
(539,580,l),
(428,580,l),
(243,145,l),
(264,145,l),
(207,580,l),
(101,580,l),
(5,-30,l),
(101,-30,l),
(151,378,ls),
(155,412,o),
(161,462,o),
(162,482,c),
(143,482,l),
(147,460,o),
(157,400,o),
(160,378,cs),
(199,68,l),
(284,68,l),
(416,377,ls),
(426,400,o),
(454,462,o),
(465,484,c)
);
}
);
width = 548;
}
);
metricLeft = n;
metricRight = n;
unicode = 1084;
}
{
glyphname = "en-cy";
kernLeft = n;
kernRight = n;
layers = (
{
layerId = m01;
shapes = (
{
closed = 1;
nodes = (
(188,580,l),
(91,580,l),
(5,-30,l),
(102,-30,l)
);
},
{
closed = 1;
nodes = (
(429,580,l),
(332,580,l),
(246,-30,l),
(343,-30,l)
);
},
{
closed = 1;
nodes = (
(99,238,l),
(327,238,l),
(327,329,l),
(99,329,l)
);
}
);
width = 438;
}
);
metricLeft = n;
metricRight = n;
unicode = 1085;
}
{
glyphname = "pe-cy";
kernLeft = n;
kernRight = n;
layers = (
{
layerId = m01;
shapes = (
{
closed = 1;
nodes = (
(176,495,l),
(320,495,l),
(246,-30,l),
(343,-30,l),
(429,580,l),
(91,580,l),
(5,-30,l),
(102,-30,l)
);
}
);
width = 438;
}
);
metricLeft = n;
metricRight = n;
unicode = 1087;
}
{
glyphname = "te-cy";
kernLeft = "te-cy";
kernRight = "te-cy";
layers = (
{
layerId = m01;
shapes = (
{
closed = 1;
nodes = (
(33,492,l),
(354,492,l),
(367,580,l),
(46,580,l)
);
},
{
closed = 1;
nodes = (
(255,580,l),
(158,580,l),
(72,-30,l),
(169,-30,l)
);
}
);
width = 331;
}
);
unicode = 1090;
}
{
glyphname = "ef-cy";
kernLeft = o;
kernRight = o;
layers = (
{
layerId = m01;
shapes = (
{
closed = 1;
nodes = (
(412,810,l),
(320,810,l),
(171,-230,l),
(263,-230,l)
);
},
{
closed = 1;
nodes = (
(417,-40,o),
(521,59,o),
(549,274,cs),
(577,491,o),
(497,590,o),
(329,590,cs),
(165,590,o),
(61,491,o),
(33,274,cs),
(5,59,o),
(85,-40,o),
(252,-40,cs)
);
},
{
closed = 1;
nodes = (
(154,41,o),
(105,114,o),
(127,274,cs),
(150,435,o),
(219,509,o),
(322,509,cs),
(427,509,o),
(477,435,o),
(455,274,cs),
(432,114,o),
(363,41,o),
(258,41,cs)
);
}
);
width = 591;
},
{
associatedMasterId = m01;
layerId = "C204D45F-8AA8-481F-A734-CDC83A154C2C";
name = "Nov 22, 22, 14:28";
shapes = (
{
closed = 1;
nodes = (
(376,810,l),
(284,810,l),
(135,-230,l),
(227,-230,l)
);
},
{
closed = 1;
nodes = (
(381,-40,o),
(465,59,o),
(493,274,cs),
(521,491,o),
(461,590,o),
(293,590,cs),
(129,590,o),
(45,491,o),
(17,274,cs),
(-11,59,o),
(49,-40,o),
(216,-40,cs)
);
},
{
closed = 1;
nodes = (
(118,41,o),
(89,114,o),
(111,274,cs),
(134,435,o),
(183,509,o),
(286,509,cs),
(391,509,o),
(421,435,o),
(399,274,cs),
(376,114,o),
(327,41,o),
(222,41,cs)
);
}
);
width = 600;
}
);
unicode = 1092;
}
{
glyphname = "tse-cy";
kernLeft = n;
kernRight = "de-cy";
layers = (
{
layerId = m01;
shapes = (
{
closed = 1;
nodes = (
(252,13,l),
(303,55,l),
(69,55,l),
(108,13,l),
(188,580,l),
(91,580,l),
(5,-30,l),
(343,-30,l),
(429,580,l),
(332,580,l)
);
},
{
closed = 1;
nodes = (
(389,-181,l),
(430,55,l),
(83,55,l),
(72,-30,l),
(327,-30,l),
(301,-181,l)
);
}
);
width = 467;
}
);
metricLeft = n;
unicode = 1094;
}
{
glyphname = "che-cy";
kernLeft = "che-cy";
kernRight = n;
layers = (
{
layerId = m01;
shapes = (
{
closed = 1;
nodes = (
(234,72,l),
(225,-30,l),
(316,-30,l),
(403,580,l),
(306,580,l)
);
},
{
closed = 1;
nodes = (
(13,242,o),
(66,179,o),
(160,179,cs),
(212,179,o),
(271,209,o),
(312,234,c),
(302,307,l),
(269,286,o),
(230,264,o),
(192,264,cs),
(130,264,o),
(120,316,o),
(132,397,cs),
(159,580,l),
(61,580,l),
(33,382,ls)
);
}
);
width = 412;
}
);
metricRight = n;
unicode = 1095;
}
{
glyphname = "sha-cy";
kernLeft = n;
kernRight = n;
layers = (
{
layerId = m01;
shapes = (
{
closed = 1;
nodes = (
(250,10,l),
(301,55,l),
(70,55,l),
(109,10,l),
(188,580,l),
(91,580,l),
(5,-30,l),
(579,-30,l),
(665,580,l),
(568,580,l),
(489,10,l),
(540,55,l),
(309,55,l),
(348,10,l),
(427,580,l),
(330,580,l)
);
}
);
width = 674;
}
);
metricLeft = n;
metricRight = n;
unicode = 1096;
}
{
glyphname = "shcha-cy";
kernLeft = n;
kernRight = "de-cy";
layers = (
{
layerId = m01;
shapes = (
{
ref = "sha-cy";
},
{
closed = 1;
nodes = (
(625,-181,l),
(667,58,l),
(320,58,l),
(308,-30,l),
(563,-30,l),
(537,-181,l)
);
}
);
width = 704;
}
);
metricLeft = n;
metricRight = "tse-cy";
unicode = 1097;
}
{
glyphname = "hardsign-cy";
kernRight = "softsign-cy";
layers = (
{
layerId = m01;
shapes = (
{
pos = (49,0);
ref = "softsign-cy";
},
{
closed = 1;
nodes = (
(10,492,l),
(189,492,l),
(202,580,l),
(23,580,l)
);
}
);
width = 447;
}
);
metricRight = "ve-cy";
unicode = 1098;
}
{
glyphname = "softsign-cy";
kernLeft = n;
kernRight = "softsign-cy";
layers = (
{
layerId = m01;
shapes = (
{
closed = 1;
nodes = (
(372,266,o),
(282,326,o),
(185,326,cs),
(136,326,l),
(126,247,l),
(152,247,ls),
(228,247,o),
(272,212,o),
(260,144,cs),
(249,80,o),
(204,53,o),
(136,53,cs),
(65,53,l),
(55,-30,l),
(136,-30,ls),
(267,-30,o),
(344,32,o),
(358,150,cs)
);
},
{
closed = 1;
nodes = (
(183,580,l),
(91,580,l),
(5,-30,l),
(97,-30,l)
);
}
);
width = 398;
}
);
metricLeft = n;
metricRight = "ve-cy";
unicode = 1100;
}
{
glyphname = "ereversed-cy";
kernLeft = "ereversed-cy";
kernRight = o;
layers = (
{
layerId = m01;
shapes = (
{
closed = 1;
nodes = (
(-1,25,o),
(49,-40,o),
(146,-40,cs),
(276,-40,o),
(347,59,o),
(376,274,cs),
(405,491,o),
(358,590,o),
(231,590,cs),
(136,590,o),
(72,525,o),
(40,431,c),
(129,416,l),
(144,460,o),
(174,500,o),
(216,500,cs),
(279,500,o),
(299,429,o),
(280,274,cs),
(261,120,o),
(228,50,o),
(158,50,cs),
(120,50,o),
(93,82,o),
(91,142,c),
(-2,129,l)
);
},
{
closed = 1;
nodes = (
(95,238,l),
(313,238,l),
(326,329,l),
(108,329,l)
);
}
);
width = 422;
}
);
metricRight = o;
unicode = 1101;
}
{
glyphname = "yu-cy";
kernLeft = n;
kernRight = o;
layers = (
{
layerId = m01;
shapes = (
{
pos = (2,0);
ref = idotless;
},
{
closed = 1;
nodes = (
(492,-40,o),
(565,59,o),
(593,274,cs),
(621,491,o),
(574,590,o),
(450,590,cs),
(330,590,o),
(257,491,o),
(229,274,cs),
(201,59,o),
(248,-40,o),
(371,-40,cs)
);
},
{
closed = 1;
nodes = (
(325,50,o),
(307,120,o),
(329,274,cs),
(351,429,o),
(390,500,o),
(442,500,cs),
(496,500,o),
(515,429,o),
(493,274,cs),
(471,120,o),
(432,50,o),
(378,50,cs)
);
},
{
closed = 1;
nodes = (
(111,238,l),
(269,238,l),
(269,329,l),
(111,329,l)
);
}
);
width = 639;
}
);
metricLeft = n;
metricRight = o;
unicode = 1102;
}
{
glyphname = "ya-cy";
kernLeft = "ya-cy";
kernRight = n;
layers = (
{
layerId = m01;
shapes = (
{
closed = 1;
nodes = (
(315,-30,l),
(400,580,l),
(308,580,l),
(223,-30,l)
);
},
{
closed = 1;
nodes = (
(136,260,o),
(95,216,o),
(60,144,cs),
(-25,-30,l),
(77,-30,l),
(153,133,ls),
(179,188,o),
(211,229,o),
(244,242,c),
(269,242,l),
(280,322,l),
(241,322,ls),
(184,322,o),
(156,366,o),
(162,416,cs),
(170,481,o),
(209,502,o),
(259,502,cs),
(336,502,l),
(346,580,l),
(260,580,ls),
(147,580,o),
(75,513,o),
(65,421,cs),
(55,336,o),
(101,275,o),
(178,252,c),
(175,285,l)
);
}
);
width = 410;
}
);
metricRight = n;
unicode = 1103;
}
{
glyphname = "e-cy";
kernLeft = o;
kernRight = "e-cy";
layers = (
{
layerId = m01;
shapes = (
{
closed = 1;
nodes = (
(289,142,l),
(271,82,o),
(235,50,o),
(197,50,cs),
(131,50,o),
(113,120,o),
(135,274,cs),
(157,429,o),
(198,500,o),
(257,500,cs),
(304,500,o),
(320,460,o),
(324,416,c),
(417,431,l),
(409,525,o),
(360,590,o),
(265,590,cs),
(138,590,o),
(66,491,o),
(38,274,cs),
(10,59,o),
(56,-40,o),
(186,-40,cs),
(283,-40,o),
(350,25,o),
(377,129,c)
);
},
{
closed = 1;
nodes = (
(331,329,l),
(113,329,l),
(100,238,l),
(318,238,l)
);
}
);
width = 414;
}
);
metricLeft = o;
metricRight = c;
unicode = 1108;
}
{
glyphname = "Geupturn-cy";
kernLeft = H;
kernRight = "Ge-cy";
layers = (
{
layerId = m01;
shapes = (
{
ref = "Ge-cy";
},
{
closed = 1;
nodes = (
(464,682,l),
(503,888,l),
(415,888,l),
(375,682,l)
);
}
);
width = 429;
}
);
unicode = 1168;
}
{
glyphname = "geupturn-cy";
kernRight = "ge-cy";
layers = (
{
layerId = m01;
shapes = (
{
ref = "ge-cy";
},
{
closed = 1;
nodes = (
(333,489,l),
(368,675,l),
(280,675,l),
(244,489,l)
);
}
);
width = 329;
}
);
unicode = 1169;
}
{
glyphname = Germandbls;
kernLeft = H;
kernRight = o;
layers = (
{
layerId = m01;
shapes = (
{
closed = 1;
nodes = (
(10,-30,l),
(109,-30,l),
(208,688,l),
(382,688,l),
(371,588,o),
(354,489,o),
(233,466,c),
(217,375,l),
(337,340,o),
(381,232,o),
(369,147,cs),
(361,92,o),
(339,50,o),
(286,50,cs),
(251,50,o),
(221,84,o),
(206,101,c),
(151,29,l),
(183,-15,o),
(238,-40,o),
(292,-40,cs),
(402,-40,o),
(462,40,o),
(475,138,cs),
(490,244,o),
(439,372,o),
(289,441,c),
(279,393,l),
(391,426,o),
(459,517,o),
(475,637,cs),
(494,778,l),
(124,778,l)
);
}
);
width = 516;
}
);
metricLeft = H;
metricRight = B;
unicode = 7838;
}
{
glyphname = endash;
layers = (
{
layerId = m01;
shapes = (
{
closed = 1;
nodes = (
(19,346,l),
(368,346,l),
(381,434,l),
(32,434,l)
);
}
);
width = 400;
}
);
unicode = 8211;
}
{
glyphname = emdash;
layers = (
{
layerId = m01;
shapes = (
{
closed = 1;
nodes = (
(19,346,l),
(768,346,l),
(781,434,l),
(32,434,l)
);
}
);
width = 800;
}
);
unicode = 8212;
}
{
glyphname = quotesinglbase;
layers = (
{
layerId = m01;
shapes = (
{
ref = comma;
}
);
width = 209;
},
{
associatedMasterId = m01;
layerId = "E8DEF349-EA17-4922-A190-D529A7CED34E";
name = "Oct 14, 22, 17:37";
shapes = (
{
closed = 1;
nodes = (
(24,-26,o),
(-15,-133,o),
(-60,-218,c),
(21,-218,l),
(77,-133,o),
(127,-26,o),
(164,63,c),
(50,63,l)
);
}
);
width = 209;
},
{
associatedMasterId = m01;
layerId = "3E94859B-624C-46DC-9931-E893F2853491";
name = "Oct 14, 22, 17:37";
shapes = (
{
closed = 1;
nodes = (
(24,-26,o),
(-15,-133,o),
(-60,-218,c),
(4,-246,l),
(60,-161,o),
(114,-54,o),
(151,35,c),
(50,63,l)
);
}
);
width = 209;
},
{
associatedMasterId = m01;
layerId = "ECDC8352-7509-4B7F-9A01-E59E297226B1";
name = "Oct 14, 22, 17:39";
shapes = (
{
closed = 1;
nodes = (
(26,-22,o),
(-14,-135,o),
(-56,-222,c),
(6,-244,l),
(52,-183,o),
(116,-52,o),
(146,39,c),
(44,58,l)
);
}
);
width = 209;
}
);
unicode = 8218;
}
{
glyphname = dagger;
layers = (
{
layerId = m01;
shapes = (
{
closed = 1;
nodes = (
(60,505,l),
(339,505,l),
(350,580,l),
(71,580,l)
);
},
{
closed = 1;
nodes = (
(268,712,l),
(184,712,l),
(65,-128,l),
(149,-128,l)
);
}
);
width = 360;
}
);
unicode = 8224;
}
{
glyphname = daggerdbl;
layers = (
{
layerId = m01;
shapes = (
{
closed = 1;
nodes = (
(77,505,l),
(356,505,l),
(367,580,l),
(88,580,l)
);
},
{
closed = 1;
nodes = (
(285,712,l),
(201,712,l),
(82,-128,l),
(166,-128,l)
);
},
{
closed = 1;
nodes = (
(290,79,l),
(11,79,l),
(0,4,l),
(279,4,l)
);
}
);
width = 377;
}
);
unicode = 8225;
}
{
glyphname = bullet;
layers = (
{
layerId = m01;
shapes = (
{
closed = 1;
nodes = (
(456,210,o),
(497,260,o),
(508,330,cs),
(519,400,o),
(483,451,o),
(416,451,cs),
(343,451,o),
(302,400,o),
(292,330,cs),
(281,260,o),
(316,210,o),
(384,210,cs)
);
}
);
width = 800;
}
);
unicode = 8226;
}
{
glyphname = perthousand;
layers = (
{
layerId = m01;
shapes = (
{
pos = (-45,0);
ref = percent.full;
},
{
closed = 1;
nodes = (
(889,-40,o),
(938,33,o),
(959,190,cs),
(980,349,o),
(963,422,o),
(856,422,cs),
(761,422,o),
(712,349,o),
(689,190,cs),
(666,33,o),
(688,-40,o),
(792,-40,cs)
);
},
{
closed = 1;
nodes = (
(760,32,o),
(750,89,o),
(767,190,cs),
(784,291,o),
(804,349,o),
(848,349,cs),
(891,349,o),
(896,291,o),
(880,190,cs),
(864,89,o),
(845,32,o),
(801,32,cs)
);
}
);
width = 1007;
}
);
unicode = 8240;
}
{
glyphname = guilsinglleft;
layers = (
{
layerId = m01;
shapes = (
{
closed = 1;
nodes = (
(109,344,l),
(102,242,l),
(340,500,l),
(233,500,l),
(-4,242,l),
(3,364,l),
(162,50,l),
(259,50,l)
);
}
);
width = 350;
}
);
unicode = 8249;
}
{
glyphname = fraction;
layers = (
{
layerId = m01;
shapes = (
{
closed = 1;
nodes = (
(539,778,l),
(463,778,l),
(-45,-30,l),
(31,-30,l)
);
}
);
width = 470;
}
);
unicode = 8260;
}
{
glyphname = won;
layers = (
{
layerId = m01;
shapes = (
{
closed = 1;
nodes = (
(108,-30,l),
(197,-30,l),
(336,445,ls),
(353,503,o),
(385,633,o),
(394,680,c),
(370,680,l),
(366,632,o),
(361,502,o),
(364,441,cs),
(382,-30,l),
(471,-30,l),
(711,757,l),
(612,757,l),
(481,260,ls),
(468,208,o),
(452,155,o),
(441,114,c),
(447,108,l),
(447,157,o),
(446,208,o),
(445,249,cs),
(436,757,l),
(338,757,l),
(207,260,ls),
(193,209,o),
(178,155,o),
(167,114,c),
(173,108,l),
(173,154,o),
(172,208,o),
(171,249,cs),
(162,757,l),
(66,757,l)
);
},
{
closed = 1;
nodes = (
(10,325,l),
(660,325,l),
(672,403,l),
(22,403,l)
);
}
);
width = 656;
}
);
unicode = 8361;
}
{
glyphname = euro;
layers = (
{
layerId = m01;
shapes = (
{
closed = 1;
nodes = (
(371,163,l),
(348,92,o),
(313,55,o),
(266,55,cs),
(190,55,o),
(172,156,o),
(204,362,cs),
(236,571,o),
(269,668,o),
(348,668,cs),
(392,668,o),
(412,632,o),
(417,574,c),
(518,598,l),
(504,690,o),
(464,768,o),
(359,768,cs),
(226,768,o),
(136,638,o),
(99,362,cs),
(63,91,o),
(113,-40,o),
(247,-40,cs),
(351,-40,o),
(428,20,o),
(467,152,c)
);
},
{
closed = 1;
nodes = (
(40,412,l),
(382,412,l),
(394,490,l),
(52,490,l)
);
},
{
closed = 1;
nodes = (
(20,272,l),
(362,272,l),
(374,350,l),
(32,350,l)
);
}
);
width = 506;
}
);
unicode = 8364;
}
{
glyphname = hryvnia;
layers = (
{
layerId = m01;
shapes = (
{
closed = 1;
nodes = (
(42,353,l),
(31,275,l),
(453,275,l),
(464,353,l)
);
},
{
closed = 1;
nodes = (
(60,483,l),
(49,405,l),
(471,405,l),
(482,483,l)
);
},
{
closed = 1;
nodes = (
(433,492,o),
(470,543,o),
(473,612,cs),
(476,701,o),
(411,758,o),
(320,758,cs),
(207,758,o),
(129,688,o),
(103,579,c),
(189,573,l),
(205,629,o),
(245,674,o),
(308,674,cs),
(358,674,o),
(382,635,o),
(379,592,cs),
(377,538,o),
(332,493,o),
(277,448,c),
(391,448,l)
);
},
{
closed = 1;
nodes = (
(79,260,o),
(40,202,o),
(35,140,cs),
(28,33,o),
(91,-30,o),
(197,-30,cs),
(311,-30,o),
(405,49,o),
(445,173,c),
(362,178,l),
(334,106,o),
(283,53,o),
(213,53,cs),
(157,53,o),
(131,85,o),
(133,145,cs),
(137,206,o),
(174,263,o),
(222,304,c),
(119,304,l)
);
}
);
width = 494;
}
);
unicode = 8372;
}
{
glyphname = rupeeIndian;
layers = (
{
layerId = m01;
shapes = (
{
closed = 1;
nodes = (
(160,673,ls),
(233,673,o),
(288,624,o),
(272,532,cs),
(258,454,o),
(202,417,o),
(114,417,cs),
(51,417,l),
(39,328,l),
(115,328,ls),
(243,328,o),
(345,384,o),
(370,519,cs),
(386,607,o),
(354,670,o),
(299,701,c),
(298,681,l),
(478,681,l),
(490,759,l),
(109,759,l),
(98,673,l)
);
},
{
closed = 1;
nodes = (
(39,328,l),
(216,-30,l),
(325,-30,l),
(127,362,l)
);
},
{
closed = 1;
nodes = (
(71,503,l),
(452,503,l),
(464,581,l),
(83,581,l)
);
}
);
width = 437;
}
);
unicode = 8377;
}
{
glyphname = ruble;
layers = (
{
layerId = m01;
shapes = (
{
closed = 1;
nodes = (
(262,665,ls),
(349,665,o),
(397,619,o),
(386,535,cs),
(374,444,o),
(319,394,o),
(205,394,cs),
(144,394,l),
(144,310,l),
(206,310,ls),
(358,310,o),
(469,382,o),
(487,522,cs),
(507,674,o),
(428,759,o),
(266,759,cs),
(198,759,l),
(198,665,l)
);
},
{
closed = 1;
nodes = (
(259,759,l),
(159,759,l),
(48,-30,l),
(148,-30,l)
);
},
{
closed = 1;
nodes = (
(4,184,l),
(385,184,l),
(397,262,l),
(16,262,l)
);
},
{
closed = 1;
nodes = (
(23,310,l),
(194,310,l),
(207,392,l),
(36,392,l)
);
}
);
width = 474;
}
);
unicode = 8381;
}
{
glyphname = bitcoin;
layers = (
{
layerId = m01;
shapes = (
{
closed = 1;
nodes = (
(161,369,l),
(313,381,o),
(389,441,o),
(404,553,cs),
(420,671,o),
(342,757,o),
(207,757,cs),
(155,757,l),
(144,679,l),
(199,679,ls),
(276,679,o),
(313,636,o),
(301,551,cs),
(292,484,o),
(245,437,o),
(171,437,cs),
(108,437,l),
(96,345,l),
(138,345,ls),
(254,345,o),
(301,282,o),
(291,194,cs),
(280,98,o),
(210,54,o),
(122,54,cs),
(48,54,l),
(34,-30,l),
(109,-30,ls),
(278,-30,o),
(379,57,o),
(395,196,cs),
(407,296,o),
(360,410,o),
(150,410,c)
);
},
{
closed = 1;
nodes = (
(218,757,l),
(121,757,l),
(11,-30,l),
(108,-30,l)
);
},
{
closed = 1;
nodes = (
(336,698,l),
(364,880,l),
(292,880,l),
(264,698,l)
);
},
{
closed = 1;
nodes = (
(174,27,l),
(146,-152,l),
(218,-152,l),
(246,27,l)
);
},
{
closed = 1;
nodes = (
(226,698,l),
(254,880,l),
(182,880,l),
(154,698,l)
);
},
{
closed = 1;
nodes = (
(64,27,l),
(36,-152,l),
(108,-152,l),
(136,27,l)
);
}
);
width = 428;
}
);
unicode = 8383;
}
{
glyphname = numero;
layers = (
{
layerId = m01;
shapes = (
{
pos = (39,0);
ref = N;
},
{
closed = 1;
nodes = (
(904,189,o),
(976,288,o),
(1000,483,cs),
(1024,680,o),
(980,779,o),
(849,779,cs),
(722,779,o),
(648,680,o),
(624,483,cs),
(600,288,o),
(646,189,o),
(776,189,cs)
);
},
{
closed = 1;
nodes = (
(723,279,o),
(705,349,o),
(724,483,cs),
(743,618,o),
(782,689,o),
(841,689,cs),
(902,689,o),
(919,618,o),
(900,483,cs),
(881,349,o),
(844,279,o),
(783,279,cs)
);
},
{
closed = 1;
nodes = (
(608,78,l),
(931,78,l),
(942,143,l),
(619,143,l)
);
}
);
width = 1056;
}
);
unicode = 8470;
}
{
glyphname = telephone;
layers = (
{
layerId = m01;
shapes = (
{
alignment = -1;
ref = T;
},
{
closed = 1;
nodes = (
(499,562,l),
(404,562,l),
(321,-30,l),
(417,-30,l)
);
},
{
closed = 1;
nodes = (
(421,482,l),
(654,482,l),
(664,562,l),
(432,562,l)
);
},
{
closed = 1;
nodes = (
(379,239,l),
(593,239,l),
(603,320,l),
(388,320,l)
);
},
{
closed = 1;
nodes = (
(349,-30,l),
(589,-30,l),
(600,50,l),
(360,50,l)
);
},
{
closed = 1;
nodes = (
(811,562,l),
(718,562,l),
(635,-30,l),
(728,-30,l)
);
},
{
closed = 1;
nodes = (
(661,-30,l),
(880,-30,l),
(892,50,l),
(671,50,l)
);
}
);
width = 952;
}
);
unicode = 8481;
}
{
glyphname = trademark;
layers = (
{
layerId = m01;
shapes = (
{
closed = 1;
nodes = (
(243,778,l),
(161,778,l),
(91,276,l),
(173,276,l)
);
},
{
closed = 1;
nodes = (
(60,709,l),
(326,709,l),
(335,778,l),
(68,778,l)
);
},
{
closed = 1;
nodes = (
(644,702,l),
(570,276,l),
(648,276,l),
(718,778,l),
(635,778,l),
(486,460,l),
(506,460,l),
(444,778,l),
(367,778,l),
(297,276,l),
(375,276,l),
(422,700,l),
(399,700,l),
(454,381,l),
(519,381,l),
(668,702,l)
);
}
);
width = 778;
}
);
unicode = 8482;
}
{
glyphname = upArrow;
layers = (
{
layerId = m01;
shapes = (
{
closed = 1;
nodes = (
(445,653,l),
(355,653,l),
(355,-30,l),
(445,-30,l)
);
},
{
closed = 1;
nodes = (
(381,727,l),
(149,419,l),
(214,369,l),
(400,621,l),
(586,369,l),
(651,419,l),
(419,727,l)
);
}
);
width = 800;
}
);
unicode = 8593;
}
{
glyphname = minus;
layers = (
{
layerId = m01;
shapes = (
{
closed = 1;
nodes = (
(35,246,l),
(418,246,l),
(429,321,l),
(46,321,l)
);
}
);
width = 464;
}
);
unicode = 8722;
}
{
glyphname = radical;
layers = (
{
layerId = m01;
shapes = (
{
closed = 1;
nodes = (
(486,894,l),
(430,894,l),
(266,81,ls),
(258,43,o),
(253,1,o),
(250,-20,c),
(249,1,o),
(244,45,o),
(237,80,cs),
(169,418,l),
(36,367,l),
(48,308,l),
(108,331,l),
(210,-152,l),
(278,-152,l)
);
}
);
width = 512;
}
);
unicode = 8730;
}
{
glyphname = infinity;
layers = (
{
layerId = m01;
shapes = (
{
closed = 1;
nodes = (
(218,118,o),
(270,165,o),
(321,224,c),
(369,143,o),
(409,118,o),
(460,118,cs),
(531,118,o),
(603,177,o),
(612,278,cs),
(619,371,o),
(579,430,o),
(504,431,cs),
(430,432,o),
(380,376,o),
(335,326,c),
(299,388,o),
(258,431,o),
(195,431,cs),
(111,431,o),
(49,365,o),
(38,273,cs),
(27,183,o),
(75,118,o),
(150,118,cs)
);
},
{
closed = 1;
nodes = (
(115,179,o),
(91,221,o),
(97,272,cs),
(104,327,o),
(133,371,o),
(186,371,cs),
(240,371,o),
(266,321,o),
(294,271,c),
(257,229,o),
(215,179,o),
(167,179,cs)
);
},
{
closed = 1;
nodes = (
(425,179,o),
(402,208,o),
(359,276,c),
(390,309,o),
(437,371,o),
(488,371,cs),
(536,371,o),
(560,332,o),
(553,273,cs),
(547,229,o),
(517,179,o),
(467,179,cs)
);
}
);
width = 649;
}
);
unicode = 8734;
}
{
glyphname = approxequal;
layers = (
{
layerId = m01;
shapes = (
{
closed = 1;
nodes = (
(123,276,l),
(128,295,ls),
(133,313,o),
(145,324,o),
(173,324,cs),
(207,324,o),
(304,276,o),
(352,276,cs),
(411,276,o),
(448,296,o),
(466,371,cs),
(471,392,l),
(403,402,l),
(397,383,ls),
(389,358,o),
(377,353,o),
(353,353,cs),
(323,353,o),
(225,400,o),
(174,400,cs),
(110,400,o),
(75,376,o),
(59,311,cs),
(53,286,l)
);
},
{
closed = 1;
nodes = (
(101,111,l),
(106,130,ls),
(111,148,o),
(123,159,o),
(151,159,cs),
(185,159,o),
(282,111,o),
(330,111,cs),
(389,111,o),
(426,131,o),
(444,206,cs),
(449,227,l),
(381,237,l),
(375,218,ls),
(367,193,o),
(355,188,o),
(331,188,cs),
(301,188,o),
(203,235,o),
(152,235,cs),
(88,235,o),
(53,211,o),
(37,146,cs),
(31,121,l)
);
}
);
width = 502;
}
);
unicode = 8776;
}
{
glyphname = notequal;
layers = (
{
layerId = m01;
shapes = (
{
closed = 1;
nodes = (
(67,305,l),
(440,305,l),
(452,380,l),
(79,380,l)
);
},
{
closed = 1;
nodes = (
(43,127,l),
(416,127,l),
(428,202,l),
(55,202,l)
);
},
{
closed = 1;
nodes = (
(363,555,l),
(61,-30,l),
(116,-30,l),
(418,555,l)
);
}
);
width = 495;
}
);
unicode = 8800;
}
{
glyphname = one_period;
layers = (
{
layerId = m01;
shapes = (
{
pos = (586,0);
ref = period;
},
{
closed = 1;
nodes = (
(-45,-30,l),
(73,810,l)
);
},
{
pos = (237,0);
ref = one;
}
);
width = 800;
}
);
unicode = 9352;
}
{
glyphname = heartBlackSuit;
layers = (
{
layerId = m01;
shapes = (
{
closed = 1;
nodes = (
(226,75,o),
(139,164,o),
(74,275,cs),
(33,348,o),
(36,473,o),
(153,512,cs),
(237,539,o),
(313,496,o),
(351,427,c),
(390,496,o),
(466,539,o),
(549,512,cs),
(667,473,o),
(670,348,o),
(628,275,cs),
(564,164,o),
(477,75,o),
(351,-36,c)
);
},
{
closed = 1;
nodes = (
(705,491,o),
(666,531,o),
(637,580,cs),
(619,612,o),
(620,668,o),
(672,685,cs),
(709,697,o),
(743,678,o),
(760,647,c),
(777,678,o),
(811,697,o),
(848,685,cs),
(900,668,o),
(901,612,o),
(883,580,cs),
(854,531,o),
(816,491,o),
(760,442,c)
);
}
);
width = 944;
}
);
unicode = 9829;
}
{
glyphname = EighthNote;
layers = (
{
background = {
shapes = (
{
closed = 1;
nodes = (
(430,-39,o),
(513,55,o),
(526,154,cs),
(608,778,l),
(534,778,l),
(453,188,l),
(496,232,l),
(352,246,o),
(247,146,o),
(247,39,cs),
(247,-6,o),
(278,-39,o),
(332,-39,cs)
);
},
{
closed = 1;
nodes = (
(771,602,o),
(707,639,o),
(655,663,cs),
(619,680,o),
(601,718,o),
(608,778,c),
(555,754,l),
(534,537,o),
(696,662,o),
(669,450,c),
(749,450,l)
);
}
);
};
layerId = m01;
shapes = (
{
closed = 1;
nodes = (
(430,-39,o),
(513,55,o),
(526,154,cs),
(608,778,l),
(534,778,l),
(453,188,l),
(496,232,l),
(352,246,o),
(247,146,o),
(247,39,cs),
(247,-6,o),
(278,-39,o),
(332,-39,cs)
);
},
{
closed = 1;
nodes = (
(771,602,o),
(707,639,o),
(655,663,cs),
(619,680,o),
(601,718,o),
(608,778,c),
(555,754,l),
(534,537,o),
(696,662,o),
(669,450,c),
(749,450,l)
);
}
);
width = 1000;
}
);
unicode = 9834;
}
{
glyphname = twoemdash;
layers = (
{
layerId = m01;
shapes = (
{
closed = 1;
nodes = (
(19,346,l),
(1568,346,l),
(1581,434,l),
(32,434,l)
);
}
);
width = 1600;
}
);
unicode = 11834;
}
{
glyphname = "comma-han";
layers = (
{
layerId = m01;
shapes = (
{
closed = 1;
nodes = (
(288,50,o),
(213,137,o),
(153,196,c),
(87,141,l),
(138,82,o),
(207,-17,o),
(252,-96,c),
(342,-26,l)
);
}
);
width = 800;
},
{
associatedMasterId = m01;
layerId = "DE7CDDEB-3BFC-412D-8759-FD759907A671";
name = "Oct 18, 22, 17:20";
shapes = (
{
closed = 1;
nodes = (
(265,63,o),
(210,137,o),
(153,196,c),
(87,141,l),
(143,82,o),
(199,9,o),
(255,-80,c),
(322,-26,l)
);
}
);
width = 800;
}
);
unicode = 12289;
}
{
glyphname = "period-han";
layers = (
{
layerId = m01;
shapes = (
{
closed = 1;
nodes = (
(277,-102,o),
(338,-34,o),
(346,48,cs),
(355,131,o),
(309,199,o),
(222,199,cs),
(136,199,o),
(76,131,o),
(67,48,cs),
(58,-34,o),
(104,-102,o),
(191,-102,cs)
);
},
{
closed = 1;
nodes = (
(150,-44,o),
(122,-2,o),
(128,48,cs),
(133,99,o),
(170,141,o),
(216,141,cs),
(263,141,o),
(291,99,o),
(285,48,cs),
(280,-2,o),
(243,-44,o),
(197,-44,cs)
);
}
);
width = 800;
}
);
unicode = 12290;
}
{
glyphname = "zero-han";
layers = (
{
layerId = m01;
shapes = (
{
closed = 1;
nodes = (
(228,5,o),
(134,117,o),
(163,386,cs),
(192,667,o),
(312,777,o),
(461,777,cs),
(607,777,o),
(698,668,o),
(668,396,cs),
(639,122,o),
(517,5,o),
(371,5,cs)
);
},
{
closed = 1;
nodes = (
(573,-85,o),
(733,69,o),
(768,386,cs),
(804,718,o),
(667,867,o),
(461,867,cs),
(258,867,o),
(98,722,o),
(63,396,cs),
(29,73,o),
(164,-85,o),
(371,-85,cs)
);
}
);
width = 800;
}
);
unicode = 12295;
}
{
glyphname = anglebracketleft;
layers = (
{
layerId = m01;
shapes = (
{
closed = 1;
nodes = (
(521,-120,l),
(611,-120,l),
(492,380,l),
(750,880,l),
(660,880,l),
(401,380,l)
);
}
);
width = 800;
}
);
unicode = 12296;
}
{
glyphname = anglebracketright;
layers = (
{
layerId = m01;
shapes = (
{
closed = 1;
nodes = (
(279,880,l),
(189,880,l),
(308,380,l),
(50,-120,l),
(140,-120,l),
(399,380,l)
);
}
);
width = 800;
}
);
unicode = 12297;
}
{
glyphname = dblanglebracketleft;
layers = (
{
layerId = m01;
shapes = (
{
closed = 1;
nodes = (
(531,-120,l),
(611,-120,l),
(492,380,l),
(750,880,l),
(670,880,l),
(411,380,l)
);
},
{
closed = 1;
nodes = (
(389,-120,l),
(469,-120,l),
(350,380,l),
(608,880,l),
(528,880,l),
(269,380,l)
);
}
);
width = 800;
}
);
unicode = 12298;
}
{
glyphname = dblanglebracketright;
layers = (
{
layerId = m01;
shapes = (
{
closed = 1;
nodes = (
(269,880,l),
(189,880,l),
(308,380,l),
(50,-120,l),
(130,-120,l),
(389,380,l)
);
},
{
closed = 1;
nodes = (
(411,880,l),
(331,880,l),
(450,380,l),
(192,-120,l),
(272,-120,l),
(531,380,l)
);
}
);
width = 800;
}
);
unicode = 12299;
}
{
glyphname = cornerbracketleft;
layers = (
{
layerId = m01;
shapes = (
{
closed = 1;
nodes = (
(518,379,l),
(583,835,l),
(709,835,l),
(720,910,l),
(504,910,l),
(428,379,l)
);
}
);
width = 800;
}
);
unicode = 12300;
}
{
glyphname = cornerbracketright;
layers = (
{
layerId = m01;
shapes = (
{
closed = 1;
nodes = (
(282,370,l),
(217,-86,l),
(91,-86,l),
(80,-161,l),
(296,-161,l),
(372,370,l)
);
}
);
width = 800;
}
);
unicode = 12301;
}
{
glyphname = whitecornerbracketleft;
layers = (
{
layerId = m01;
shapes = (
{
closed = 1;
nodes = (
(539,340,l),
(600,765,l),
(720,765,l),
(750,970,l),
(387,970,l),
(296,340,l)
);
},
{
closed = 1;
nodes = (
(466,895,l),
(649,895,l),
(640,840,l),
(521,840,l),
(460,415,l),
(397,415,l)
);
}
);
width = 800;
}
);
unicode = 12302;
}
{
glyphname = whitecornerbracketright;
layers = (
{
layerId = m01;
shapes = (
{
closed = 1;
nodes = (
(260,379,l),
(199,-46,l),
(79,-46,l),
(50,-251,l),
(413,-251,l),
(503,379,l)
);
},
{
closed = 1;
nodes = (
(334,-176,l),
(151,-176,l),
(159,-121,l),
(278,-121,l),
(339,304,l),
(402,304,l)
);
}
);
width = 800;
}
);
unicode = 12303;
}
{
glyphname = blacklenticularbracketleft;
layers = (
{
layerId = m01;
shapes = (
{
closed = 1;
nodes = (
(622,-120,l),
(629,-75,l),
(556,27,o),
(546,219,o),
(568,381,cs),
(591,552,o),
(650,734,o),
(764,835,c),
(770,880,l),
(474,880,l),
(330,-120,l)
);
}
);
width = 800;
}
);
unicode = 12304;
}
{
glyphname = blacklenticularbracketright;
layers = (
{
layerId = m01;
shapes = (
{
closed = 1;
nodes = (
(178,880,l),
(171,835,l),
(244,733,o),
(254,541,o),
(232,379,cs),
(209,208,o),
(150,26,o),
(36,-75,c),
(30,-120,l),
(326,-120,l),
(470,880,l)
);
}
);
width = 800;
}
);
unicode = 12305;
}
{
glyphname = postalmark;
layers = (
{
layerId = m01;
shapes = (
{
closed = 1;
nodes = (
(246,533,l),
(872,533,l),
(885,628,l),
(259,628,l)
);
},
{
closed = 1;
nodes = (
(219,343,l),
(845,343,l),
(858,438,l),
(232,438,l)
);
},
{
closed = 1;
nodes = (
(432,-12,l),
(532,-12,l),
(587,380,l),
(487,380,l)
);
}
);
width = 1000;
}
);
unicode = 12306;
}
{
glyphname = tortoiseshellbracketleft;
layers = (
{
layerId = m01;
shapes = (
{
closed = 1;
nodes = (
(566,-120,l),
(630,-76,l),
(529,59,l),
(623,710,l),
(750,833,l),
(695,880,l),
(536,739,l),
(436,42,l)
);
}
);
width = 800;
}
);
unicode = 12308;
}
{
glyphname = tortoiseshellbracketright;
layers = (
{
layerId = m01;
shapes = (
{
closed = 1;
nodes = (
(234,880,l),
(170,836,l),
(271,701,l),
(177,50,l),
(50,-73,l),
(105,-120,l),
(264,21,l),
(364,718,l)
);
}
);
width = 800;
}
);
unicode = 12309;
}
{
glyphname = whitelenticularbracketleft;
layers = (
{
layerId = m01;
shapes = (
{
closed = 1;
nodes = (
(547,667,o),
(499,503,o),
(484,380,cs),
(469,256,o),
(472,93,o),
(526,-21,c),
(523,-46,l),
(350,-46,l),
(476,805,l),
(649,805,l),
(645,780,l)
);
},
{
closed = 1;
nodes = (
(249,-121,l),
(602,-121,l),
(624,-6,l),
(565,93,o),
(559,281,o),
(570,380,cs),
(581,479,o),
(638,657,o),
(733,755,c),
(750,880,l),
(397,880,l)
);
}
);
width = 800;
}
);
unicode = 12310;
}
{
glyphname = whitelenticularbracketright;
layers = (
{
layerId = m01;
shapes = (
{
closed = 1;
nodes = (
(253,102,o),
(301,256,o),
(316,379,cs),
(331,503,o),
(328,656,o),
(274,780,c),
(277,805,l),
(450,805,l),
(324,-46,l),
(151,-46,l),
(155,-21,l)
);
},
{
closed = 1;
nodes = (
(551,880,l),
(198,880,l),
(176,765,l),
(235,666,o),
(241,478,o),
(230,379,cs),
(219,280,o),
(162,102,o),
(67,4,c),
(50,-121,l),
(403,-121,l)
);
}
);
width = 800;
}
);
unicode = 12311;
}
{
glyphname = "asmall-hira";
layers = (
{
guides = (
{
pos = (631,656);
},
{
pos = (359,-38);
}
);
layerId = m01;
shapes = (
{
closed = 1;
nodes = (
(365,33,l),
(366,238,o),
(392,447,o),
(441,671,c),
(368,676,l),
(315,460,o),
(295,225,o),
(296,23,c)
);
},
{
closed = 1;
nodes = (
(504,442,l),
(470,289,o),
(421,144,o),
(360,74,c),
(359,85,l),
(325,53,o),
(295,45,o),
(260,45,cs),
(220,45,o),
(203,67,o),
(203,107,cs),
(203,206,o),
(285,315,o),
(432,315,cs),
(530,315,o),
(589,271,o),
(589,184,cs),
(589,87,o),
(532,30,o),
(420,-7,c),
(445,-83,l),
(583,-46,o),
(667,45,o),
(667,181,cs),
(667,307,o),
(577,393,o),
(433,393,cs),
(264,393,o),
(122,261,o),
(122,106,cs),
(122,38,o),
(155,-36,o),
(258,-36,cs),
(333,-36,o),
(394,-4,o),
(434,48,cs),
(495,129,o),
(537,263,o),
(574,424,c)
);
},
{
closed = 1;
nodes = (
(191,571,l),
(181,494,l),
(665,494,l),
(675,571,l)
);
}
);
width = 800;
}
);
unicode = 12353;
}
{
glyphname = "a-hira";
layers = (
{
layerId = m01;
shapes = (
{
closed = 1;
nodes = (
(355,64,l),
(356,318,o),
(388,577,o),
(448,855,c),
(368,861,l),
(304,594,o),
(279,303,o),
(280,52,c)
);
},
{
closed = 1;
nodes = (
(538,568,l),
(495,373,o),
(433,188,o),
(354,103,c),
(353,118,l),
(313,82,o),
(275,67,o),
(232,67,cs),
(180,67,o),
(152,102,o),
(152,154,cs),
(152,278,o),
(260,422,o),
(446,422,cs),
(563,422,o),
(655,364,o),
(655,260,cs),
(655,137,o),
(578,60,o),
(440,14,c),
(468,-69,l),
(638,-23,o),
(741,88,o),
(741,256,cs),
(741,406,o),
(618,508,o),
(448,508,cs),
(238,508,o),
(62,344,o),
(62,152,cs),
(62,69,o),
(103,-22,o),
(229,-22,cs),
(322,-22,o),
(393,18,o),
(443,85,cs),
(518,184,o),
(570,350,o),
(616,550,c)
);
},
{
closed = 1;
nodes = (
(147,730,l),
(137,645,l),
(737,645,l),
(747,730,l)
);
}
);
width = 800;
}
);
unicode = 12354;
}
